/* XPM */
static char *Ennemie_explode[] = {
/* columns rows colors chars-per-pixel */
"50 40 229 2 ",
"   c #050303",
".  c #0B0404",
"X  c #0E0905",
"o  c #0B0808",
"O  c #130404",
"+  c #1B0504",
"@  c #130B06",
"#  c #1B0A07",
"$  c #140D0C",
"%  c #1B0C0B",
"&  c #1F1009",
"*  c #1A1212",
"=  c #191818",
"-  c #230503",
";  c #2C0404",
":  c #240906",
">  c #2C0906",
",  c #240D0C",
"<  c #2B0D0C",
"1  c #330404",
"2  c #3C0304",
"3  c #330D0C",
"4  c #3C0C0C",
"5  c #380807",
"6  c #23130B",
"7  c #2C130B",
"8  c #2A190E",
"9  c #35120D",
"0  c #280F10",
"q  c #2A1414",
"w  c #241514",
"e  c #3B1313",
"r  c #341614",
"t  c #372415",
"y  c #2F2018",
"u  c #333535",
"i  c #3B3D3B",
"p  c #2D2C29",
"a  c #430304",
"s  c #4B0304",
"d  c #420A07",
"f  c #440B0C",
"g  c #4B0C0C",
"h  c #4F0807",
"j  c #530304",
"k  c #5C0303",
"l  c #540C0B",
"z  c #5D0B0B",
"x  c #560A06",
"c  c #59150E",
"v  c #481813",
"b  c #4C160E",
"n  c #630404",
"m  c #6B0404",
"M  c #640C0B",
"N  c #6B0B0B",
"B  c #660906",
"V  c #730305",
"C  c #7B0305",
"Z  c #720906",
"A  c #7C0806",
"S  c #740C0B",
"D  c #7C0D0B",
"F  c #720608",
"G  c #6A180D",
"H  c #76130C",
"J  c #681B13",
"K  c #472510",
"L  c #542514",
"P  c #47240E",
"I  c #742712",
"U  c #663A19",
"Y  c #762A0E",
"T  c #3D403D",
"R  c #724A1B",
"E  c #5D563F",
"W  c #634A22",
"Q  c #69542D",
"!  c #78592E",
"~  c #6F532E",
"^  c #78653B",
"/  c #484B47",
"(  c #555957",
")  c #50534B",
"_  c #605F4D",
"`  c #7E6B42",
"'  c #67665C",
"]  c #656C65",
"[  c #6B7573",
"{  c #830405",
"}  c #8C0504",
"|  c #830806",
" . c #8A0806",
".. c #830C0B",
"X. c #8C0B09",
"o. c #920504",
"O. c #9B0504",
"+. c #960805",
"@. c #9C0B06",
"#. c #930B08",
"$. c #8C1508",
"%. c #97140A",
"&. c #921A10",
"*. c #AA0604",
"=. c #A30B05",
"-. c #AB0B05",
";. c #A40705",
":. c #B70B06",
">. c #A31507",
",. c #A91608",
"<. c #B31306",
"1. c #BA1406",
"2. c #BC1C07",
"3. c #B91608",
"4. c #B41A09",
"5. c #892212",
"6. c #972C10",
"7. c #943614",
"8. c #AE2A09",
"9. c #BD2B09",
"0. c #B62308",
"q. c #B73C0D",
"w. c #A83511",
"e. c #AB2311",
"r. c #C11C08",
"t. c #C41907",
"y. c #D61B09",
"u. c #E01A09",
"i. c #CB240A",
"p. c #C52D09",
"a. c #CD290A",
"s. c #C62107",
"d. c #D82A0B",
"f. c #C83A0B",
"g. c #D3340A",
"h. c #D83C0D",
"j. c #E0370B",
"k. c #8D4419",
"l. c #B94918",
"z. c #B54E14",
"x. c #B2621E",
"c. c #8C5921",
"v. c #935A23",
"b. c #8F6330",
"n. c #AE7A2E",
"m. c #BD742B",
"M. c #CA460D",
"N. c #D9410E",
"B. c #C84418",
"V. c #DB5818",
"C. c #CD5214",
"Z. c #E44B0F",
"A. c #E44A12",
"S. c #E45514",
"D. c #E0580E",
"F. c #D2641A",
"G. c #D96614",
"H. c #C86B1C",
"J. c #EB6914",
"K. c #E96A19",
"L. c #E97E1A",
"P. c #D9732F",
"I. c #E46822",
"U. c #E7742C",
"Y. c #D05535",
"T. c #807666",
"R. c #AC863F",
"E. c #EB871E",
"W. c #F3971D",
"Q. c #F48E1F",
"!. c #F1A11D",
"~. c #DA9336",
"^. c #CE8932",
"/. c #EB8726",
"(. c #F28D25",
"). c #EC9726",
"_. c #F49928",
"`. c #F49A36",
"'. c #E78A36",
"]. c #DEA039",
"[. c #F3B039",
"{. c #9C8149",
"}. c #A38E4E",
"|. c #B6AB78",
" X c #BEA964",
".X c #D08949",
"XX c #E58D47",
"oX c #CBA15A",
"OX c #F7BA4A",
"+X c #F3B753",
"@X c #EEB15B",
"#X c #CC9B6D",
"$X c #D0BF7B",
"%X c #D3B06B",
"&X c #E9AB60",
"*X c #F0BA6D",
"=X c #EEBC6E",
"-X c #F8C055",
";X c #EDCA77",
":X c #F4D372",
">X c #F7C76B",
",X c #8D9288",
"<X c #90A09F",
"1X c #A8BCB8",
"2X c #C8BB8C",
"3X c #E1AA9B",
"4X c #B3C2B5",
"5X c #DCC786",
"6X c #E5C486",
"7X c #F6D897",
"8X c #F1CD8B",
"9X c #DADBAA",
"0X c #CDD5BA",
"qX c #E6D1A9",
"wX c #F2DDAE",
"eX c #F5E6A9",
"rX c #F5E7BA",
"tX c #B0C5C1",
"yX c #AFC4C1",
"uX c #C9D6CE",
"iX c #D9E3C8",
"pX c #D9ECDA",
"aX c #F3EECE",
"sX c #D6F2EB",
"dX c #DCF4F2",
"fX c #DBEAE8",
"gX c #E4F5EE",
"hX c #E8FBF9",
"jX c #F5F9EB",
/* pixels */
"X                 . . . O O O + + + - ; ; 1 1 1 1 1 1 1 2 1 1 1 ; ; ; ; - - + - + + O + # O # # # # ",
".                     . . O O + - - ; ; 1 1 1 2 2 2 2 2 2 a 2 1 1 1 ; ; ; - - - - + + O O + O + # & ",
"                      O + + + - - ; ; 1 1 2 2 a a s a s s s a a a 1 1 1 1 1 ; - - + + + + O O + : : ",
".                   O O + - - ; 1 1 2 2 a s s j j j j j j j s a a 2 2 2 1 1 1 ; ; ; - + + + + + : : ",
"                  O O + ; ; 1 1 2 2 s s s k k k k n n n n n k k j s a a a a 2 1 1 ; ; ; ; - - ; ; > ",
".   .           . O + ; 1 2 2 a s s j k k n m m V V V V m m n n k k j j s a 2 2 1 1 1 ; ; ; 1 1 1 > ",
".           . O O + - 1 1 a a s j k n m m V V C { { { C C C C V m n n k j j j a a 2 2 2 1 1 2 2 5 5 ",
"O   .   . . O O + - ; 1 a s j j k m m V C C { } } } } } } } { C V m m n k j j s s a a a a 2 a s a d ",
". . . . . O O + - ; 1 2 a j k k m m C C { } +.@.=.=.@.=.@.O.o.} C V V m m n k j j s s s s a x s h d ",
"O . . . O O + + ; 1 2 a j l n M B C { } X.%.%.4.0.0.e.0.4.=.O.+.} { C V V n k k j j j j s s s x s d ",
"O . O O O + + - 1 1 2 s j e M c h S N %.b G 7.7.7.M.L M.9.0.<.-.O.O.{ C V V n n k j j j j s d s h d ",
"O O O % $ $ $ % < 2 a s j e v e h e J J L Y k.U c.v.R F.C.M.p.4.*.O.o.} C V V m n k k k j s s s a 4 ",
"O O $ $ % , < < + q a j k e N N l v 5.7.L R v.W b.{.R.~.^.G.M.9.<.*.O.} { C V m n k k k j a s s d 5 ",
"O $ * % + + - 1 3 * 4 j n N C X.#.%.7.z.x.n.^. X4XsX0X5X%X~.F.M.9.<.;.+.} { C m n n k j j s 2 2 5 5 ",
"O $ $ w , - ; 3 r 4 , k m C { o.%.8.z.H.oX$X$XpXhXhXhXhXjXqXP.G.f.2.*.O.o.{ C V n k j j s a 5 1 > 3 ",
"O $ % # , w q 0 2 f % k m C } O.8.q.H.#XsXdX4X[ / u u u u ) R R.G.p.:.;.O.} C V m k j s s 2 1 1 1 3 ",
"O $ $ + - ; ; 1 2 s % z m { } @.8.z.^.pXsX1X= <XuXdXdXgXiX0X,X= #Xh.1.*.O.} { V m k s s a 2 1 1 > 3 ",
"O . * $ $ % % w f a % l V { #.>.q.^.uXsX4X/ p u T ( ( _ ( u u = ' l.t.*.O.o.C V n k s a 2 1 ; ; 1 3 ",
"O O O - , , , * 2 a < g V { o.>..X0X4XT / ] [ pXuX2X}.n.2XpXhX/ ` p N *.;.o.C V n j a a 2 1 ; ; > 7 ",
"O O O + - - < * 2 a 3 4 V { o.>.#X] T yXsXyXp ) ` }.n.n.b.[ ( p 6XqXc 3 } } C V n j a 2 1 ; ; ; > 9 ",
"O O O O + - 3 $ 4 2 f , m C } X.y ` pXiX9X9X$X|.c.R Q Q U |.uXrXwXwXY.S , D C m k s a 1 1 1 ; ; > 7 ",
"O . . O + + ; $ e 2 f % M V A , k.^.~.F.F.H.].).E.L.OX;X&X3X&X6XjXrX3X*.M < F m k a a 1 1 ; ; ; > 7 ",
". . . O O O + $ e 1 a , f m , M w.~.M.9.9.f.G.G.F.E.).&X6X'.h.V.>X+Xf.O.} f 4 n s a 2 ; ; - - ; > 7 ",
". . . O O O - % q 1 2 4 q 3 f C C 1.:.2.p.N.f.D..X=X*X+X*XI.j.A.`.P.,.o.C F % l s 2 1 ; - - - - : 7 ",
". . . . . O + , * 3 1 a % % n m V @.*.s.g.p.).!.eX=XjXaX).J.J.J.r.-.} { F m 4 < 2 1 ; - - + + # : 7 ",
". .   . . O O + $ r 1 2 * f k k Z <.1.i.p.g.L.!.:XE.7XjX:X(.h.Z.i.h.B.C m n l + 2 ; ; - + + + + # : ",
".   .   . . O + % * < 3 $ a s s k m $.} t.D.W.W.[.;X!.jXeX_.d.Z.<.@.#.V n j s % 3 ; - + + + # + # 6 ",
"            . O + $ q 0 < 2 a s j j C *.a.D.J.J.!.OXOX_.eX`.Z.S.K.o.C V k j a , : - + + + O O + # 6 ",
"            . . O % $ $ 3 1 a a s n o.t.g.N.3.g.`.K.+X-XL./.(.J.I.:.C n j a 2 3 $ - + O O + O # # 6 ",
".           . . . O $ . q 5 2 a m <.:.:.r.i.g./._.I.Q._.S.j._.A.y.*.F k s 2 1 0 $ + O O O O O O O # ",
".             . + l 1 e % , $ < I 6.l.@.i.r.a.C.S.aXrXI.(.OX7XaXS.B.N f 3 % $ * o 3 ; O O O O O # & ",
".               k -.i.H I a.&.^ K U K t 8 P P b R Q Q R R E ) T y q 4 g O 4 f D e 4.C . O O O @ # 6 ",
".     . - -   . m j +.g H :.d.5.! /.`.'.'.'.4.D H ..D ..&.x.F.XXU.u.d.h.6 :.:.u.G D O.+ O O $ + # 8 ",
"5 + O k n *.{ s x ; s M % 0 < 0 z._.P.;.<.y.*.k j n N { { A <.,.;.4.3.t.3 g N D 3 f n - O - - S 3 8 ",
"#.{ 1 M A } C d - s { o.} f M ..x &.} } { C V k m n n n a a k A k j h n X.l 3 l N 5 B +.x x F M 6 b ",
"5 d - j a h a 1 O - a x + j 1 1 a 2 ; Z n x 2 m h k k n n x } s } N k { B k 1 n h k Z +.C 5 l 7 6 8 ",
"%.X.A Z N m  .A { A  .X.2 B B k Z Z k +. .| | @.#.O.+.} m Z | A V { | } | o.N Z B B {  .z B h g c b ",
": $ X @ O .   . . . O O . O X O O O O : + + - - + - # # O . O O . O O O X O O O . O O O O % # % & 8 ",
"% $ X X X X X o .         .   . X   X X X . o X . . . . X . . . o . .   . . . X X O @ @ # @ & 6 6 8 ",
"6 % # @ @ @ X @ @ X X X @ @ X o X X X @ @ X @ @ $ O X X @ X @ @ $ @ @ @ $ @ @ @ @ & & & 6 6 8 8 8 8 "
};
