/* XPM */
static char *Grass[] = {
/* columns rows colors chars-per-pixel */
"50 50 243 2 ",
"   c #1C6B12",
".  c #1C6D12",
"X  c #1D6D12",
"o  c #1C6E12",
"O  c #1D6F12",
"+  c #1D7012",
"@  c #1D7112",
"#  c #1D7212",
"$  c #1D7312",
"%  c #1D7213",
"&  c #1D7313",
"*  c #1D7412",
"=  c #1D7512",
"-  c #1D7413",
";  c #1D7513",
":  c #1E7512",
">  c #1E7413",
",  c #1E7513",
"<  c #1E7612",
"1  c #1E7613",
"2  c #1E7713",
"3  c #1E7813",
"4  c #1E7913",
"5  c #1E7A13",
"6  c #1E7B13",
"7  c #1F7B13",
"8  c #1E7C13",
"9  c #1F7C13",
"0  c #1F7D13",
"q  c #1F7E13",
"w  c #1F7F13",
"e  c #1F7F14",
"r  c #1F8013",
"t  c #1F8113",
"y  c #1F8213",
"u  c #1F8313",
"i  c #208113",
"p  c #208213",
"a  c #208313",
"s  c #208413",
"d  c #208513",
"f  c #208613",
"g  c #208713",
"h  c #208014",
"j  c #208114",
"k  c #208214",
"l  c #208314",
"z  c #208414",
"x  c #208514",
"c  c #208614",
"v  c #218614",
"b  c #208714",
"n  c #218714",
"m  c #208813",
"M  c #208913",
"N  c #218913",
"B  c #208A13",
"V  c #218A13",
"C  c #218B13",
"Z  c #218C13",
"A  c #218D13",
"S  c #218814",
"D  c #218914",
"F  c #218A14",
"G  c #218B14",
"H  c #218B15",
"J  c #218C14",
"K  c #218D14",
"L  c #228D14",
"P  c #228C15",
"I  c #228D15",
"U  c #218E14",
"Y  c #218F14",
"T  c #228E14",
"R  c #228F14",
"E  c #228E15",
"W  c #228F15",
"Q  c #219014",
"!  c #229014",
"~  c #229114",
"^  c #229015",
"/  c #229115",
"(  c #229214",
")  c #229314",
"_  c #229215",
"`  c #239315",
"'  c #229414",
"]  c #229514",
"[  c #229415",
"{  c #239415",
"}  c #239515",
"|  c #229614",
" . c #239614",
".. c #229714",
"X. c #239714",
"o. c #239615",
"O. c #239715",
"+. c #239814",
"@. c #239914",
"#. c #239815",
"$. c #239915",
"%. c #239A14",
"&. c #239B14",
"*. c #239A15",
"=. c #239B15",
"-. c #249915",
";. c #249A15",
":. c #249B15",
">. c #249A16",
",. c #249B16",
"<. c #239C14",
"1. c #239D14",
"2. c #239E14",
"3. c #249D14",
"4. c #249C15",
"5. c #249D15",
"6. c #249E14",
"7. c #249F14",
"8. c #249E15",
"9. c #249F15",
"0. c #249C16",
"q. c #249D16",
"w. c #259D16",
"e. c #249E16",
"r. c #259E16",
"t. c #259F16",
"y. c #24A014",
"u. c #24A114",
"i. c #24A015",
"p. c #24A115",
"a. c #25A115",
"s. c #24A214",
"d. c #24A314",
"f. c #24A215",
"g. c #25A215",
"h. c #24A315",
"j. c #25A315",
"k. c #25A016",
"l. c #25A116",
"z. c #25A216",
"x. c #25A316",
"c. c #26A316",
"v. c #26A217",
"b. c #26A317",
"n. c #24A414",
"m. c #24A415",
"M. c #25A415",
"N. c #24A515",
"B. c #25A515",
"V. c #25A615",
"C. c #25A715",
"Z. c #25A416",
"A. c #25A516",
"S. c #26A516",
"D. c #26A417",
"F. c #26A517",
"G. c #25A616",
"H. c #26A616",
"J. c #26A716",
"K. c #26A617",
"L. c #26A717",
"P. c #25A815",
"I. c #25A915",
"U. c #26A915",
"Y. c #25AA15",
"T. c #25AB15",
"R. c #26AA15",
"E. c #26AB15",
"W. c #26A816",
"Q. c #26A916",
"!. c #26A817",
"~. c #27A817",
"^. c #26AA16",
"/. c #26AB16",
"(. c #26AA17",
"). c #27AA17",
"_. c #26AC15",
"`. c #26AD15",
"'. c #26AE15",
"]. c #26AF15",
"[. c #26AC16",
"{. c #27AC16",
"}. c #26AD16",
"|. c #27AD16",
" X c #27AC17",
".X c #27AD17",
"XX c #26AE16",
"oX c #27AE16",
"OX c #26AF16",
"+X c #27AF16",
"@X c #27AE17",
"#X c #27AF17",
"$X c #28AF17",
"%X c #26B015",
"&X c #26B115",
"*X c #27B215",
"=X c #26B016",
"-X c #27B016",
";X c #27B116",
":X c #27B017",
">X c #27B117",
",X c #27B216",
"<X c #27B316",
"1X c #27B217",
"2X c #27B317",
"3X c #27B416",
"4X c #27B516",
"5X c #28B017",
"6X c #28B117",
"7X c #28B217",
"8X c #28B317",
"9X c #28B416",
"0X c #28B516",
"qX c #28B417",
"wX c #28B517",
"eX c #28B616",
"rX c #28B716",
"tX c #28B617",
"yX c #28B717",
"uX c #28B916",
"iX c #28B817",
"pX c #29B817",
"aX c #28B917",
"sX c #29BA17",
"dX c #29BB17",
"fX c #29BC17",
"gX c #2ABF17",
"hX c #28B118",
"jX c #28B318",
"kX c #29B618",
"lX c #29B718",
"zX c #29B818",
"xX c #29B918",
"cX c #2ABA18",
"vX c #2ABB18",
"bX c #2ABC18",
"nX c #2ABD18",
"mX c #2ABE18",
"MX c #2ABE19",
"NX c #2ABF19",
"BX c #2AC018",
"VX c #2AC118",
"CX c #2BC219",
/* pixels */
"].].].].].) 5 s ].].d m.' y.].].].].].].].].+.8.W d.~ +.;X+ U W.(.Y ].d R.x.X.'.].].].].].].].].].].",
"].].&.T.].7.P.].].].| { y.].].].].].].].].T.U U wX{ U s.~ 2 A M 4 ].].T.q rX+.`.].].+.].].].].].].].",
"].&.4.J u.< 0 '.].].9 kXK Y y ) ' C.].].].J t.( Y.W.M ( ] +.m.U x.*.].m q ].].].].].4 U ].].].].].].",
"'.! jX5 R _ W.g T.B y.W.# ] [.t.@ 7Xm _.].z hXU s bXM I.f T.].t MXd C lXq ].].].].].5  X~ `.].&.~ '.",
"y.M C.M E.~ ) tX! B V.) K g r ( ) | qX~ %._.! 2 N.x.] u.iXT %.Y.$.* 2.(.K ].].6.].].B 9.0.] `.+.9  .",
"Z 1.y d.Z y.X.&X^.d.`.+.K y `.].].| *Xo.s n.2 u.].| ].%._.j.q C.* <.].| ].].].- +.].'.f ,.H m.r z q.",
"J.( n.a d.].].].].].].].K t.g ].~ V.rXC.g P.n.].].J A.2.].Y.C.].s.].].].].].].6 e.%.`.d -Xn w f.@XE ",
"].'.].`.].].B.].].].].T.K ..8Xt M m.] Z r p C.].B.J F.Y w 0 ( _.].].].s.F Y.].5 f ( %.f I.9 | 5 6 s.",
"].].].].].].9 X.].].`.) } J s.5 ) I.g %.r 1X_ d.5 &X .0 ) e.v G.%.].].9 kX~ &.-Xd uX) ].<.g Z ].].].",
"].].) d ( ].9 t.| ].T.S v.3.T.h.@XJ ].].2.K 2X[ ( V.4 8 ) | w G.l.| ].1..X3 ~ nXd ].].].].].].].].].",
"].+.) y.' 5 $ OXl.@.t E.O.&.'.+.5 @Xs `.F 7.&XT.`.`.m.m.'.].I.d <Xe.3 d.: B I.b P.].].7.( '.].&.| ].",
"].].Y q g p.G.d [.J q <.q.n ~ 0 V mX9 Y 5X0 P.<.<.].].].].].].].].&.1._.Z ].q XXd.].`.z D.3.f.9.~ ].",
"].].].].m.K K u.4 K P.K {.v f 0 ) [.* K pX3 K ~ -.' ].].].m.7.].].u.s.].].6.; 2Xo.u.'.5.r.y  .#X~ ].",
"].].Y I.].].].s.n / d.q @.] d.b 8XS Q C *X3 ( r x 5 ].].Y.T >.B.V.1 | ].].K D.G 9X_ r n.2 A P.L C.].",
"].) | 0 ].].C.# N yXG m.( X.s +.&.dXf `.V 1 C T.T.u.Y T.Y.` q.| G L.2 7.1.K -X_._.N u.u.Y '.'._.].].",
"].~ +.C 2.u.} 4 2.7.sX! ].! _.].].].].].2.`.].].&.9./.) +.Y.a q _.$.^.O.~ %.q C.Y 2.].].].].].].].].",
"].d.C R.* K VX6 ].].].].].].].].].].].<.Y A ].].5 .X3Xc ~ %.r P.Y.7.| ;X4.&.&.N 2.].].N.%.].].].].].",
"].].s 8X~.Q F d.].].].].'.'.].].'.f `.Y %.6 '.Q @.:X~ C.`.T.I.].].].C.`.OXI.g y.].].`.S :.2.`.`.'.].",
"].].].].].V.F y.P.6.7.].K Q '.].g xX9 X.) P.0 C n.5 ].].y.6.C.]._.N.].'.6.6.4 c m.].y./ v.U r i ( T.",
"].u.m.].].C zX, ) 9 f Y 0 H ] d.A nX9 ].r 1XI ~ ].) ].%.C C K Y ~ { Y Y K } 3 2X} s.5 &X) t Q $.) C.",
"].~ 4 I.y.U dX1 ^.G w <.b g.J.3 ) K 7.].y.*Xi.~ ].].&.~ a r U p.j ).  k.t n ] G 9X_ | d.1 5 X.%.V.].",
"].~ z.D ..) y C.] +.B., , < M.g _.w d Y.].C.E ,.n.6.1 +.= s Z ; I.:.] oXu I.`.Y.%X_.'.`.I.I.'.].].].",
"].&.Q yX! m.9 ( ' ].T.n w.<.@.+.V.].V./ P.I.5.O.U { K.+.8 >X( m u.g y.M ].].].].].].1.].].].].C.N.].",
"].].&.Y XXu.9 :.+.].Y p.;.r ( 4._ C.| +X! U m.6 M I.) N.' @.|.R P.U U Y.].].].].].].4 ( ].].Y./ ) C.",
"].].Z Q.V ].9 <Xw.&.5 %XY ~ 0 q ) _.n.*Xp 1.+.M _._.C.].'.N.*XB.].I.I.].].].].].].].5 J.) ].C.^ >.y.",
"].P.g mX8 Z 9 c +Xo.V.] # < _.].].`.q ` %.].+.x.j @.U y.`.].].].&.K I.].].].].&.m y.y E.A. .+ % > y.",
"+.~ +.OX- K O.4.+.].T.q <.Y `.].]...t   %.T.U #Xh  .8.  Y ].].].h !.| ].].y.C.A U M C.4.eXx y S J.I.",
"l.Z C.f # O.7 &.].].'.( 3.t T.].].5 6.D R s.y @.' V.U 5 r.Q ].U 0 l.| ].s.o.L I.Q y u c X.r V.Q p.gX",
"=XY.].P.C.`.I.Y.].].].2.) CXg ].Y 6.y.K yXb B.Z 1.s Y.g y.* Q 5 O J I.].@.c.D 2.2 & +.C.Y.I.'._.T.*X",
"].].].].].].].< s.].].I.~ #.'.].].].Y.U y.iXQ ].5 ].].].0 5X  k 9 /.) C.q 3Xt a 3.Q.F ].].].].].].].",
"].].].Y C 6.].2 o.u.].<.t.P T.].].'.! } n.].].].5 ) ].X.'  Xq tX* 9.Q.U +.1.* B t   s.V.<.].].].].].",
"].].U %.6.Z 9 5 wX/ n.f ;Xz a ].].`.r #.%.].].].5 J.( y s.D C.G 1.N.<Xh.].C.4 o } P u.F r.f.].].].].",
"].].'.r 5 U W.g.Q fX7 g U &.# J Y.d.f Y ~ s.s.s.t R.S.] 6.D A y.].Y.M 5 d s.6 7X{ _ @.R c.%.].].].].",
"].d.V.].].%.# / 7.].Y C.K n.0 @X) = P.K g g l X C Y eX*.3 6XY %.) U Y ) Q F J %.@X) = Y.( s.].].].].",
"].~ 8 Y.].].9 nXg ].].<.3 d.' #.G :.z 2 d d R r ;.U ].].3.(.4 ~ i.$.Y | ~ b F k.#.G U 6.C ].].].].].",
"].~ t.S _.! | e @ 2 s.@.` L C.C.g NX6 m.m.n.B.C p.iX].].].%.N a g `.T._._.s.0 MX@ l.z I.I.].'._.].].",
"].%.( pXL Z + xXw T @ p Y iXL B m j.V ].].&.L C.M ].].].Y.K ] d.&X_.P.T u.K <.i.! R.2 J C.].C.y ].].",
"].].y K oXK K lX4 +X7 { ! K }.3 4 . ].].].q #X~ ' K <.@.Q ].].].*X+XP.aXO.9 G.6 s.K ; cXT +.qXy ].].",
"].].y x.K C 6.w g ) +.<.K z.f d.g z.V ].K 6.H.< ] W.;.F.7 ].].].V.] *XN 0XE f.Q.N C.u.@X* ) mXy ].].",
"].].N h.{.! T.: $ ) `._.K xX6 ' 4 h !.! s P.~ M y $ 4 5 $ ' 5.^ m.P.B vXy '.m =Xz.: d.# Y '.f _.].].",
"].].].U 3Xp.~ u.T z. .<.K 4X* C =.A.[ A.s.Y.d d V.m | | g F ! tX_ s | 9.! ].].].7.2.'.Y ].].].].].].",
"V.+.].].].%.q.V U C.H.V u.( @ C ) ' N.%.].].].].].I.) ) M J ! P./.7 N.2 ( ].].].]...C.].].) T.].].].",
"y.# <.].'.C vX6 ) : i m.].V.u.C.'.].6.# 1.].`.`.d 5 4 &.n.s.I.`.a V.'.u.O ' '.].%.t.E '.| + I.].].].",
"y._ -.<.%.Y rX@ B M.@XV ].d.4 ].g ] 6.} O.X.1   ) /.[ 7 <.].].9 vX3 ~ &.z Z. .T.~ #Xh | H.P I.].B.T.",
"C.A XX4.U 6.X.$ K C - ].7.;.4 ].g W U A +X:.U C C     a.4.@.6.Z zX5 A ! ~ G.x.V d i.- Z B.=._.m.A U ",
"V V.P.3Xy.].7.%.Y j.7 s.K BX9 ].g U.z.Z P.}.# r r <.j.J -Xt., 6.F %.B s G m.[ - s.g Q G 0.h.].+.~ |.",
":XY _.].].].].0 ( i.CXd Y 1 y.].T.u S q.<.C.x ` 6.5 7 @.'.6.Q `.r ].T.I.Y.].q #XK P._.J b.' D $X& 7.",
"<XG.y.&.+.m.].& / V.].<.w.n J y.].&.o.k.B P.D q.'.].].].1.].].].].].].1.].].Y 3.|.) +.E.S 6 Y.4.&.Z ",
"].].| Q ~ A M 7 >X_ C.C |.c 1X#.7.5 &X( d V / ) P.].].| 4.] &.B.].].].2 ' ].].+.3XJ C 6.0 V.T.&.].].",
"].].B.w 5 U W.g.( tXp q | | f 0X_ %.s.$ : 1.y.P.].].].y NX+ ;.D `.].].5 S.' ].].].V._.T.C.].].].].]."
};
