/* XPM */
static char *pl_g[] = {
/* columns rows colors chars-per-pixel */
"50 50 225 2 ",
"   c #121612",
".  c #141912",
"X  c #141C1C",
"o  c #191D1D",
"O  c #1E1312",
"+  c #360809",
"@  c #271818",
"#  c #351818",
"$  c #350F0C",
"%  c #16291F",
"&  c #16371F",
"*  c #0E1C23",
"=  c #121D23",
"-  c #1A1C24",
";  c #371D25",
":  c #201A24",
">  c #0F2124",
",  c #132326",
"<  c #15242A",
"1  c #1A252B",
"2  c #1C2A2D",
"3  c #172827",
"4  c #1D332D",
"5  c #1B2C32",
"6  c #182A30",
"7  c #1C3134",
"8  c #282628",
"9  c #253E2B",
"0  c #232C33",
"q  c #253336",
"w  c #24343A",
"e  c #23383C",
"r  c #2A3B3C",
"t  c #2B3638",
"y  c #323A3C",
"u  c #3C3C3D",
"i  c #363235",
"p  c #3F312D",
"a  c #2E3B16",
"s  c #4D0B0B",
"d  c #470607",
"f  c #560406",
"g  c #58090B",
"h  c #590C10",
"j  c #4A1416",
"k  c #52191B",
"l  c #46100E",
"z  c #680509",
"x  c #7D060B",
"c  c #74090E",
"v  c #74060B",
"b  c #6E0D13",
"n  c #402314",
"m  c #463A1E",
"M  c #451B22",
"N  c #511B25",
"B  c #472428",
"V  c #492D31",
"C  c #552128",
"Z  c #1C471D",
"A  c #1E561F",
"S  c #20421D",
"D  c #34571F",
"F  c #3C471D",
"G  c #226D1B",
"H  c #2A621D",
"J  c #34691F",
"K  c #22741C",
"L  c #247C1D",
"P  c #2F741E",
"I  c #31751E",
"U  c #1D4D25",
"Y  c #284824",
"T  c #245D24",
"R  c #395A20",
"E  c #2B5933",
"W  c #37593D",
"Q  c #2E4836",
"!  c #266728",
"~  c #3A6723",
"^  c #277824",
"/  c #337825",
"(  c #356539",
")  c #357C36",
"_  c #2D6A31",
"`  c #464C1E",
"'  c #415D25",
"]  c #466C32",
"[  c #2A3C43",
"{  c #273D42",
"}  c #333E42",
"|  c #3B3F40",
" . c #2D4347",
".. c #344245",
"X. c #394445",
"o. c #3C4549",
"O. c #344A4D",
"+. c #37484B",
"@. c #3A5C49",
"#. c #3B4C53",
"$. c #344C51",
"%. c #3D5155",
"&. c #3D575A",
"*. c #396E42",
"=. c #4B4A4A",
"-. c #434646",
";. c #424D53",
":. c #435356",
">. c #4C5356",
",. c #45555A",
"<. c #43595D",
"1. c #4A5A5E",
"2. c #495459",
"3. c #545555",
"4. c #535559",
"5. c #515C5E",
"6. c #595657",
"7. c #514F4E",
"8. c #59675F",
"9. c #486957",
"0. c #455C61",
"q. c #4C5D62",
"w. c #565D61",
"e. c #4C6165",
"r. c #4D6369",
"t. c #5C6566",
"y. c #54656B",
"u. c #55696D",
"i. c #5B696D",
"p. c #556667",
"a. c #566B71",
"s. c #5B6D72",
"d. c #5D7377",
"f. c #666768",
"g. c #666868",
"h. c #646E71",
"j. c #647375",
"k. c #63757B",
"l. c #64797D",
"z. c #6A7A7D",
"x. c #6A7276",
"c. c #707D7D",
"v. c #7A7979",
"b. c #81060B",
"n. c #8D0F15",
"m. c #AC111A",
"M. c #B6111C",
"N. c #817C7E",
"B. c #26841E",
"V. c #27891F",
"C. c #2B8424",
"Z. c #278B20",
"A. c #288D21",
"S. c #298722",
"D. c #338423",
"F. c #299321",
"G. c #2B9C23",
"H. c #309828",
"J. c #378536",
"K. c #2DA324",
"L. c #2FAC26",
"P. c #30AD27",
"I. c #33A52B",
"U. c #31AC29",
"Y. c #30A427",
"T. c #31B227",
"R. c #32B428",
"E. c #33BA2A",
"W. c #38A531",
"Q. c #35C32C",
"!. c #3E8442",
"~. c #469245",
"^. c #6C8E73",
"/. c #667B81",
"(. c #6B7D82",
"). c #727F82",
"_. c #6E8186",
"`. c #6F8388",
"'. c #72858A",
"]. c #75868A",
"[. c #7C8E93",
"{. c #768D92",
"}. c #7D9094",
"|. c #7D969A",
" X c #858B8D",
".X c #849296",
"XX c #87989B",
"oX c #93989B",
"OX c #8A9DA1",
"+X c #929EA3",
"@X c #8DA1A5",
"#X c #8FA3A8",
"$X c #93A4A6",
"%X c #94A5AA",
"&X c #95AAAE",
"*X c #9AABAE",
"=X c #9BA5A8",
"-X c #9BADB1",
";X c #97ACB1",
":X c #9FB0B3",
">X c #A0ADB2",
",X c #A3B3B6",
"<X c #A4B6BA",
"1X c #ACBABC",
"2X c #A6B8BB",
"3X c #B2B9BB",
"4X c #A3A7AA",
"5X c #A9BCC1",
"6X c #B8BEC0",
"7X c #ACC2C6",
"8X c #B4C6CA",
"9X c #B6CACE",
"0X c #B9C7CB",
"qX c #BACDD2",
"wX c #B7CCD0",
"eX c #BFD1D5",
"rX c #C4D5DA",
"tX c #CBDADE",
"yX c #C5D3D6",
"uX c #CBD1D2",
"iX c #CADCE0",
"pX c #D6DFE2",
"aX c #D7E3E5",
"sX c #E5EAEB",
"dX c #E3E8E9",
/* pixels */
"L.A.L.L.F.K.L.L.L.V.K.Z.L.T.L.L.L.L.L.L.L.F.F.Z.T.F.F.K.K K A.F.B.L.L.K.B.T.K.L.L.L.V.L.L.L.L.L.L.L.",
"F.K.B.G.K K K.L.L.B.E.L F.L L G.Z.L.L.L.F.G.Z.K.L.Z.G.B.F.` ` F R F.L.L L L.T.L.L.L.L L L.L.L.L.L.L.",
"Z.T.K A.G.K.A.G.A.G.T.G V.K.L.L Z.G.G.L.G.L.B.F.G.F.G.H.' g f n T B.B.E.B.L.L.L.L.L.B.L.V.K.L.L.L K.",
"Z.K.A.L.F.Z.R.F.V.K.F.Z.V.V.B.K.Z.L.G.A.G.K.K Z.L.F.Y.R h x f / Z.L K.K.F.L.L.F.L.L.F.F.G.F.K.L.K F.",
"K.L K.V.G.G.L.T.K.L.G.G.K G.L.L.K.K.T.K G.B.Z.L.K.G.D j z z d ^ L K.L.F.L.L.L.L F.L.L.F.B.K.G.B.K F.",
"F.K.B.K.L.L.L.L.L.L.L.G.Z.F.K.K.Z.T.L.G.V.L.L.T.H.J.$ d d s ~ G.K.L.L.L.L.L.L.L K.F.L.L L.G.K G.L.G.",
"L.L.L.L.L.K.L.L.L.L.L.F.Z.R.L F.Z.K.K G.K F.I.W.!.#.@ $ $ a F.U.L.L.L.G.Z.L.L.L L G.F.B.L.B.F.L L F.",
"L.L.L.T.L.L F.L.L.L.G.F.Z.G.L Z.K.F.B.K.A.~...$.(.qX:.o.( I.L T.K.L.L.L L.A.G.L.L T.F.L.G.B.B.K.L.L.",
"L.F.B.F.L.B.F.F.L.L.L R.Z.L.F.T.F.G.U.*.9.u.%X;X7XtXOXOX{.@.@.Y.G.G.L.G.L.L Z.E.B.L.L.L.L.L.L.L.L.L.",
"F.F.K.F.L K K.K.F.V.G.L.Z.L.L.L F.F.~.q.0.y.iXaXaXrX8X8X#X&.0.*.P.F.K K.K S.L.B.K.L.L.K.B.L.L.L.B.L.",
"L.B.K B.K.K.B.L.G.K K.B.G.F.L F.G.J.[ 5X9X9X8XiXqX2X2X2X5X5XqX_.@.S.G.K.B.L.B.K.K.L.L.B.L.F.L.L.L L.",
"L.L.L.K.B.L K.K V.G.G.F.K.K K Z.J.i.<X2X,X-X;X@X'.q.[.%X&X;X<X<X&X@.I.P.L.G.K L.Z.K.T.A.L.B.Z.Q.L L.",
"L.F.K.L.L.L.K.L F.K.L K.F.K.^ T._ q.<X:X%XXXXX_./././.{.XXXX:X:X;X .H.L.L.Z.F.A.T.F.Z.L.B.L K.F.G.L.",
"F.F.V.L.L.L.B.L T.V.F.G.V.V.F.S.*.#.{.%X[.d.d.0.`.iX0.r.d.d.#XXX`.{ ^ I.K.A.R.K.T.A.V.K.K K.L.G.L.L.",
"V.F.L K.L.V.K G.F.E.B.L.F.F.L.E e.a././.q.$.$.5XiXiX9X/.$.$.d.^.d.a.O.! F.A.B.L.F.Z.L.L.L.L.L.L.L.L.",
"G.F.K.L F.R.L L.L.L.L.L.L.L.K.9 0.r.&.0./.+X&XeXiXiXwX&X|.|.q.0.0.r. .! A.K.Z.F.A.L.L.L.K.L.L.L.L.L.",
"L.B.L.F.B.K.V.L.L.L.L.L.L.L.L.4 %.e.,.q.oXdX3XyXtXtXwX5X2X9Xy.,.&.r.w ! U.G.F.Z.L.L.L.G.F.K.L.L.L.L.",
"L.G.T.T.K.B.K.L.L.L.L.K.F.P.I.3 5 q.sXsXtX,X3 >XtXrXqXp.+.-XwXwX7X[ < T L.U.L S.L.L.L.L T.B.Z.B.V.T.",
"L.L.L.L.F.K.B.G.K K K.G.K / @.%X3X0XpX5X,X@X< -XrXwX<X1.$.-X-X:X-X].a.9.E K G L.B.L.S.K.L.G F.L.L.V.",
"V.V.L.L.V.T.L V.G.Z.L ^ A.J. .&X1X<XXX$X%XOX< -XeX8X-X,.$.-X%X}.(.}.l.r.Q U.Z.G.T.Z.B.K.Z.B.B.L V.T.",
"V.B.F.G.B.K.V.L.F.Z.Z.Z.L J.{ r.s.w.< .X#XOX< OX9X6X;X0.+.-XOXq.7 d.a.e.Q S.K.F.T.K.K.L.B.B.K.L.L.L.",
"F.G.K.V.G.B.K.B.G.L.L G.L ^ 6 a.k.s.e '.{.'.e /.[.[..X0.%..X.Xr.{ _.a.&.U L.L.L.L.L.L.L.L.L.L.L.L.L.",
"L.B.L.K.F.B.L K.L.T.L R.S.B.T O.q.a.e.(._./.e.l.(.(.).a.a.(.'.s.r.a.$.@.A.L.L.L.L.L.V.K.L.L.L.L.V.L.",
"L.K.V.K.K.B.T.B.K.^ K.K.K Z.K.9 %.e.a.a.a.y.u.u.a.a.y.i.i.i.y.a.a.r.7 ! L.L.L.L.L.L.L B.K.L.L.L T.V.",
"L.B.E.L K.L V.T.F.V.K.V.L V.C.Q 5 < 6 * * * = * * * * * * * = = < 6 [ _ R.P.K.K.G.L.B.L.F.K.F.K F.V.",
"G.V.T.K V.F.G.F.K.K.F.B.L J.W ,X3X.X{ { $.0.q.y.s./.i.q.#.X X o o o o % S S 9 T V.B.V.F.T.F.K G A.V.",
"V.F.K.K V.B.B.K.L.L.K L.) 9.i.1X1XXX7 $.%.%.#.,.q.y.0.;.>.f.f.f.f.f.f.f.3.=.V ' ^ F.K.L.L.F.V.K T.T.",
"F.L.B.K G.V.K.L.L.L.L.B.E u.*X].l.e.6 y.#.5 1 = < * - = =.sXdXdXdXdXdXuX3X=XoXg.  G K L B.F.G.L.V.E.",
"L.L.T.L.L.L.G.L.L.L.L.V.Y 2 < 1 , , , e.l..XyX>X(.[ +X-.=.dXx.z. Xz._.^.c.o.5.3.  ^ F.L.L.L.L.L.L.L.",
"L.L.L.L.L.L.K F.L.L.L.Z.Y 8 1 +.} q * p.k.'.*XOX/.{ .XX.=.dXh.w.t.z.z.h.2.r 3.3.  S.Z.L.T.L.L.L.L.L.",
"L.L.B.L F.L.L K.F.L.L./ m ; q w.:.} * 1.a./.{._.a. .(.u =.dXj.q.:.z.z.i.} y 4.3.  ! G.L.V.T.L.L.L.L.",
"L.V.K.K.V.K K L.G.F.^ n g M [ z.0.} * 5 $.a.u.{ $./.q = =.sX.Xa.:.(.(.p...1.t.3.. S.G.L T.A.L.L.L.T.",
"L.L.B.L V.K.K.V.R.V.K l g V [ } [ [ - M B w 0 - 0 e < - =.sX X(.x.(.x.k.r.5.t.3.. C.A.V.R.B.L.L.L.L.",
"G.K.L.L.G.K A.F.L.Z.] h k ` a.0.%.$.- M k ; # N N C N # =.sXoX^././.(.k.i.w.t.3.. C.K K.F.G.L.L.L.L.",
"V.L L.L.T.B.E.L L.~ d g i ).iX|.).r.- [ V n.n.m.m.m.M.j =.sX.X_.x.z.x.k.p.w.t.3.. C.S.K.L L.L.L.L.L.",
"V.G.B.L.F.A.B.G K R g z i s.-X[.d.0.= e.;.8 8 8 ; 8 ; - 7.sX.Xi.2./.(.i...1.t.3.. H.V.K.L.L.L.L.L.L.",
"F.F.E.V.V.K T.K A.R f c V y.OX(.d.0.= $.#.0.w.[.XXXX).u | uXh.1.0.z.z.t.} X.5.3.. H.L B.K.L.L.L L.T.",
"L.B.A.T.V.V.E.K Y.R f c C q.).i.q.;.= { ;.q.j.=X3X3XXXo.V 3X5.,.0.x.z.p.X.t 4.6.. ^ K E.B.G.R.K L.L.",
"L.B.G.Z.F.F.V.L G.R f b.v M 1 = % o * +.w = - = X @ = - y 4X>.p.(.i.s.s.i.i 4.6.. H.G.E.K V.E.L L.L.",
"L.B.K.K.V.L.K K Z.~ f x x b b h h # 6 2.;.} } 2 : l = t } i  Xx.2.o.o.X.| w.| @ d / G.B.L K.V.G.L.T.",
"L.L.B.T.K.F.K.B.Y.R f b.x x x z z j 5 w.w.;.X.2 # g - y } i f.x.t.2.4.2.` 7.B s h D.P.B.K.L.L.L.L.L.",
"K.L.L.L.K.V.F.V.P.~ f x x x v z z k t h.i.1.o.2 # g o y ;.q.- t.oXN.N.v.t.@ j v l G.K.P.P.K.K.L.L.L.",
"K K.L.L.V.T.L G.K D d f d d d d + + # 5 5 5 7 < @ + = 6 6 5 6 - : f.x.7.O $ s f $ D.F.P.K.L G.L.L.L.",
"F.V.L.K.V.R.K B.K.Y.H D.I H I I H ~ 8 2 #.s.q.w 9 ] - #.w.s.{ 5 0 | u ' T ! J / I H.A.K.V.F.G.L.L.L.",
"V.R.V.F.V.L.K F.K G K.P.F.G K.G.! ) %.4 i.#X[.r 9 G % u.}.%X{ [ ;.- 8 Q V.E.A.F.L L.B.L P.K.G.L.G.V.",
"F.K.R.V.T.V.B.B.K.B.G.F.K.F.K.G.E 1.<Xe q.[.z.w Z L & 1.)..X{ k.=X[  X^.F.F.L.K V.V.L F.A.K.R.K.L G.",
"G.L.T.T.P.L.A.G.A.T.V.F.V.F.K.! 2 5 ..< 0 t q 3 A V.& 0 0 r 3 q } 1 Q ~ G.L.B.F.F.K.K.L E.V.F.E.K G.",
"F.G.L.L.L.T.K B.K.R.G.V.F.L K.^ ^ A ^ Z ^ T A ^ A.G.L ^ ^ G ^ G ! ! ! D.L.L.L K.K.F.L.K.K.K A.Q.L V.",
"L.K.L L V.K.L L.A.L.K.V.K.G.V.L.F.F.R.G V.K.T.V.L.L.L.K.V.K.K.T.L.L.L.L L.L.L.B.R.G.K K.K B.L.B.K.L.",
"L.F.F.G.A.B.B.K.K.F.K L.F.F.R.V.F.F.G.K A.B.L L.T.L.L.L L.V.V.G.L.L.L.K Z.K.L.L.L.F.G.L.V.L.T.L.L.L."
};
