/* XPM */
static char *Wall[] = {
/* columns rows colors chars-per-pixel */
"50 50 47 1 ",
"  c #3E3E3E",
". c #454545",
"X c #484747",
"o c #4A4947",
"O c #484748",
"+ c #4C4C4B",
"@ c #504F4E",
"# c #52504E",
"$ c #545353",
"% c #585755",
"& c #5A5957",
"* c #585758",
"= c #5C5C5B",
"- c #615E5B",
"; c #63615E",
": c #69645D",
"> c #646463",
", c #696764",
"< c #6B6966",
"1 c #6C6C6B",
"2 c #736D67",
"3 c #716F6B",
"4 c #6F706F",
"5 c #74716E",
"6 c #7A746D",
"7 c #747473",
"8 c #797672",
"9 c #777877",
"0 c #7C7976",
"q c #787778",
"w c #7C7B7A",
"e c #827C75",
"r c #817E7A",
"t c #83817E",
"y c #888179",
"u c #848483",
"i c #898683",
"p c #878887",
"a c #8B8986",
"s c #8B8B8A",
"d c #908F8D",
"f c #91908F",
"g c #949392",
"h c #999794",
"j c #999997",
"k c #9B9B9B",
"l c #A2A2A2",
/* pixels */
"+$..$=<11>*$.+wsddsr0tuw>o$4usfgffddsay04;.$>,<>$ ",
"ws$&9tppsspq$*47888854447+*749009875333694O1upsu1@",
"55$=78qq99wt*=440rrtr840<+=480870666666yw7O7u<>>>+",
"86%-7779wwwt**>=&&$%;::>;.>w45556666yyydw7O7y4>>>+",
"65==1,>17wti&O@@$$$OO++++ >w44457rrtdpu09,O4t8<>>+",
"65>$,,>><wdy==ugjjw=+t09< *44<14114<<<<>>>+14ttw4@",
"75>#177>>5ry=;0pww7=+><<>+$==*&***$+++OOOO $;,>>>@",
"31;$5ww1;488->5y0<>>+<18=$=+**>>>>>$ =wrwww971;=@$",
",1;@7974<155%4881>>=+>44=.*udklllfu4+<tsptuyat04*=",
">1=+7q997581&4081>>>.O+++ >4fpuw7549$=554475444>$>",
"14>+1uww8474=*5>>>11.+>79*>9p94433w5$*477853444>$>",
"57>+>tw4;==&*+*>4q7>.+4kg1$4r4443131=&4465365641$1",
"t81$O#=>>>>==*%$$+++O@4uw4+495313234=$1<46566641+4",
"e87$>pghjklkkjgdsppu=+qwt7+4841242<<=@><45666331$4",
"ye0$7djw77657774447u1+tww4+165255541>O><<4432344$>",
"r0y%qfw70086655<1>1q1+uww7+>85555754>O;4411<4904*1",
"471$5r0eyee6654411171Owww7+>75780875>.*11>>>>><>$>",
"$$$.4ryyyye6765517794O4qq7@=45990087>.++@$$+++$+++",
"4>=+<w0yey0088657q771O>477@=1499ww99>.9pssu,>O=ww9",
"95>O,080e0t0867694774@>:17+>17900w04>+1wtuu44$*qww",
"64<X1470000y979444747+>>>4#>1478ww09<O>4144t>$+907",
"8r5X>4480yr0www097777O=>>1@>449ruuww1.474444>$+4w7",
"t68+>4579890uqq7997wqO=>11+>119tupuu1O40wq941=O190",
"008X*447544444qwwqwuqO=1>4O>41wupspp4+17uwq949+>4u",
"6y0+*>4411>4wwqqqusp4O;944o<119usspp4+<4rwrwwq+><4",
"5t>X$*=;>=>>41>>==>=%.#==*+>417wuppu4+4<99w99>O=;-",
"+++..O@@+$+..+$$****$$+O.=@=780070877+<<3553;=O$$#",
"r05;O>usgdt**wdguuttwps4$>$==4tw0r7<=.$*##$##O@*>4",
"sauw@4sksw9$>gw>=>>>>4fp4=*=;;;:;;++====&=#O >tgjg",
",1tt+1w4544+=p>>11111>5g7$$O+@@$%=40uupyt01$.wt94<",
"1<4w@=9qw74+*4>>14411><p4+wgjkgdsadgjgddat4$.w9454",
"5117@=7ww79$*4>14444711p4$puww70rter8555774=.97w07",
"7416@>78089%#1147740844t4$w9qw4795886886655;X44ww0",
"8795@=58877=#157rwww08401$w4w144796688e0884>+>4900",
"777<@=56099=#158ww990687>@ww114475580er0086>$&4987",
"411<%#226w9=#258wwww0006=+41>114456800er0y8>$$4544",
"4447*+22689=@556ww99r084*@441114458680rr0y8>%$1133",
"1159=+12588>+268w99wre04*+441>14478988800081%#,1<5",
"<1,5>+,2268;o1680999066<*O1411147800t0880004&@,1<:",
">,,5>+22256%o5680978968>@.>71>14999w0t080rs9=o14<:",
"<558<+<0yt>#O5887979776>@O=w744444790ww90wp9=O>w5<",
":<>;4O#$$%+*+5889799974>@.*>*><4777qw9969tu1*.*>,;",
"##$%$+wfdp1++688997w71<;$ +$&&=&%*&=;==%**$@..+$@@",
"situ>$4<<44+.58877774,<=*.$>>1=$471+ >089wwwssssis",
"diud<#45444+.<084474344>$.4gsj7,syi=.9525688rsssff",
"r417>o>8454#.>089ww9541=+O<p407=tti6.>2eeyttr08yaa",
"6<:1:X;<<25@.;50007>==>++.1u858;48t0#<226e0yy08665",
"2<:::+&2:::+.%;-&%$&><>$+ >ut07*5877=1<:;:<5455555",
"3::;<+$%;:-#=o&&$###@@+@&==<>,>&>>=>==;>><11><3112",
"#%%%#.++o...;..o++ooooX+::#O#+O+$$$$O++$$+++@o+@@#"
};
