/* XPM */
static char *pl_mv_lf_3[] = {
/* columns rows colors chars-per-pixel */
"50 50 208 2 ",
"   c #39181B",
".  c #1C251B",
"X  c #1F3E1C",
"o  c #39360C",
"O  c #3B290C",
"+  c #111F25",
"@  c #261D22",
"#  c #3D1E20",
"$  c #132127",
"%  c #15242A",
"&  c #19262C",
"*  c #1A282E",
"=  c #1B2225",
"-  c #1C2C33",
";  c #1A3236",
":  c #1E343B",
">  c #1E3B39",
",  c #19312F",
"<  c #26292A",
"1  c #212D33",
"2  c #243136",
"3  c #24353B",
"4  c #2B393E",
"5  c #28383D",
"6  c #373A3D",
"7  c #3E2F34",
"8  c #460000",
"9  c #4A0000",
"0  c #450C04",
"q  c #540201",
"w  c #5C0000",
"e  c #570907",
"r  c #481808",
"t  c #4A171A",
"y  c #5A1619",
"u  c #561D09",
"i  c #6A0101",
"p  c #640809",
"a  c #720000",
"s  c #7B0000",
"d  c #720C04",
"f  c #6A1312",
"g  c #4A2509",
"h  c #402B0D",
"j  c #46370A",
"k  c #651D20",
"l  c #493337",
"z  c #512D31",
"x  c #1D4917",
"c  c #1F5119",
"v  c #1C5D1B",
"b  c #3A450E",
"n  c #245D1A",
"m  c #345411",
"M  c #395812",
"N  c #334811",
"B  c #1D6B13",
"V  c #1D7412",
"C  c #1E7B13",
"Z  c #1D701C",
"A  c #246918",
"S  c #336615",
"D  c #247415",
"F  c #23731B",
"G  c #237E1A",
"H  c #2B7814",
"J  c #1D4B29",
"K  c #25592A",
"L  c #285837",
"P  c #295132",
"I  c #24632B",
"U  c #267A2A",
"Y  c #286437",
"T  c #454B0F",
"R  c #253C43",
"E  c #2D3C42",
"W  c #333D43",
"Q  c #274345",
"!  c #2C4145",
"~  c #2B434A",
"^  c #274743",
"/  c #334045",
"(  c #35454B",
")  c #38484D",
"_  c #2E554D",
"`  c #364A50",
"'  c #3C4D52",
"]  c #3C5056",
"[  c #36555D",
"{  c #2D534E",
"}  c #2E6E42",
"|  c #345761",
" . c #41494C",
".. c #4B4449",
"X. c #434F53",
"o. c #42555B",
"O. c #43595E",
"+. c #495A5E",
"@. c #475654",
"#. c #475946",
"$. c #576758",
"%. c #427556",
"&. c #47714C",
"*. c #455C62",
"=. c #4B5D62",
"-. c #535F62",
";. c #4A6167",
":. c #4D6369",
">. c #53666C",
",. c #54696E",
"<. c #576367",
"1. c #4E6C74",
"2. c #566D72",
"3. c #5A6E73",
"4. c #5A7076",
"5. c #5D7379",
"6. c #686D6B",
"7. c #646766",
"8. c #657265",
"9. c #62767B",
"0. c #63787D",
"q. c #687478",
"w. c #840101",
"e. c #8B0000",
"r. c #930000",
"t. c #9B0000",
"y. c #A30000",
"u. c #AD0101",
"i. c #B70102",
"p. c #D20303",
"a. c #1F8113",
"s. c #208514",
"d. c #218C14",
"f. c #278617",
"g. c #229314",
"h. c #239C15",
"j. c #299918",
"k. c #328D19",
"l. c #25A415",
"z. c #26AE15",
"x. c #28A619",
"c. c #27B216",
"v. c #28B517",
"b. c #29BA17",
"n. c #29B518",
"m. c #2ABC18",
"M. c #288926",
"N. c #2B9528",
"B. c #2C8235",
"V. c #32B423",
"C. c #438F3A",
"Z. c #2AC118",
"A. c #3D8949",
"S. c #50894A",
"D. c #548F51",
"F. c #57B24D",
"G. c #61AF57",
"H. c #6F8978",
"J. c #679F6D",
"K. c #667C81",
"L. c #697D82",
"P. c #737D82",
"I. c #6C8186",
"U. c #6B8489",
"Y. c #71858A",
"T. c #74898E",
"R. c #76868A",
"E. c #7A8D92",
"W. c #758B90",
"Q. c #7E9195",
"!. c #7D9398",
"~. c #809297",
"^. c #839599",
"/. c #8B9998",
"(. c #969B96",
"). c #85938D",
"_. c #92A190",
"`. c #A0AE9F",
"'. c #8C9EA3",
"]. c #8FA1A5",
"[. c #86A2A1",
"{. c #93A5AA",
"}. c #97A9AD",
"|. c #99ABAF",
" X c #91A2A6",
".X c #9BAEB2",
"XX c #9EB0B4",
"oX c #A0B2B6",
"OX c #A7B9BE",
"+X c #B4B7B5",
"@X c #ABBEC2",
"#X c #AEC3C8",
"$X c #B1C5C9",
"%X c #B6CACD",
"&X c #B3C3C7",
"*X c #BACED2",
"=X c #B7CBD0",
"-X c #BDD1D5",
";X c #BFD4D8",
":X c #C4D7DB",
">X c #CDDEE2",
",X c #CFE3E7",
"<X c #D3E6EA",
"1X c #D8E9EC",
"2X c #DFEDF0",
"3X c #EAF2F3",
"4X c #F8FAFA",
"5X c #E9ECED",
/* pixels */
"z.c.z.z.z.g.C a.z.c.a.l.g.l.z.z.z.z.z.z.z.z.h.h.g.l.g.g.c.V d.z.l.g.z.a.z.l.g.z.z.z.z.z.z.c.z.z.z.c.",
"z.z.h.z.z.h.z.c.z.z.h.g.l.z.z.z.z.z.z.z.z.z.d.d.v.g.d.l.g.V d.a.C z.z.z.C v.h.z.z.c.g.c.z.z.z.c.z.z.",
"z.h.h.d.l.V C z.c.c.C v.a.g.a.g.g.z.c.z.z.d.h.g.z.l.d.g.g.g.l.g.l.h.z.d.a.z.z.z.z.z.C g.z.z.z.z.z.z.",
"z.g.c.C g.d.z.a.c.a.h.l.C g.z.l.V v.a.z.z.s.c.g.a.m.d.l.a.z.z.a.b.a.d.c.C z.z.c.z.z.C z.g.z.z.h.g.z.",
"l.a.z.a.z.g.g.v.g.a.z.g.a.a.a.g.g.g.c.g.h.z.d.V z.l.g.h.b.d.h.z.g.C h.z.g.c.z.h.z.z.d.h.h.g.z.g.C h.",
"a.l.a.l.d.h.g.z.l.l.z.h.g.a.z.c.z.g.c.g.a.l.C N j g j b z.l.C l.C h.z.h.z.z.z.V h.z.z.s.h.d.l.a.s.h.",
"z.g.l.a.l.z.c.c.c.z.c.c.g.h.a.c.g.l.c.z.s.z.s.g w w e b z.z.z.z.l.z.z.z.z.z.z.C h.g.z.s.z.a.a.l.z.g.",
"c.c.z.z.z.c.l.z.z.z.c.c.a.h.v.a.s.z.g.d.a.a.0 w s i O d.C C g.z.z.z.z.h.d.z.z.C d.g.h.d.z.C g.C C h.",
"z.z.z.c.z.z.a.g.c.z.z.g.g.a.l.C g.z.d.M._ O i i i T s.D g.h.s.z.h.z.z.a.v.g.g.v.d.b.g.c.h.d.d.c.z.z.",
"z.c.g.a.g.z.C h.h.z.l.d.l.h.c.l.z.M.N.A.K.  k e g S C C g.h.C l.l.g.c.h.z.C g.b.s.z.z.c.z.z.z.z.z.z.",
"c.h.g.l.g.C V z.h.h.s.z.h.h.z.h.V } | K.3X| |   H z.l.l.z.z.z.a.c.h.C l.V d.l.d.z.z.z.h.g.z.z.h.h.c.",
"c.v.a.C s.l.l.s.z.d.C h.h.a.g._ _ [.>X3X4X;X#X=._ B.z.c.z.c.z.z.z.h.h.z.d.z.C z.l.z.z.a.l.h.l.h.d.z.",
"z.z.z.z.l.g.d.l.C d.l.g.z.a.L U.!.#X1X3X2X>X%XT.K.} N.c.z.l.l.z.z.h.l.z.z.h.V z.d.l.z.h.h.s.g.z.g.z.",
"z.z.d.z.z.z.z.l.s.g.l.C h.g.{ #X,X<X<X<X,X-X@X}.'.4.} l.z.d.h.l.l.V g.c.z.g.l.d.c.g.a.l.C d.z.d.l.z.",
"z.g.g.C z.z.l.V d.v.d.l.f.- K.@X=X*X-X-X-X*X@X@X'.T.,.} z.g.h.g.d.z.C h.h.d.z.z.z.d.h.l.d.z.z.z.c.z.",
"z.g.g.g.h.l.g.C h.h.b.s.A.'.' !.@X=X-X*X*X%X@XXX'.L.K.I.U z.s.C z.g.z.h.d.h.a.l.d.l.z.z.z.z.z.z.z.z.",
"z.l.a.z.V g.Z.C z.z.x.N.1.4X5 5.].#X=X=X*X@X@XoXE.9.T.{.Q h.C z.z.h.g.z.h.h.h.d.h.z.v.l.h.z.z.z.c.z.",
"z.v.a.v.x.g.a.l.c.c.c.M.1.4X1XR ; *.W.|.@X.X.X}.W.9.T.{.Q z.z.z.z.z.z.z.l.z.a.l.z.z.z.d.h.h.z.z.z.z.",
"z.c.z.z.z.l.a.l.x.h.N.J.&X2X<X.X{.3.] :.W.'.}.{.T.9.Y.~.> h.l.z.z.l.z.z.h.h.C a.l.z.h.g.l.d.a.a.g.z.",
"z.l.l.z.z.g.b.V g.C Y T.3X=X,X,X,XT.` ] >.Y.'. XT.9.L.W.~ G a.d.g.g.d.g.g.g.C c.g.l.C z.g.a.d.h.g.l.",
"z.g.C l.h.g.b.C z.a.I K.*X- -X;X;X;X;X{.- ; E.~.Y.L.5.I.@X$ a.l.a.z.B h.a.a.g.d.v.g.g.z.V C g.h.l.z.",
"z.g.z.a.g.g.a.l.g.h.U 5.%X: ;XOX9.!.OX.XU.>.` U.Y.K.K.K.}.$ a.V z.h.g.z.a.z.z.z.z.z.z.z.l.z.z.z.c.z.",
"z.h.g.v.g.l.C g.g.z.B.5.#X; ;XoXo.K..X.X'.L.E 3.K.K.5.K.'.$ d.a.h.a.h.d.z.z.z.z.z.z.h.z.z.z.z.l.l.c.",
"z.z.l.a.c.h.C h.g.z.U 5.@X: ;XoXo.L.XX.X{.L.4.R :.9.2.K.{.$ x.g.z.d.g.z.z.z.z.z.z.z.C g.z.z.z.g.g.l.",
"c.z.g.z.a.c.a.c.h.h.I 4.#XQ -XXX=.P.}.^.^.L.4.R :.9.o.3 ] R O f.c.z.z.z.c.z.c.z.z.z.C l.g.z.l.d.h.l.",
"z.z.a.Z.a.a.a.a.z.G K 5.#X:.%X}.5.T.'.E.T.>.| ` >.>.o.o.*.*.# S S D l.z.c.z.z.h.d.l.a.z.l.g.V V V l.",
"g.g.h.z.C a.g.l.g.c 1 5.-XXXXX^.!.^.!.E.0.- ; =.3.` o.}.!.!.` t 9 o g.z.z.l.l.g.d.d.l.h.v.d.a.d.l.l.",
"l.a.z.a.V g.C h.z.c #.D.*..X^.!.Y.L.=.- - + % & * % >.:X}.- :.` k s r h l.g.d.l.d.a.a.d.g.a.l.d.l.Z.",
"z.z.z.l.z.z.z.z.z.c n N.&.2.+.+.] ' ' ' ] o.` ` ` ` =.L.>.=.9.=.z p a d m m D h.V V g.z.z.z.z.z.z.c.",
"z.z.z.z.z.z.z.V l.c n G.H.; $ $ % % E 5.L.L.3.3.4.4.o.% & ~.L.4.W t t.t.9 9 A a.l.l.d.z.z.z.z.z.z.z.",
"z.z.z.g.a.l.z.V g.x I F._.&.S.C.J ] K.E.@X{. XY.L.5.*.~ E % E.W &   a a r.y.q S a.B l.l.h.z.z.c.z.z.",
"z.z.g.h.l.a.C C c.m $.D.(.8.8.8.@.` ` =.5.>.>.=.*.[ ..k k + ' 3.,...t w.w.t.w.g C d.l.d.l.l.z.z.z.c.",
"c.z.z.a.C d.z.l.d.c 7.`.(.6.6.7.6.W - W W W W W W W z w.w.% 3 ~.].>.  e.a r.y.i M d.h.a.z.h.z.z.z.c.",
"z.l.l.z.z.h.V d.l.c 7.+X_.7.] ~ : & y i.p.p.u.u.t.e.f % % + 5X1X@XL.  s e.i w.t.a o C l.g.l.z.z.z.z.",
"c.d.a.z.z.c.C b.a.c <.+X).=.^.3 ( 3 @ t t t t #     7 =.*.o.-.-.+.l p s s w.s e.e.d N h.a.z.c.z.z.c.",
"z.d.l.s.z.d.g.C V x $._./.` .X- X.E & & 3 E W E R 3 ( 2.=.>.< @ @ t w.s s w.s s r.e.g j.z.z.z.z.z.c.",
"z.h.g.b.d.d.V b.C g.x X S.% ^.* W  .W R 5.&X#X.XE.L.=.+ % + i a s w.e.w.s s w.s s r.r.0 z.c.l.a.z.z.",
"z.z.a.d.z.d.d.b.C c.c x s.$ 9.- & - + @ 3 ( ( W E 3 1 & W % @ w a a s s w.w.s w.i w r j.a.h.b.a.c.z.",
"c.z.s.l.d.d.l.C s.g.F c A J :.- + & < W W % / W E R 1 - X.1 1 t y y f a w.w.a a u o m c.V g.Z.a.c.z.",
"z.z.d.l.z.d.z.V V g.z.s.. V.Q ! R & @.(./.+ /.R.P.6. .1 -. . .R R R l a s s 9 8 m D l.C a.c.a.z.z.z.",
"z.z.z.g.v.l.g.h.d.l.h.G < F.H 8.! E.).1 5 q.,.<./ - J U ( -. .R >.P.>.W 9 9 k.j.h.h.z.d.z.z.z.c.z.c.",
"z.h.z.z.z.g.h.d.d.x.l.F K H.S.#.R 5.T.X.& q. .) L c F M.L o.( R *.0.,.E o b j.z.z.h.z.z.z.g.z.z.z.z.",
"h.V h.z.z.d.b.C g.V a.l.l.. J.X * ; 5.].& <.$ $ v C C h.h.Q Q Q : ] 2.P A g.z.z.h.h.d.c.g.V l.c.z.z.",
"h.g.h.h.g.g.v.V a.z.z.d.z.j.@ j.a.K ] :.+ & F A d.z.g.C h.x.z.L 4.3.~ ^ s.l.g.z.g.z.a.g.z.d.l.z.l.z.",
"z.d.z.h.g.h.h.V g.a.V c.h.j.c z.a.M.L ` ; Z d.d.d.B B l.h.h.h.U %.>.*.^ g.x.l.d.s.l.V d.l.h.z.l.d.d.",
"d.h.z.c.h.z.h.h.g.l.C l.d.Z.C z.a.x.G ; J z.V a.C h.l.d.c.h.V h.L [ ,.P d.l.g.V h.s.d.d.h.l.z.g.g.z.",
"z.d.z.z.c.z.c.C g.h.Z.a.d.C h.c.z.a.a.j.j.l.a.g.h.C C h.c.l.a.Y Q Q _ l.z.z.C z.d.z.z.d.l.g.d.z.V h.",
"c.z.h.h.g.l.c.V g.l.c.h.h.d.a.l.c.h.h.l.a.l.d.h.z.z.z.z.h.c.c.j.M.N.N.l.z.c.d.h.z.g.h.z.s.C z.h.h.g.",
"z.z.g.d.d.d.d.C z.g.z.d.z.a.v.h.h.C z.g.d.d.g.g.z.z.z.g.h.g.h.l.c.c.c.V g.c.c.h.c.d.d.h.a.l.z.g.z.c.",
"z.z.z.a.C d.z.l.g.c.a.C g.g.a.b.g.g.l.V V h.h.z.z.z.z.a.b.V h.d.z.z.z.C l.g.z.z.c.l.z.l.z.z.z.z.z.z."
};
