/* XPM */
static char *pl_mv_dw_1[] = {
/* columns rows colors chars-per-pixel */
"50 50 210 2 ",
"   c #1A1A1A",
".  c #171819",
"X  c #3B0101",
"o  c #380B0A",
"O  c #381619",
"+  c #31180E",
"@  c #392E10",
"#  c #191E21",
"$  c #2B1F23",
"%  c #122127",
"&  c #1D2123",
"*  c #132429",
"=  c #16282E",
"-  c #1C262B",
";  c #173924",
":  c #162A31",
">  c #1A2E34",
",  c #1B3136",
"<  c #1C3339",
"1  c #232425",
"2  c #2C2226",
"3  c #272A2A",
"4  c #392529",
"5  c #223237",
"6  c #23353A",
"7  c #24393F",
"8  c #2A3438",
"9  c #353636",
"0  c #440000",
"q  c #480505",
"w  c #450C09",
"e  c #540201",
"r  c #5D0101",
"t  c #560804",
"y  c #4A1608",
"u  c #511A07",
"i  c #571408",
"p  c #481213",
"a  c #591012",
"s  c #521517",
"d  c #4A0F11",
"f  c #650101",
"g  c #6C0000",
"h  c #730101",
"j  c #7C0000",
"k  c #651506",
"l  c #4E2209",
"z  c #47270B",
"x  c #453B0E",
"c  c #4B3B0E",
"v  c #4D2126",
"b  c #412025",
"n  c #552226",
"m  c #1D5D16",
"M  c #3E460D",
"N  c #2D4B12",
"B  c #374E13",
"V  c #265217",
"C  c #355310",
"Z  c #3A560E",
"A  c #1D7412",
"S  c #1F7B13",
"D  c #1F731D",
"F  c #1C6B12",
"G  c #2A6615",
"H  c #336E14",
"J  c #227C1B",
"K  c #277416",
"L  c #307615",
"P  c #1D4625",
"I  c #1E4E2F",
"U  c #275A36",
"Y  c #224B30",
"T  c #1E6328",
"R  c #257427",
"E  c #266233",
"W  c #277032",
"Q  c #41520E",
"!  c #424E11",
"~  c #253D43",
"^  c #293D43",
"/  c #353E42",
"(  c #284447",
")  c #2B4349",
"_  c #2A484A",
"`  c #324449",
"'  c #32484E",
"]  c #394549",
"[  c #2C5848",
"{  c #2F4D56",
"}  c #344C52",
"|  c #3A4D53",
" . c #3C5157",
".. c #3E5359",
"X. c #34575A",
"o. c #2C6444",
"O. c #2C6945",
"+. c #3F7A4D",
"@. c #484C4C",
"#. c #43565B",
"$. c #49565A",
"%. c #43585F",
"&. c #495457",
"*. c #515253",
"=. c #444E52",
"-. c #477558",
";. c #455C62",
":. c #4A5E63",
">. c #525E61",
",. c #4B6166",
"<. c #44646D",
"1. c #4D646A",
"2. c #536266",
"3. c #53666C",
"4. c #54696E",
"5. c #5A676B",
"6. c #556D73",
"7. c #5B6E72",
"8. c #5C7076",
"9. c #5F7379",
"0. c #547077",
"q. c #4F6E76",
"w. c #65696A",
"e. c #627175",
"r. c #62757A",
"t. c #65797E",
"y. c #6B777A",
"u. c #767879",
"i. c #656E71",
"p. c #870000",
"a. c #8C0000",
"s. c #850A0C",
"d. c #910101",
"f. c #BD0202",
"g. c #A60101",
"h. c #D20202",
"j. c #1F8113",
"k. c #208513",
"l. c #218C14",
"z. c #24871B",
"x. c #229314",
"c. c #239C15",
"v. c #25921C",
"b. c #2A9718",
"n. c #25A315",
"m. c #26AE15",
"M. c #29AA16",
"N. c #28A719",
"B. c #27B116",
"V. c #28B517",
"C. c #29BB17",
"Z. c #29B518",
"A. c #2ABC18",
"S. c #268A22",
"D. c #268326",
"F. c #2A9A23",
"G. c #309F2A",
"H. c #2DA323",
"J. c #2AC118",
"K. c #3B8B46",
"L. c #5C7981",
"P. c #657C81",
"I. c #6B7E82",
"U. c #6E8287",
"Y. c #718589",
"T. c #75888D",
"R. c #788A8F",
"E. c #7A8E92",
"W. c #768C91",
"Q. c #7D9499",
"!. c #7E9095",
"~. c #838686",
"^. c #829599",
"/. c #849A9D",
"(. c #859497",
"). c #8A9DA1",
"_. c #8CA3A5",
"`. c #8FA7AD",
"'. c #93A4A8",
"]. c #95A8AD",
"[. c #99ABAF",
"{. c #9AADB2",
"}. c #9EB1B5",
"|. c #9FB5B9",
" X c #A3A4A4",
".X c #A9AAAA",
"XX c #A8AFB1",
"oX c #A0B2B6",
"OX c #A3B6BA",
"+X c #A8B8BC",
"@X c #B0B5B5",
"#X c #ACBEC3",
"$X c #A7BDC1",
"%X c #ADC1C5",
"&X c #B5C6C9",
"*X c #BACED2",
"=X c #BDD1D5",
"-X c #BFD4D8",
";X c #CBD3D4",
":X c #C2D6DA",
">X c #C7D9DC",
",X c #D2D8DA",
"<X c #CBDFE3",
"1X c #DADFE0",
"2X c #D3E6EA",
"3X c #D7E7EA",
"4X c #DFEDF0",
"5X c #E8ECED",
"6X c #ECF3F4",
"7X c #FAFCFC",
/* pixels */
"m.B.m.m.B.x.S j.m.B.j.n.c.c.B.m.m.m.m.B.m.m.c.n.j.n.x.c.B.A l.M.B.x.B.j.m.n.x.B.B.m.m.m.m.m.m.m.B.m.",
"m.m.c.M.m.c.n.B.m.m.x.x.c.B.B.B.m.B.m.m.B.B.j.x.V.c.l.n.L i i y @ B.B.m.S B.x.m.m.m.c.m.B.m.B.m.B.m.",
"m.c.c.l.n.A S B.B.B.j.B.x.j.j.x.c.n.m.m.B.j.n.x.m.n.j.L x h e z L c.B.j.S m.m.m.m.m.S l.m.m.m.m.m.m.",
"m.x.B.S l.x.m.j.m.j.n.n.A x.B.n.F B.k.m.B.j.m.x.j.A.j.H r a.e N J.j.j.V.j.B.B.m.m.m.S m.x.m.m.c.x.m.",
"n.j.m.j.m.x.x.C.x.j.m.x.x.j.j.x.x.c.B.x.c.m.j.S n.N.@ t g h X L c.A c.m.j.m.B.c.m.m.l.c.c.x.m.x.S x.",
"j.n.j.n.j.n.x.B.n.n.m.c.j.j.m.B.m.x.m.x.j.n.S c.M.O.+ 0 e e N b.A c.B.x.Z.m.m.A c.m.m.k.c.l.n.j.k.n.",
"m.x.n.j.n.m.B.B.m.B.B.B.x.n.j.B.x.m.B.m.k.m.c.H.G.<.4 o o + b.m.c.B.B.V.B.B.m.S n.x.m.k.B.k.S n.m.l.",
"B.B.m.m.m.B.n.m.m.B.B.B.j.x.B.j.k.n.x.l.j.j.o.{ <.3X9. .o.S x.m.B.B.B.n.j.n.m.S k.x.c.k.m.S x.S S n.",
"m.m.m.B.m.m.S c.m.m.m.x.x.j.n.S x.B.j.D.[ o.).#X>X3X$X{.Q.O.o.G.c.m.m.S V.x.c.B.j.C.x.m.c.k.l.m.m.m.",
"B.m.x.j.x.m.S n.x.m.m.k.n.c.B.n.B.j.H.K.0.0.&X3X6X<X*X*X|.q.0.K.S.x.m.c.m.S x.J.k.B.m.m.B.m.m.m.m.m.",
"m.c.x.n.x.S A m.n.c.j.m.c.c.m.c.S m.[ 9.=X=X*X<X2X#X#X#X#X#X*XL.O.c.S n.A j.m.j.m.m.m.c.x.m.m.c.x.m.",
"m.B.l.S k.n.n.j.m.l.S c.c.j.x.j.j.[ Q.%X#XoXoX].!.<.T.'.|.|.%X%X'.[ c.m.j.Z.j.m.n.m.m.j.n.n.n.c.x.m.",
"m.m.m.m.n.l.l.n.A l.m.k.m.j.j.j.c.{ W.OX$X).).R.P.Q.P.T././.OXOXQ._ n.m.m.c.A B.x.n.m.c.c.j.x.B.x.m.",
"m.m.l.m.m.m.m.n.j.x.n.S c.x.n.j.N._ 9.).{.P.L.6.q.2XL.q.P.t.].).U.( v.B.B.l.n.k.B.x.j.n.S l.n.x.m.m.",
"m.x.c.S m.m.m.A k.B.l.n.x.c.j.S.( 6.9.U.I.{ X.Q.7X2X:XQ.X.{ t.I.t.6.( D.n.l.m.m.m.k.n.n.l.m.m.m.m.m.",
"m.x.x.l.n.n.x.A n.n.C.x.m.x.m.x.< 6.<...;.#X#X-X4X2X:X$X`.'.<.;.;.0.< D x.x.S m.x.c.m.m.m.m.m.m.m.m.",
"m.n.j.m.A x.J.j.m.B.B.m.m.B.B.v., 1.,.1.4.6X,X,X3X2X:X&X$X=X6.;.,.1.> S.c.c.c.j.n.m.B.n.c.m.m.m.m.B.",
"m.C.j.B.n.x.j.n.m.m.m.m.m.B.B.S.% ~ XX7X7X:X;.r.2X<X:XI.} {.-X-X[.( % j.B.n.j.n.B.B.B.j.c.c.m.m.m.m.",
"m.m.B.m.B.n.j.n.n.c.n.m.j.x.R -.%X,X3X>X#XOX..r.2X:X#X9.| {.OXOX[.!.7.X.W c.S j.n.B.c.x.c.x.j.j.x.m.",
"m.n.n.B.V.j.V.A x.j.j.x.S x.E ,.%X;X+X[.{.}. .r.<X=XOX8.| {.{.^.R./.t...E c.S B.x.n.S B.x.j.x.c.x.m.",
"m.x.S n.c.x.C.S n.j.j.c.j.n.W } 7.t.} %.'.}. .6.=X:X+X6.| |.'.;._ I.6. .U j.x.l.B.x.x.n.S S x.x.n.m.",
"B.x.n.l.x.x.j.n.c.c.n.S A A T ( 6.I.;.;.^.^.%.,.^.^.^.6...^.^.:. .I.6.' T M.m.M.B.m.m.m.n.n.m.m.m.m.",
"m.c.x.B.x.n.S x.x.B.n.j.c.c.A U  .9.3.6.Y.T.4.6.T.T.T.9.4.T.T.6.1.9. .6 ; K m.m.B.B.c.B.m.B.m.m.n.m.",
"m.m.c.x.B.c.S c.c.B.x.n.c.j.x.R < 3.8.t.r.r.r.r.r.r.r.r.r.r.r.r.8.3., 3 1 1 n.M.m.m.A x.m.m.m.x.x.n.",
"m.m.x.n.l.m.S B.c.c.S B.x.x.j.J ^ ~ 7 : % # * % % % % % % % % : -     ~..X~.. l.m.m.S n.x.m.n.x.c.n.",
"B.n.k.C.S l.j.k.m.x.n.x.A A D.-.$X`.1.~ 7 ....#.:.5.:.#.....- # /  X~.(.~.w.  J k.n.j.m.n.x.A A A n.",
"c.x.x.m.A x.x.c.c.m.m.S c.z.+.Y.5X$X6.~ _ :.:.:.4.t.7.1.;.1.# 9 u.;X@X(.y.2.  K x.k.m.c.V.k.j.k.m.m.",
"c.x.m.j.A x.S c.m.m.m.x.c.[ ).>X}.# : ~ ;.< = % % % # % % >   .X;X2.E.Y.7.&.  l.x.j.j.k.x.j.n.l.c.C.",
"m.m.m.n.n.m.m.n.m.m.m.c.v.Y / | / !.I.1.5 :.Y.).[.~ I.'.{.I.1  X;X2.>.r.e.&.  k.A A x.n.m.m.m.m.m.m.",
"m.m.m.m.m.m.m.S n.B.B.M.x.3 - ^ :.Y.P.:., | Y.].oX( E.OXOXE.1  X,Xi.$.e.e.$.  A n.m.k.m.m.m.m.m.m.m.",
"m.m.m.x.l.c.m.S x.n.B.b.c.l 4 :.{.{ ^ ' ) % ;.P.T.^ I.!.E.I.&  X,XI.$.e.t.2.. K j.F n.m.c.m.m.m.m.m.",
"m.m.x.c.c.k.S S B.x.n.k.B.l f s ^ 5X&X).6.% ;.#.~ I.)  .6.8.& ~.@XI.I.I.e.>.. w Z l.n.k.n.n.B.m.m.m.",
"m.m.m.j.S x.n.c.x.C.S k.M t f a ) 4X#XE.6.* ~ ~ > ..< ~ ' | # u. XI.i.y.e.$.  q ! x.c.j.N.c.B.B.m.m.",
"m.n.m.m.m.x.A x.c.m.x.b.e g g a ) <X|.Y.6.* $ $ $ 4 2 $ $ 3 # w.(.y.>.r.e.$.  q M x.S n.x.n.m.m.B.m.",
"m.x.S m.m.m.S C.l.m.m.b.r h g a ) <X}.Y.6.% s.f.h.h.h.h.g.d./ - 3 >.&.e.y.5.# q ! l.l.c.j.m.m.B.B.m.",
"m.x.c.k.m.x.x.j.A S c.x.e h g f s 4.#.` ^ > 4 n n n v v v b %.8 3 $.7.r.5.&.# k k ! j.M.m.m.m.m.m.m.",
"m.c.x.C.l.l.F C.S l.G B f j h f f 2 1 = > ) } %.3.3.;.| ' ) #.8 8 i.i.r.5.*.  h h l S j.n.m.n.j.m.B.",
"m.m.j.l.m.l.x.B.S m.B r p.p.j g f f O > ) 6.U.{.3X2X#X).Y.0.= # /  X>.5.e.w.  h h l S C.x.c.B.j.m.m.",
"m.m.j.n.l.l.c.j.k.x.Z r p.p.j j h f f O = 5 5 6 ` ` ^ 8 5 > > O a 9 u.i.*.2 s.a.h l c.B.A x.J.j.m.B.",
"m.m.l.n.m.x.m.A A H c h p.p.p.h h g f d = / 6 8 5 : 5 8 6 / < s r p *.w.@.  h h f u c.A x.B.j.m.m.m.",
"m.B.V.j.V.n.x.n.l.c h a.d.p.p.j j h g d , 2.=.@.] , ` @.=.>.7 s h h   @.@.  t t t z m.l.B.B.m.m.m.m.",
"n.c.B.m.m.c.c.j.l.z g a.a.p.j g 0 X X X X ) 7.5.] , * * * % o X X q 0 + V n.m.n.M.x.N.B.m.x.n.B.m.m.",
"n.A c.B.m.j.C.S x.z r g g r r u H L G N G ( #. .` <  .%.;.# G L N L L K m x.B.B.b.c.l.m.c.A m.B.m.m.",
"n.l.c.c.c.x.V.A l.x y i u y w M j.x.n.x.v.( ' } ' , 6.U.8.= n.j.C.K x.c.j.N.x.m.x.m.k.x.m.j.n.m.m.m.",
"n.l.B.c.j.n.c.A l.l.A B.c.c.S m.j.c.x.x.M.( ^.'.R.) 6. .; c.c.j.C.S j.x.x.N.n.j.j.n.S j.n.c.m.n.l.l.",
"l.n.m.B.n.m.c.c.x.n.S n.l.J.S m.j.n.n.j.N.( Q.).P.( 7 Y x.n.A n.j.c.x.j.l.n.x.A n.j.x.x.c.n.B.x.l.m.",
"B.l.m.m.m.m.B.S x.c.J.j.l.S c.B.M.j.j.n.c.~ 6.t.>.U I J m.c.x.m.j.B.m.n.m.m.S m.l.m.m.j.N.x.j.B.A c.",
"B.n.c.c.c.n.m.A x.n.B.c.c.l.j.n.m.c.c.n.j., < < P m.m.B.c.m.m.B.m.m.m.n.m.m.x.c.m.x.c.m.j.S m.c.c.l.",
"B.m.c.l.l.l.l.S B.l.n.l.m.k.B.c.n.A m.x.k.S J z.b.m.m.c.c.x.c.N.m.m.m.S x.B.m.c.V.j.x.c.S n.m.c.m.m.",
"m.m.n.j.S l.m.n.x.B.k.j.x.c.k.B.x.c.n.A A c.n.n.m.m.m.j.A.A c.j.m.m.m.S n.x.m.m.m.n.m.m.n.B.B.B.m.m."
};
