/* XPM */
static char *pl_mv_up_1[] = {
/* columns rows colors chars-per-pixel */
"50 50 189 2 ",
"   c #181818",
".  c #390000",
"X  c #3B0D0A",
"o  c #2C1619",
"O  c #221B1F",
"+  c #3B1911",
"@  c #1F331D",
"#  c #393B0E",
"$  c #362D0C",
"%  c #122127",
"&  c #13242A",
"*  c #1E2629",
"=  c #1C3239",
"-  c #1A2F37",
";  c #363A2D",
":  c #392C30",
">  c #362D31",
",  c #21373D",
"<  c #25393C",
"1  c #2D3738",
"2  c #323338",
"3  c #272C32",
"4  c #450101",
"5  c #4D0303",
"6  c #4E0708",
"7  c #420C0D",
"8  c #540101",
"9  c #5D0000",
"0  c #590A03",
"q  c #491006",
"w  c #521407",
"e  c #660000",
"r  c #6C0000",
"t  c #660A0A",
"y  c #730000",
"u  c #7B0000",
"i  c #7D1414",
"p  c #412D0A",
"a  c #47390C",
"s  c #532B0B",
"d  c #632A09",
"f  c #5C3A3C",
"g  c #613C3B",
"h  c #1D4418",
"j  c #1E4A18",
"k  c #1C4617",
"l  c #1F5219",
"z  c #3C420E",
"x  c #384A0E",
"c  c #34580F",
"v  c #344B12",
"b  c #2F5A12",
"n  c #21581A",
"m  c #2A4B0F",
"M  c #1C6D12",
"N  c #1E6B1F",
"B  c #1D7412",
"V  c #1E7B13",
"C  c #216D1E",
"Z  c #2B6817",
"A  c #336B14",
"S  c #23731E",
"D  c #217A1A",
"F  c #207C15",
"G  c #357A16",
"H  c #184521",
"J  c #204834",
"K  c #215630",
"L  c #215B26",
"P  c #256A27",
"I  c #237324",
"U  c #29782A",
"Y  c #2F7739",
"T  c #44460D",
"R  c #48480C",
"E  c #405410",
"W  c #293F45",
"Q  c #593F41",
"!  c #284942",
"~  c #2C454C",
"^  c #284742",
"/  c #37454B",
"(  c #2E5B4C",
")  c #295843",
"_  c #345548",
"`  c #334B52",
"'  c #2F5155",
"]  c #32525A",
"[  c #385459",
"{  c #464747",
"}  c #4A4B4B",
"|  c #4F574E",
" . c #564D50",
".. c #4D5559",
"X. c #435A5C",
"o. c #47555A",
"O. c #515B5E",
"+. c #564649",
"@. c #475C62",
"#. c #4B5E63",
"$. c #545F62",
"%. c #4C6166",
"&. c #4C6369",
"*. c #51666B",
"=. c #536C6B",
"-. c #566E73",
";. c #596E74",
":. c #5A7276",
">. c #5C7378",
",. c #667A7F",
"<. c #607377",
"1. c #516F4E",
"2. c #840000",
"3. c #8B0000",
"4. c #930101",
"5. c #9B0000",
"6. c #A40001",
"7. c #A80303",
"8. c #AE090A",
"9. c #BD0B0C",
"0. c #B30708",
"q. c #1F8113",
"w. c #208513",
"e. c #218C14",
"r. c #2E8A16",
"t. c #248C1D",
"y. c #25871C",
"u. c #229314",
"i. c #239B14",
"p. c #26951A",
"a. c #318618",
"s. c #25A315",
"d. c #26AE15",
"f. c #28AC17",
"g. c #26A31A",
"h. c #29A81A",
"j. c #27B216",
"k. c #28B517",
"l. c #29BA17",
"z. c #29B618",
"x. c #2ABC18",
"c. c #268A26",
"v. c #278428",
"b. c #299826",
"n. c #2D8C33",
"m. c #2BA320",
"M. c #2BC218",
"N. c #3E8244",
"B. c #4E8264",
"V. c #677C81",
"C. c #697D82",
"Z. c #8A7F80",
"A. c #6B868B",
"S. c #6E888F",
"D. c #778A8E",
"F. c #748284",
"G. c #7A8D91",
"H. c #7D9094",
"J. c #819397",
"K. c #829599",
"L. c #849A9C",
"P. c #9A8787",
"I. c #A59D9E",
"U. c #8B9DA1",
"Y. c #8FA2A6",
"T. c #89A3A9",
"R. c #91A2A6",
"E. c #92A4A8",
"W. c #97A9AD",
"Q. c #98AAAE",
"!. c #9CAFB3",
"~. c #9DB0B4",
"^. c #A0B2B6",
"/. c #A6B9BD",
"(. c #A4B6BB",
"). c #ABBDC2",
"_. c #B6C9CD",
"`. c #BDCFD4",
"'. c #BED1D5",
"]. c #C7DBDF",
"[. c #C0D3D6",
"{. c #CBC3C3",
"}. c #C9DCE1",
"|. c #D5E6EA",
" X c #DCEAEE",
".X c #E5EAEA",
"XX c #EAF4F5",
"oX c #FDFEFE",
"OX c #F3F9FA",
/* pixels */
"d.j.d.d.d.u.V q.d.d.w.s.u.s.d.d.d.d.d.j.d.j.u.i.u.s.u.i.k.B q.d.d.q.j.q.d.s.i.d.d.j.d.d.d.d.d.d.j.d.",
"d.d.i.f.d.s.s.d.d.d.u.u.s.d.d.d.d.d.d.d.d.f.u.e.k.u.q.s.u.B u.q.V d.j.d.V k.u.d.d.d.u.j.d.d.d.d.j.d.",
"d.i.i.e.s.B V j.d.d.V j.e.u.q.u.u.d.d.d.x R a # r.s.q.u.u.i.s.e.d.i.j.q.V j.d.d.j.j.B u.d.d.j.j.d.d.",
"d.u.j.V q.u.f.q.d.e.s.d.B u.d.i.M j.w.s.p 0 e 0 z f.e.d.q.d.j.q.M.q.q.k.q.d.d.j.d.j.B d.u.d.d.i.u.d.",
"s.q.d.q.j.u.u.k.u.e.s.u.e.w.q.u.u.u.k.u.i.q 2.u 4 b u.s.l.q.s.d.i.M i.d.q.j.j.i.d.j.e.i.i.u.d.u.V u.",
"q.s.q.s.e.s.i.j.d.s.d.u.e.q.d.d.j.u.j.u.w.X y y 5 ; n.i.d.s.V s.B i.j.i.k.d.d.B u.d.d.w.i.e.s.q.w.s.",
"d.u.s.q.s.d.d.d.d.d.d.d.e.s.e.d.u.s.j.s.w.m 0 9 4  .B.v.b.d.d.d.s.d.d.j.j.j.d.V s.u.j.w.j.w.q.s.d.e.",
"j.j.d.d.d.j.s.d.d.d.d.d.e.u.j.q.w.d.u.u.q.q.X . . Z.T.] ) q.q.d.d.j.d.s.q.d.d.V w.u.u.e.d.B i.B V s.",
"d.d.d.d.d.d.V u.d.d.d.u.u.e.s.B u.f.w.i.q.( ~ G.f P..X_.L.( ) g.i.d.d.V k.u.i.j.w.l.u.d.i.w.w.d.d.d.",
"d.j.u.w.u.d.V s.u.j.d.e.s.s.d.s.d.e.d.h.P A.D._.I.{.OX|._.A.A.Y g.u.d.i.d.V u.x.w.d.d.d.d.j.j.d.d.d.",
"d.u.u.s.u.V B d.s.u.q.d.u.i.d.u.V f.q.g.] ).).].XXoXoXXX].(.~.] h.s.V s.B e.f.q.s.d.d.s.u.d.d.i.u.d.",
"d.j.e.V w.i.d.q.d.e.q.u.i.e.u.V q.x.I ] !.!./.].|.XXXX|.]._.~.!.' t.i.d.e.d.V d.s.d.d.w.s.i.s.s.u.d.",
"d.d.d.d.s.u.e.s.B u.d.e.d.w.w.q.i.d.N ` W.~./._.}. X X]._.(.~.E.~ b.i.d.d.s.B j.u.s.d.i.s.q.u.d.u.d.",
"d.j.e.d.d.d.d.s.w.u.s.V u.u.s.w.k.y.U @.E.~./._.'.].].'._.~.~.Y.@.P p.d.d.w.d.w.l.u.V s.B e.d.e.d.d.",
"d.u.u.V d.d.d.B e.k.e.s.u.u.q.i.i.b.` K.E.~.~.)._./._././.~.~.Y.H.` M s.i.e.d.d.d.w.s.s.e.d.d.d.d.d.",
"j.u.u.u.i.s.u.B i.i.l.u.d.u.d.d.j.c.W K.E.~.~.~.~.~.~.(.~.~.~.Y.K.^ p.u.u.i.q.s.u.i.d.d.d.d.d.d.d.d.",
"d.s.e.d.B e.M.V d.j.d.j.d.d.d.d.g.N.F.G.U.Q.!.!.~.!.~.~.~.!.Q.U.D.F.Y h.i.i.i.e.i.d.j.s.i.d.j.d.d.j.",
"d.d.w.k.d.u.w.s.d.d.d.d.d.d.j.d.c.<..XC.H.E.!.!.~.~.~.~.~.!.R.H.V..X*.c.j.h.q.s.j.d.j.q.i.i.d.d.d.d.",
"d.d.d.d.d.s.w.s.s.s.s.d.e.u.d.d.U ;.[.~ C.R.E.!.!.^.~.~.!.E.R.C.~ '.&.c.i.i.V w.s.d.s.u.s.e.q.q.u.d.",
"d.s.s.d.j.w.l.B u.V w.e.V e.u.s.I %.).~ C.G.L.U.U.U.U.U.U.K.G.V.~ ).[ N e.p.V j.u.s.V j.u.q.e.i.u.d.",
"d.u.V s.s.e.l.V d.e.V i.e.s.s.V C [ U.~ C.V.G.H.H.H.J.G.G.G.V.V.~ E.` y.q.q.i.q.j.u.u.s.B V u.i.s.d.",
"d.u.s.w.u.u.q.s.u.u.s.V B B s.e.d.S W ;.;.;.V.C.C.C.C.C.C.V.-.;.;., y.j.q.s.d.d.d.d.d.d.s.d.d.d.d.d.",
"d.i.u.l.u.s.V u.u.d.s.e.i.i.i.u.s.g.v.< W ;.:.:.>.>.>.>.>.;.-., , P i.q.j.j.d.d.d.j.i.d.d.d.d.s.s.d.",
"d.d.i.e.d.i.V i.i.d.u.s.i.q.V S D r.A O & [ @.@.@.@.@.@.@.@.X.& O Z D s.j.j.j.d.d.d.V u.j.d.d.u.u.s.",
"d.d.u.s.e.d.V k.i.i.V j.e.e.j   * 2 8 6 = & % % % % % % % % & = 8 8 2 c.k.d.j.j.d.d.B d.u.d.s.u.i.s.",
"d.d.w.l.V e.V w.j.u.s.u.B k | O.> t 8.5.6 8 #.*.;.C.,.;.*. .6 6 5.8.t ; c.d.j.s.w.s.q.d.s.u.B B B s.",
"i.u.i.d.B w.i.i.i.d.d.q.i.k } %.: r 0.5.r y Q +...%.#...+.f y y 5.0.e : v.s.s.q.u.w.s.s.k.w.q.w.s.d.",
"s.w.s.w.B i.V i.d.d.d.e.s.l { ..: r 6.5.6.6.9 8 o % & o 8 r 6.6.5.6.e : I p.q.j.u.q.q.q.i.q.s.u.s.M.",
"d.d.d.d.s.d.d.s.d.j.d.i.u.n { g u 8.5.5.6.3.4.6.r 0 8 y 6.4.3.6.4.5.6.y c s.w.i.B M u.d.d.s.d.d.d.d.",
"d.d.d.d.d.d.d.V s.d.d.f.u.j { g y 7.5.5.3.5.3.5.3.4.4.4.5.3.5.3.6.4.4.r c j.w.q.i.d.e.d.d.d.d.d.d.d.",
"d.d.d.u.e.i.d.V u.s.j.i.i.n { g y 6.4.6.y 6.3.4.5.8.7.5.4.3.6.u 6.3.4.y c u.B e.q.M s.s.i.d.d.d.d.d.",
"d.d.e.i.i.e.V V k.u.s.q.f.n { g r 5.3.6.u 6.3.2.u y y u 2.3.6.u 6.3.4.6.y R B M u.e.s.e.s.s.d.d.d.d.",
"d.d.d.q.V e.s.s.u.l.V w.e.k + i 7.2.3.6.y 3.5.3.3.u u 2.3.5.3.y 6.3.3.4.y x F k.u.u.i.q.f.i.d.d.d.d.",
"d.s.s.d.d.u.B u.i.d.u.s.e.k X 2.7.2.2.6.y 2.5.4.4.4.4.4.4.5.2.y 6.3.2.4.2.s A i.d.u.B f.u.s.j.d.j.d.",
"d.u.V d.d.d.V l.w.d.d.i.V j X u 5.2.u 6.r 2.2.5.9.9.9.9.5.2.2.y 6.2.u 3.6.u a s.i.q.u.i.q.d.d.d.j.d.",
"d.u.s.w.d.u.i.q.B V s.i.u.l 7 u 3.2.6.3.6.u 2.3.5.7.7.5.2.2.u 6.2.5.2.2.4.u $ M.M s.q.d.d.d.d.d.d.d.",
"d.i.u.k.e.e.M l.V u.B q.q.v t 3.2.2.5.2.6.u u 2.4.4.4.4.2.u u 6.2.5.2.2.3.3.d G u.d.V q.d.j.d.q.j.d.",
"d.d.w.e.d.e.e.k.V f.V u.i.a 4.8.2.2.4.2.6.u u u 2.3.3.2.u u y 6.2.4.2.2.3.5.2.p s.e.B l.q.i.k.q.d.d.",
"d.d.w.s.u.e.i.q.q.u.i.i.t.a 4.8.2.u 4.2.u 6.u u 2.2.2.u u 2.6.u 2.4.3.2.2.r 4 # q.d.s.d.B u.l.q.d.j.",
"d.d.w.s.d.e.d.B B u.f.f.u.T 3.4.2.2.3.u y 4.u y u u u u y u 4.y u 3.3.r e a b r.s.B s.B e.j.q.d.d.d.",
"d.j.d.e.j.s.u.s.q.h.i.i.q.R 2.4.2.u 2.y u y e e r r r r e r y e r y u w $ A j.d.i.s.j.q.k.j.j.d.d.d.",
"s.u.j.j.j.i.i.q.q.d.d.q.s.R 3.4.u y y y y . . . . . . . . . . . . . 4 m u.d.d.d.j.u.s.j.j.u.d.j.d.d.",
"s.M i.j.d.q.l.V i.V q.h.d.T u 3.e 8 5 4 4 a.1 1 1 3 { 1.Z @ e.r.Z r.r.i.F e.d.d.i.i.u.j.i.B s.d.d.d.",
"s.u.i.i.i.u.l.B q.d.d.q.j.T e r w # z # x p.! &.&.` [ =.P N j.q.l.B e.i.w.s.i.d.e.j.V u.d.q.s.j.s.d.",
"d.e.d.i.q.s.i.M e.e.B j.i.z 5 4 $ u.e.e.d.i.) K.U.-.@.X.k i.i.q.l.B e.u.u.d.s.q.q.s.V u.s.i.d.s.e.e.",
"w.s.d.j.s.d.i.i.e.s.V s.e.x.F j.q.f.s.e.s.d.^ H.G.@.= H d.s.B i.e.i.e.w.q.s.u.B s.q.u.q.i.s.j.u.u.d.",
"j.u.d.d.j.j.d.V u.s.M.q.e.V s.d.f.q.e.s.i.f.= &.O.) L D d.i.u.d.q.j.f.s.d.d.V j.q.j.d.q.s.u.q.j.B s.",
"j.s.s.u.u.s.j.B u.s.j.i.i.q.e.s.d.i.u.s.q.s.K J J v.d.j.i.d.d.j.d.d.d.i.d.d.u.i.j.u.i.j.q.V d.i.i.w.",
"d.j.u.e.u.e.e.B j.u.s.e.d.w.j.i.i.V j.u.w.e.u.u.d.d.d.u.u.u.i.s.d.d.d.B u.j.j.i.j.q.e.i.V d.d.i.d.d.",
"d.d.d.V B u.d.s.u.j.w.V u.u.w.l.u.u.s.B B i.i.d.j.d.d.q.M.B i.w.d.j.d.V s.u.d.d.j.s.j.d.s.d.d.j.j.d."
};
