/* XPM */
static char *pl_mv_up_2[] = {
/* columns rows colors chars-per-pixel */
"50 50 204 2 ",
"   c #390101",
".  c #2B171A",
"X  c #301A1E",
"o  c #3A180B",
"O  c #1A2618",
"+  c #1B2C19",
"@  c #1A3218",
"#  c #3C240A",
"$  c #373D0D",
"%  c #372518",
"&  c #231C20",
"*  c #112127",
"=  c #142328",
"-  c #1A2E34",
";  c #193034",
":  c #1D3239",
">  c #1C3621",
",  c #262327",
"<  c #3D2326",
"1  c #27302D",
"2  c #222E33",
"3  c #213136",
"4  c #23353B",
"5  c #27383E",
"6  c #440403",
"7  c #4A0404",
"8  c #480C0D",
"9  c #540202",
"0  c #5B0000",
"q  c #530E05",
"w  c #4A1B0A",
"e  c #4A1707",
"r  c #541307",
"t  c #581207",
"y  c #550F11",
"u  c #561617",
"i  c #4C1416",
"p  c #650000",
"a  c #6B0000",
"s  c #640F0F",
"d  c #740000",
"f  c #7B0000",
"g  c #7D1F1F",
"h  c #691E0B",
"j  c #52300C",
"k  c #4A280A",
"l  c #482326",
"z  c #6E2F2F",
"x  c #703E3D",
"c  c #1D4519",
"v  c #1E5119",
"b  c #34430E",
"n  c #39480D",
"m  c #385310",
"M  c #1D6D16",
"N  c #1D7412",
"B  c #1E7B13",
"V  c #2C6412",
"C  c #356412",
"Z  c #227C1C",
"A  c #297815",
"S  c #327813",
"D  c #194821",
"F  c #1F4832",
"G  c #1D5729",
"H  c #234E21",
"J  c #214D34",
"K  c #255A37",
"L  c #2A5926",
"P  c #216525",
"I  c #247326",
"U  c #297C2D",
"Y  c #257826",
"T  c #29673A",
"R  c #2D7738",
"E  c #326A3F",
"W  c #46410F",
"Q  c #456D34",
"!  c #243C42",
"~  c #2B3C42",
"^  c #274843",
"/  c #2D444B",
"(  c #274244",
")  c #31454B",
"_  c #305A4D",
"`  c #2A4B52",
"'  c #334C53",
"]  c #3D5355",
"[  c #3D5359",
"{  c #375956",
"}  c #2B5742",
"|  c #2E7044",
" . c #357047",
".. c #4E5A5E",
"X. c #58585B",
"o. c #494143",
"O. c #684A4B",
"+. c #42775F",
"@. c #547556",
"#. c #485F65",
"$. c #455C62",
"%. c #515E62",
"&. c #4A6167",
"*. c #4C646A",
"=. c #476C66",
"-. c #53666B",
";. c #52686D",
":. c #516E63",
">. c #556D72",
",. c #586F74",
"<. c #577176",
"1. c #5C7176",
"2. c #5D7378",
"3. c #5B7B79",
"4. c #60767B",
"5. c #63797E",
"6. c #687873",
"7. c #737777",
"8. c #636B6E",
"9. c #840000",
"0. c #8C0000",
"q. c #860A03",
"w. c #930000",
"e. c #9B0000",
"r. c #9A0808",
"t. c #A40101",
"y. c #A90102",
"u. c #A50708",
"i. c #A4090A",
"p. c #BD0B0C",
"a. c #B20708",
"s. c #887474",
"d. c #1F8113",
"f. c #208514",
"g. c #218C14",
"h. c #248B1D",
"j. c #288918",
"k. c #338614",
"l. c #368814",
"z. c #229314",
"x. c #239C14",
"c. c #25971B",
"v. c #25A315",
"b. c #29A617",
"n. c #26AE15",
"m. c #28AE17",
"M. c #28A31A",
"N. c #27A41A",
"B. c #27B116",
"V. c #28B517",
"C. c #29BA17",
"Z. c #29B618",
"A. c #2ABC18",
"S. c #278923",
"D. c #299623",
"F. c #2A9B22",
"G. c #2DAF22",
"H. c #2AC118",
"J. c #568F5E",
"K. c #66866D",
"L. c #77A373",
"P. c #667B80",
"I. c #697D82",
"U. c #6D8186",
"Y. c #718589",
"T. c #74878A",
"R. c #7B8D91",
"E. c #7F9296",
"W. c #838282",
"Q. c #888789",
"!. c #809397",
"~. c #829599",
"^. c #889A9E",
"/. c #969896",
"(. c #88A19D",
"). c #8B9EA2",
"_. c #8CA1A5",
"`. c #90A2A6",
"'. c #93A5A9",
"]. c #96A9AD",
"[. c #9CA4A5",
"{. c #9CAEB2",
"}. c #9DB0B4",
"|. c #A0B2B6",
" X c #A4B6BB",
".X c #AABABE",
"XX c #ACBEC2",
"oX c #A5BCC1",
"OX c #AFC1C5",
"+X c #B0C2C6",
"@X c #B4C9CD",
"#X c #B8C8CB",
"$X c #BCCFD4",
"%X c #C5D7DA",
"&X c #C6D8DC",
"*X c #C5CCCE",
"=X c #DADFE0",
"-X c #D3E7EB",
";X c #D7E8EC",
":X c #CDE1E5",
">X c #E2EBED",
",X c #E7F2F4",
"<X c #FDFEFE",
"1X c #F6FAFB",
/* pixels */
"n.B.n.n.n.z.B d.n.n.f.v.z.v.n.n.n.B.n.n.m.m.z.x.z.v.z.x.B.N g.v.n.g.B.d.n.v.z.B.B.B.n.n.n.n.B.n.B.n.",
"n.n.x.n.n.x.n.B.n.B.z.z.v.B.n.n.n.n.v.e t t C g.Z.z.g.x.z.N g.g.N B.B.n.B V.z.n.B.n.z.n.B.n.n.n.B.n.",
"n.x.x.g.v.N B n.n.n.B V.g.g.f.z.z.v.n.C q a j S n.b.g.z.z.z.v.g.v.v.B.d.d.n.n.n.n.n.B g.n.n.n.B.n.n.",
"n.z.B.B g.g.n.d.v.g.v.n.N z.n.v.N B.g.n.e f p m Z A.g.b.g.n.n.d.H.d.d.V.B B.B.n.n.B.B n.g.n.n.x.z.n.",
"v.d.n.d.n.z.z.V.z.f.v.z.g.g.B z.z.z.V.z.o p a 0 $ v.z.v.V.z.x.v.z.B x.n.d.B.B.x.n.n.g.v.x.z.n.z.B z.",
"g.v.d.v.g.v.z.n.n.v.n.z.g.d.n.n.n.z.B.z.V e p 0 % R n.x.n.x.f.v.N x.B.z.V.n.n.N x.n.n.f.x.g.v.d.d.v.",
"n.z.v.d.v.n.B.n.n.n.n.n.g.x.g.n.z.v.V.v.f.b q 7 < +.F.D.n.v.v.n.v.n.B.B.B.B.n.B v.x.n.d.B.d.d.v.n.g.",
"n.n.n.n.n.B.v.B.n.n.n.n.z.z.B.d.g.v.z.z.d.d.b   O.@X{ ` B d.z.n.B.B.B.v.d.v.n.B d.g.x.f.n.B z.B B v.",
"n.n.n.B.n.n.B z.n.n.n.z.z.g.v.B z.B.d.x.} | 6.O.O.>XoX_. .| I v.x.B.n.B Z.z.x.B.g.C.z.n.x.g.g.n.n.B.",
"n.n.z.d.z.n.B v.z.n.n.g.v.x.n.v.B.d.B.F.=.*.).Q.s.1X;X@X>.*.} G.v.z.n.x.m.B z.H.d.n.n.n.n.n.n.n.n.n.",
"n.x.z.v.z.B N n.v.z.d.v.z.x.n.z.B n.d.` }.+X%X,X<X<X<X-X+XOX3.T B.x.A v.N d.n.d.v.n.n.x.z.n.B.x.z.n.",
"n.B.g.B g.v.v.d.B.g.d.x.v.f.z.B d.G._ _.}.OX&X;X,X1X;X-X+X}._.3.U x.x.n.d.V.d.n.v.n.n.f.v.x.v.x.z.n.",
"n.B.B.n.v.g.g.v.B g.v.z.n.f.f.d.z.F.` {.{.XX$X:X>X,X-X&XOX X}.3.R x.v.n.n.x.N n.x.x.n.x.x.d.x.B.z.n.",
"n.n.g.n.n.n.n.v.f.z.v.B z.z.v.f.Z.S./ '.{.XXXX$X-X-X:XOXOX}.].1.K B z.B.n.z.v.g.V.z.d.v.N g.v.g.n.n.",
"n.z.z.B n.n.v.N g.V.g.v.z.z.f.x.I { R.'.{.}.oX+X+X+X+XOX}.}.].~.3.J B x.x.z.n.n.n.g.v.x.z.n.n.n.n.n.",
"B.z.z.g.v.v.z.B x.x.C.z.n.z.n.n.S.' E.'.{.}. X X X X X X}.}.].).1.F n.z.g.x.d.v.g.v.n.B.n.n.n.n.n.n.",
"B.v.d.v.N g.H.B n.n.n.B.n.B.m.b.S./ !.`.{.{.{.|.{.}.}.}.}.{.].).1.J z.B.x.x.x.f.x.n.n.v.x.n.n.n.n.n.",
"B.V.d.V.n.x.d.v.n.B.n.n.n.n.m.S.I.=XI.!.`.{.{.{.}.{.}.{.}.].).T.'.*X^ m.n.n.f.v.B.B.n.g.x.x.n.n.n.B.",
"B.n.B.B.n.v.d.v.n.x.v.n.g.z.n.U I.%X#.T.`.].{.{.}.}.}.}.].].R.,.R.#X^ m.x.x.Z f.v.B.x.z.x.z.B d.z.n.",
"n.v.v.B.V.d.C.N z.B f.g.B g.z.U P.@X/ I.).`.].{.{.{.{.{.`.`.T.#.4.XX^ g.g.z.B B.z.x.B B.z.d.z.x.x.v.",
"n.z.B v.v.g.C.N n.g.B x.f.v.v = -.]./ K.I.E.E.E.!.!.!.!.!.I.I.#.;._.; v.d.g.z.g.V.z.z.v.N B x.x.v.n.",
"n.z.x.g.z.z.d.b.z.z.n.N N v Q 7. .#.&.1.2.I.Y.Y.I.T.I.Y.I.P.2.>.&.{ Z B.d.v.B.v.B.n.n.n.n.v.n.n.n.n.",
"n.x.z.C.z.v.B z.z.B.n.f.l.c @.[.@.) *.*.,.P.P.P.I.I.P.P.P.2.;.#.{ G x.g.B.n.n.B.n.n.x.n.n.n.n.v.v.n.",
"n.n.z.z.n.x.B x.x.B.g.x.@ L.K.W.W.7.* * ;.<.>.,.,.,.,.,.<.<.~ = v g.z.v.n.B.n.B.B.n.B z.n.n.n.z.x.v.",
"B.n.g.n.f.n.B B.x.x.B n.+ [./.-.o.u o ; 4 4 4 4 4 4 4 4 4 4 - & % F K n.B.n.n.n.n.n.B v.g.n.v.z.x.v.",
"n.n.f.H.B g.d.f.B.z.v.x.O /.Q.X.l a p , . 3 4 4 ~ ~ ~ 4 4 & & u y 3 K F.n.n.B.v.f.v.d.n.v.x.N N N v.",
"z.z.z.n.N z.z.v.z.n.n.B + W.-.< f p.t.9 9 %.1.5.T.E.I.<.2.u 9 0.r.w z.! n.x.n.d.g.g.v.v.B.f.d.f.v.v.",
"v.g.v.g.N z.B z.n.n.n.z.O W.-.< f u.e.e.e.s y < 2 3 2 y u 0.e.u.0.w J._.} S.g.b.g.d.d.f.x.d.v.z.x.H.",
"n.n.B.v.v.n.n.n.n.n.B.x.O W.X.u 9.t.w.y.e.d a 8 . . . a a w.t.t.w.h Q K.! F.f.v.B N x.v.n.v.n.n.n.B.",
"n.B.n.n.n.n.n.N v.n.n.n.+ W.x f t.w.e.y.0.w.t.f 9 0 0 y.w.0.e.e.u.u.0 * ; z.d.d.v.v.g.n.n.n.n.n.n.n.",
"n.n.n.z.f.v.n.B z.v.n.x.O W.x d w.0.t.f t.0.w.e.y.a.t.e.0.t.0.w.y.w.9 #.; S.N f.B N v.v.v.n.n.n.n.n.",
"B.n.g.z.v.f.B B V.z.v.d.+ O.g 9.w.0.t.f t.0.0.0.0.r.0.0.9.e.0.w.y.w.q [ : S.N N z.g.v.g.v.v.B.n.n.n.",
"n.n.n.d.N g.n.v.z.C.d.f.@ 6 9.e.w.0.t.d t.0.0.f f d f 9.9.t.0.w.y.w.9 / ) S.Z B.z.z.x.g.v.x.n.n.n.n.",
"n.v.v.n.n.x.N g.v.n.g.v.+ 6 f w.9.0.t.d 9.t.w.9.9.f 0.9.y.0.f 0.e.w.p.9 &X-.Y x.m.z.N n.z.v.n.n.n.B.",
"n.z.d.n.n.n.B C.f.n.n.x.o d w.0.9.9.t.d 9.w.e.t.u.u.u.e.w.9.f 0.e.0.u.9 .X&.I N.x.g.g.x.g.n.B.n.n.n.",
"n.z.x.f.n.z.z.B N N v.x.e w.e.0.f 9.e.d f 9.w.a.p.p.p.y.0.9.f 0.e.0.t.9 ].$.G A.N x.f.b.n.n.n.n.B.n.",
"n.x.z.C.g.g.N C.d.d.N f.e 0.0.9.0.t.9.y.f f 9.w.y.t.t.9.9.f w.t.0.9.w.p !...S.N.z.n.N g.v.n.b.d.B.n.",
"n.n.d.g.n.g.g.C.B m.A W q.e.0.f 9.e.9.y.f f 9.0.0.0.0.9.f d w.e.9.f 0.i.z L x.B v.g.N C.g.x.V.d.n.n.",
"n.n.f.v.g.g.x.d.d.x.z.9 0.w.0.9.9.w.9.e.9.f 9.9.9.0.9.9.f f w.0.f f 0.p.p C v.n.d.v.v.n.N z.C.d.B.n.",
"n.n.g.v.n.g.n.N N z.b.6 6 d 0.9.0.w.9.d t.9.f f 9.9.9.f f e.0.f f f 0.p.a k.d.B.v.B v.N g.B.d.n.n.n.",
"n.n.B.g.B.v.z.v.d.N.z.j.A k 9 a 0.9.f d 9.f d d f f f d d 9.f f f f 0.y.p l.n.B.v.x.n.g.n.n.B.n.n.B.",
"v.z.B.n.n.x.x.g.g.n.n.d.v.n # r d a a p a p p p a p a p p d d f f f 9.y.p l.n.n.B.z.n.n.n.z.n.n.n.n.",
"v.N x.n.n.g.V.B z.N d.n.n.v.x.C 6                           0 f f f f y.a S B.n.x.v.g.n.z.B v.B.n.n.",
"x.z.x.x.x.g.V.M d.n.B.d.n.v.B N.Z j.j.j.j.> H @...- ~ ~ ~ h.$ 6 7 9 d w.0 S z.n.g.B.d.z.n.d.v.B.v.n.",
"v.g.n.x.d.v.x.N z.d.N B.x.v.B B.d.z.d.g.B.P G :.-.~ &.>./ h.V b n k 0 d 0 k.v.g.f.x.N g.v.x.n.v.f.g.",
"z.v.n.B.v.n.v.x.z.v.B v.d.H.B n.d.n.n.g.v.n.c ] >.[ ~.|.` S.N x.f.A 6 6 7 k.z.N v.f.z.g.x.v.B.z.z.n.",
"B.z.n.n.n.n.n.B z.v.H.d.z.B v.n.n.d.d.v.v.v.f.P - ' Y.}.' h.d.n.d.n.b.b.b.n.B m.g.n.n.g.v.z.d.B.N v.",
"B.v.v.z.x.v.n.N z.v.B.x.x.d.d.v.n.x.x.n.d.v.d.B I R ..;.! c.V.n.n.B.B.x.n.B.g.x.n.z.z.n.g.B n.x.x.g.",
"n.n.z.z.z.g.g.B B.z.v.g.n.f.B.z.v.B B.z.f.g.z.z.n.x.F F J d.x.n.n.B.n.B z.n.n.x.V.d.g.x.B v.n.x.B.n.",
"n.n.v.d.B g.n.x.z.V.d.d.z.z.g.V.z.z.v.N N x.x.v.B.n.B.d.H.N x.d.n.n.n.B v.z.n.n.n.b.B.n.v.B.B.B.n.n."
};
