/* XPM */
static char *pl_mv_rg_1[] = {
/* columns rows colors chars-per-pixel */
"50 50 207 2 ",
"   c #131A17",
".  c #0E100F",
"X  c #2D151A",
"o  c #39140E",
"O  c #162B15",
"+  c #17381A",
"@  c #3E270B",
"#  c #372F0E",
"$  c #0C1C24",
"%  c #111D24",
"&  c #1A1A21",
"*  c #0E2326",
"=  c #13242B",
"-  c #16262B",
";  c #143A25",
":  c #122B32",
">  c #1B2B32",
",  c #1A343C",
"<  c #153232",
"1  c #222824",
"2  c #3B2528",
"3  c #2B312D",
"4  c #23353C",
"5  c #27383B",
"6  c #343334",
"7  c #3A2D33",
"8  c #430000",
"9  c #4D0702",
"0  c #530000",
"q  c #5D0202",
"w  c #520C06",
"e  c #471115",
"r  c #571215",
"t  c #4D1509",
"y  c #640101",
"u  c #6B0201",
"i  c #640809",
"p  c #6D0A08",
"a  c #740101",
"s  c #7C0000",
"d  c #7A0A03",
"f  c #6D191C",
"g  c #442509",
"h  c #44360C",
"j  c #55310B",
"k  c #612308",
"l  c #5E1F22",
"z  c #4A272B",
"x  c #502E32",
"c  c #1C5A15",
"v  c #1B4917",
"b  c #39470E",
"n  c #2C5912",
"m  c #355813",
"M  c #314911",
"N  c #1D6C14",
"B  c #1D6617",
"V  c #1D7413",
"C  c #1E7B13",
"Z  c #276918",
"A  c #336514",
"S  c #217317",
"D  c #227C1C",
"F  c #257718",
"G  c #1B5323",
"H  c #24493B",
"J  c #255739",
"K  c #2C4A2F",
"L  c #236B26",
"P  c #276836",
"I  c #2B7A36",
"U  c #267A25",
"Y  c #44430D",
"T  c #1B3740",
"R  c #233D43",
"E  c #293D44",
"W  c #323E43",
"Q  c #463F43",
"!  c #2A434A",
"~  c #294748",
"^  c #33454B",
"/  c #32484F",
"(  c #3B4549",
")  c #2A5B47",
"_  c #2E4A52",
"`  c #334B51",
"'  c #3B4D53",
"]  c #2E555D",
"[  c #3B5056",
"{  c #3D5358",
"}  c #3F595F",
"|  c #2E6447",
" . c #38714A",
".. c #3A5D66",
"X. c #414A4E",
"o. c #45474D",
"O. c #414F54",
"+. c #44545A",
"@. c #43595E",
"#. c #4B5A5E",
"$. c #48575D",
"%. c #46664B",
"&. c #4C6E55",
"*. c #445C62",
"=. c #4B5D63",
"-. c #525E63",
";. c #496067",
":. c #4C6268",
">. c #53656B",
",. c #546A6E",
"<. c #56656A",
"1. c #496A73",
"2. c #556D73",
"3. c #596D73",
"4. c #597177",
"5. c #5D7479",
"6. c #577076",
"7. c #4E7669",
"8. c #6A6C6C",
"9. c #697569",
"0. c #636E72",
"q. c #62767C",
"w. c #63797E",
"e. c #667276",
"r. c #840000",
"t. c #8B0101",
"y. c #960000",
"u. c #9C0000",
"i. c #A80101",
"p. c #B10202",
"a. c #CD0202",
"s. c #1F8113",
"d. c #208514",
"f. c #218C14",
"g. c #258C1A",
"h. c #2B8617",
"j. c #229314",
"k. c #239C15",
"l. c #279B1E",
"z. c #27941A",
"x. c #25A415",
"c. c #26AE15",
"v. c #29AA19",
"b. c #27B116",
"n. c #28B517",
"m. c #29BA17",
"M. c #29B418",
"N. c #2ABC18",
"B. c #269322",
"V. c #2D8333",
"C. c #2AA222",
"Z. c #42873A",
"A. c #2AC118",
"S. c #4F8749",
"D. c #609559",
"F. c #5CA754",
"G. c #6E9B6D",
"H. c #5D7A82",
"J. c #657C81",
"K. c #697E83",
"L. c #737E83",
"P. c #6C8186",
"I. c #6D8789",
"U. c #74868A",
"Y. c #75898D",
"T. c #768488",
"R. c #7A8D92",
"E. c #7C9194",
"W. c #809397",
"Q. c #829499",
"!. c #879A9E",
"~. c #9C9D9C",
"^. c #889A87",
"/. c #9BA49A",
"(. c #899CA1",
"). c #8DA3A8",
"_. c #94A6AA",
"`. c #95A8AC",
"'. c #95A7AB",
"]. c #9AADB2",
"[. c #9EB1B5",
"{. c #A2A8A4",
"}. c #A2B5B9",
"|. c #A9BCBF",
" X c #A3B5B9",
".X c #AEB7AD",
"XX c #BDC0BC",
"oX c #C0C1BF",
"OX c #ABBEC2",
"+X c #AEC1C5",
"@X c #AEC4C8",
"#X c #B2C6CA",
"$X c #B3C6CB",
"%X c #BACFD3",
"&X c #BCD1D5",
"*X c #BFD4D8",
"=X c #C1D6DA",
"-X c #C7DADE",
";X c #CCD2D3",
":X c #C9DDE1",
">X c #CFE3E7",
",X c #D6E9EC",
"<X c #D5E7EA",
"1X c #DEEDF0",
"2X c #E9EDEE",
"3X c #FBFCFD",
"4X c #E3F0F2",
/* pixels */
"c.b.c.c.c.j.C s.c.c.d.x.j.x.c.c.c.c.c.b.c.c.k.k.j.x.j.j.b.V f.c.c.j.c.s.c.x.j.b.c.c.c.b.c.c.c.c.b.c.",
"c.c.k.c.c.k.c.b.c.c.k.j.k.c.c.c.b.c.c.c.c.c.f.f.n.j.f.x.j.V f.d.V b.c.c.C n.j.c.c.c.k.c.b.c.b.c.b.c.",
"c.k.k.f.x.V C c.c.c.C b.f.j.s.j.k.x.b.c.c.f.x.j.c.x.d.f.j.j.x.f.c.k.b.s.C b.c.c.c.c.V f.c.c.c.c.c.c.",
"c.j.b.C f.f.c.s.c.f.x.x.V j.c.k.V c.f.c.c.d.c.j.d.m.f.c.d.c.c.d.A.s.s.n.C b.c.b.c.c.C b.j.c.c.k.j.c.",
"x.s.c.s.c.f.j.m.j.f.x.j.f.d.s.j.j.j.b.j.j.c.@ 9 w t b x.m.f.k.c.k.V k.c.s.b.c.k.c.b.s.x.k.k.c.j.C k.",
"j.k.s.x.f.x.j.b.c.x.c.k.f.s.c.c.c.j.b.j.f.x.b t u y g n c.x.C x.V k.b.k.n.c.c.V k.c.b.s.x.s.x.s.s.k.",
"c.f.x.s.x.c.b.c.c.c.c.c.f.x.f.c.j.x.n.c.s.c.x.# a s 0 g c.c.x.b.k.c.c.b.b.b.n.C k.k.c.s.b.s.s.x.c.f.",
"c.c.b.c.c.b.x.c.c.c.c.c.f.j.b.s.f.x.j.f.s.s.x.c.b q a u o ] g.c.c.b.c.x.s.c.c.C s.k.k.s.c.C j.C C x.",
"b.b.c.c.c.c.C k.c.c.c.j.j.f.x.C j.c.s.k.s.M.j.x.n h r x 6 ). .I B.c.c.C M.j.k.n.d.n.j.c.k.d.f.b.c.c.",
"c.c.j.s.j.c.C k.j.c.x.f.x.k.x.x.n.s.n.c.k.s.n.j.j.m 2 ..1.3X1...V.k.v.k.v.C f.A.d.c.c.b.b.c.b.b.c.c.",
"b.j.j.x.j.C V c.x.k.s.c.k.k.c.k.C c.s.n.s.x.n.c.P _ H.*X,X3X3X1XI.] ) x.V s.n.s.x.b.c.k.f.c.b.j.k.c.",
"b.c.j.C f.x.x.s.x.f.s.k.k.d.j.C s.N.C f.M.s.v.I 7.P.(.$X-X4X4X,X@X).I.I s.n.s.c.x.c.c.d.x.x.x.k.f.b.",
"c.c.c.c.x.f.f.x.C f.x.j.c.d.s.C j.n.V s.n.C s.) J.(.[.+X&X>X<X>X>X-X).| x.x.V m.k.x.c.k.k.s.j.b.j.c.",
"c.b.j.x.c.c.c.x.f.j.x.C k.j.x.d.n.s.j.f.b.C ) 4.Y.`.+X+X&X&X&X&X&X$X].2.; s.x.s.b.j.s.x.C f.x.j.c.c.",
"c.j.j.C c.c.x.V d.b.f.x.j.k.s.k.k.m.s.n.s.J E.J.P.(.|.+X#X&X&X&X$X[.w.$. X| c.c.c.d.x.x.f.c.c.c.c.c.",
"c.j.k.f.x.x.j.C k.x.m.j.c.f.c.c.c.b.b.b.k.R ].I.J.E.}.OXOX&X$X@X[.E.:.,.2X] C x.f.k.c.c.b.c.c.c.c.c.",
"c.x.f.c.V f.m.C b.c.c.c.c.c.c.b.c.b.c.k.j.R ].I.J.R.`.[. XOX`.U.` : >.1X2X] B.s.x.b.c.x.k.b.c.c.c.b.",
"c.c.s.n.x.j.f.x.c.c.c.c.c.c.c.c.c.s.c.j.z.< (.J.J.E.'.'.!.P.[ ! U.}.$X,X<X;X .l.b.b.b.s.x.k.c.c.c.c.",
"c.c.c.b.c.x.f.x.c.k.k.c.f.j.c.c.s.m.C j.U ` R.J.5.R.).(.J.;.[ [ `.>X>X:X+X3X..U x.c.x.j.x.s.d.s.j.c.",
"c.x.x.c.c.f.m.V j.C d.j.C f.j.x.j.m.C k.% OXJ.J.K.Y.W.P.: : @X*X*X*X*X[.R <X! C.f.x.C b.j.s.j.j.j.x.",
"c.j.C x.k.f.m.C c.f.C k.f.x.x.C j.s.k.x.* ].5.J.K.Y.q./ 3.R.}.}.q.P.+X[.R >X_ D n.j.j.x.V C j.k.x.c.",
"c.j.x.f.k.j.s.x.j.k.x.V V V x.d.c.s.s.j.$ ).q.H.K.w.:./ P._.].[.:.3.OX[.4 >X_ l.b.c.c.c.c.x.b.b.b.c.",
"c.k.j.n.j.x.C j.j.c.c.f.k.k.k.k.c.c.c.s.= `.H.6.w.@.! 4.P.'. X].;.2.OX[.R =X_ C.c.c.k.c.b.c.b.x.x.b.",
"c.c.j.j.x.x.C k.k.c.j.k.k.s.j.k.j.x.Z @ R _ > *.w.@.! 4.P.Q.Q.].2.5.OX[.` =X_ B.b.c.C j.c.c.x.j.j.x.",
"b.c.f.x.f.c.C b.k.k.C b.j.j.C F A F M 2 *.*.[ { 2.=.` ..>.R.E._.J.P. X[.2.=X_ S x.c.C x.f.c.c.f.k.x.",
"b.c.f.m.C f.C f.c.k.x.j.V V x.c.m 8 X ` !.W.].^ { 2.*.: > K.E.Q.W.Q.!. X}.=X_   N k.d.c.x.j.V V C k.",
"j.j.j.c.V f.k.k.j.c.c.d.k.j.@ g r.f ` :.> ].:XO.= = * $ $ = : 3.K.Y.W.!.`.^ G.3 c f.c.j.m.d.s.d.x.x.",
"x.f.x.f.V j.C k.c.c.c.h.m M p u i x =.5.$.<.K.@.! ^ ^ ^ ' ' ^ ' ' +.#.=.,. .j.O c s.d.d.j.s.c.f.x.A.",
"c.c.c.c.x.c.c.x.b.c.b.h.8 8 u.u.e ! 4.P.R.$ $ *.6.6.6.4.K.K.6.> % $ $ * ; ^.Z.O c V k.x.c.c.c.c.c.b.",
"c.c.c.b.c.c.c.C k.b.h.w i.y.a a o * ^ U.= E R :.J.K.Y.)._.OXU.6.E G Z.S.&./.Z.O V x.f.c.c.c.c.c.c.c.",
"c.c.b.f.f.k.c.C j.h.Y s u.r.r.w Q <.>.' $ l l X...*.;.6.6.J.=._ ( %.9.8.G.~.D.3 c N x.x.k.c.c.b.c.b.",
"c.c.j.j.k.f.C C b.A q i.y.a r.X >.).T.- $ t.t.z E E E E E E E = o.8.8.8.9.{..X3 N f.x.f.k.x.c.c.c.c.",
"c.c.c.s.C f.x.x.# p u.r.a r.s X w.$X4X;X$ % $ p t.u.i.p.a.a.p.X : T E *.9.{..X7 S f.k.f.x.k.c.c.b.c.",
"b.x.x.c.c.k.V n k r.t.s r.r.s i x :.e.8.' ' +.z e e e r r r r & E E ` L.-./.;X3 S j.V c.j.x.c.c.c.c.",
"b.f.C c.c.c.F b s u.r.s t.s s r.e $ % - 2.1.q.5 = = - > > % $ % W W ' (.{ /..X6 F s.j.k.f.c.c.b.c.b.",
"c.f.x.s.c.j.o r.y.s a r.s s r.r.r.s a y $ $ $ :.K.W.].#XOX4.= W o.4 W K.= F.O x.N x.s.c.x.c.c.c.c.c.",
"c.k.j.m.f.f.n j y u r.s r.r.r.s s a q X * 5 * 4 E ^ O.+.+.R   - > = R ,.* j.  h.j.x.C s.x.c.x.d.c.b.",
"c.c.s.f.c.f.f.m @ w s s r.r.s d p i e = = X.= = - > > > $ > 1 % $ $ 4 ;.+ F + S x.j.V m.j.k.b.s.c.c.",
"c.c.d.x.f.f.x.C d.A 8 9 s s a 7 ~ , 4 o.X.-.- O.e.L.T.T.% ~.~.E : T R H v.. l.x.f.x.x.c.V j.N.d.c.c.",
"c.c.f.x.b.f.c.V V d.h.A 0 0 7 =.q.@., X.#./ L , 5 O.0.0.-.W W ~.=./ %.C.S.  D b.x.V x.V f.c.d.c.c.c.",
"c.c.c.f.b.x.j.k.f.k.j.z.g @ 5 ,.K.=.T ' =.J C G ; H +.#.0.$ E `.<.( %.F.^.+ v.c.x.k.c.j.c.c.b.c.c.c.",
"x.k.c.c.b.k.k.f.j.x.x.f.x.f.H 2._ T E R ~ v.c.c.b.N $ - -.$ #X' > * v G.O c.c.b.b.j.x.b.c.j.c.c.b.c.",
"x.V k.c.c.f.m.C j.F s.x.b.x.H _ ,.=.H B s.c.c.c.d.S c L > $ I.! G g.F K c f.c.c.k.k.f.b.j.V x.b.b.b.",
"x.j.k.k.k.f.n.V d.x.c.f.c.x.~ [ 2.&.L j.z.k.V N j.c.z.V + $ *.H z.C V v d.x.j.c.j.c.s.j.x.j.x.c.x.c.",
"x.f.c.k.f.k.k.V j.s.V b.k.k.H ,...P d.f.b.k.j.s.f.N N x.z.: : C m.V f.j.j.c.x.d.s.x.V f.x.k.c.x.s.j.",
"f.x.c.b.k.c.k.k.j.x.C x.f.A.V | E H P d.x.b.V s.F k.x.s.b.j.B k.f.k.f.s.d.x.j.V x.s.j.f.k.x.c.k.j.b.",
"b.f.c.c.b.b.b.s.j.k.A.s.s.C x.V.I P U x.k.x.s.k.k.C s.k.c.k.f.c.s.b.c.x.c.c.C c.f.c.c.f.x.j.f.c.C k.",
"n.x.k.k.j.x.c.V j.x.c.x.x.s.j.k.c.k.j.c.s.x.s.k.c.c.b.c.x.b.c.c.c.c.b.k.c.b.f.k.c.j.j.c.s.C c.k.k.s.",
"c.c.k.f.j.f.f.C c.j.x.f.c.d.b.j.x.C c.j.d.d.j.j.c.c.c.k.k.j.k.x.c.c.c.V j.b.b.k.b.s.j.k.C x.c.j.b.b.",
"c.b.x.s.C f.c.k.j.b.d.s.k.j.d.b.f.k.x.V V x.x.x.c.c.c.s.m.V k.d.c.b.c.C x.j.c.c.b.x.c.c.x.b.b.b.c.b."
};
