/* XPM */
static char *pl_mv_lf_1[] = {
/* columns rows colors chars-per-pixel */
"50 50 207 2 ",
"   c #161B16",
".  c #38090A",
"X  c #2E1416",
"o  c #381619",
"O  c #1C3519",
"+  c #192817",
"@  c #3B2B0A",
"#  c #2E3212",
"$  c #1D1E22",
"%  c #2A1D22",
"&  c #321D21",
"*  c #142226",
"=  c #132C25",
"-  c #142429",
";  c #1A252A",
":  c #1A382B",
">  c #1B2D33",
",  c #1B3437",
"<  c #1C3239",
"1  c #39282C",
"2  c #202F34",
"3  c #243136",
"4  c #24343A",
"5  c #2B393E",
"6  c #2B3539",
"7  c #2E2D32",
"8  c #460202",
"9  c #4E0000",
"0  c #540000",
"q  c #5C0000",
"w  c #580D0B",
"e  c #491618",
"r  c #5A1819",
"t  c #4A150A",
"y  c #630000",
"u  c #6C0000",
"i  c #600D05",
"p  c #730000",
"a  c #7B0000",
"s  c #68160D",
"d  c #4A2F0C",
"f  c #442E31",
"g  c #1B4916",
"h  c #1F4B1A",
"j  c #1D4218",
"k  c #1E5C16",
"l  c #3B570E",
"z  c #344A12",
"x  c #345A10",
"c  c #2D5516",
"v  c #1D6C13",
"b  c #1D6917",
"n  c #1D7413",
"m  c #1E7B13",
"M  c #236A18",
"N  c #376B12",
"B  c #217B1C",
"V  c #267817",
"C  c #377713",
"Z  c #1C4628",
"A  c #1D522A",
"S  c #1F5D2A",
"D  c #1F4036",
"F  c #235524",
"G  c #274B3C",
"H  c #354535",
"J  c #2A5B3B",
"K  c #28523C",
"L  c #236A25",
"P  c #206229",
"I  c #237923",
"U  c #28792E",
"Y  c #296934",
"T  c #2C7835",
"R  c #4B5713",
"E  c #263C42",
"W  c #2B3C42",
"Q  c #323E43",
"!  c #2C4146",
"~  c #2A4348",
"^  c #274744",
"/  c #344245",
"(  c #33454B",
")  c #3A454A",
"_  c #34494E",
"`  c #3C4649",
"'  c #295440",
"]  c #2D5749",
"[  c #315C49",
"{  c #3C4E53",
"}  c #364B50",
"|  c #3E5156",
" . c #3C5359",
".. c #305253",
"X. c #2F4850",
"o. c #2D6642",
"O. c #336853",
"+. c #327243",
"@. c #345660",
"#. c #42494C",
"$. c #44474A",
"%. c #534E52",
"&. c #43565C",
"*. c #485357",
"=. c #555657",
"-. c #404E53",
";. c #604E4E",
":. c #615F5F",
">. c #446259",
",. c #62765F",
"<. c #455B60",
"1. c #495D63",
"2. c #535F63",
"3. c #4C6166",
"4. c #4D6368",
"5. c #53666A",
"6. c #536A6E",
"7. c #576566",
"8. c #566D72",
"9. c #5A6F74",
"0. c #5D7376",
"q. c #5E7479",
"w. c #646766",
"e. c #62767B",
"r. c #64797E",
"t. c #6C777C",
"y. c #747978",
"u. c #840101",
"i. c #8D0000",
"p. c #940101",
"a. c #9A0202",
"s. c #970B0A",
"d. c #A30303",
"f. c #A90607",
"g. c #B80607",
"h. c #8A7676",
"j. c #1F8113",
"k. c #208514",
"l. c #218C14",
"z. c #268618",
"x. c #229314",
"c. c #239C15",
"v. c #29921B",
"b. c #348516",
"n. c #25A415",
"m. c #26AE15",
"M. c #2AA41A",
"N. c #27A818",
"B. c #27B216",
"V. c #28B517",
"C. c #29BA17",
"Z. c #29B518",
"A. c #2ABC18",
"S. c #278724",
"D. c #318B2F",
"F. c #45843E",
"G. c #2AC118",
"H. c #5A8355",
"J. c #4F8C47",
"K. c #658571",
"L. c #568F66",
"P. c #677C81",
"I. c #697E82",
"U. c #6E8287",
"Y. c #718589",
"T. c #76898E",
"R. c #77878B",
"E. c #7A8D91",
"W. c #778B90",
"Q. c #7E9195",
"!. c #7D9398",
"~. c #6E9087",
"^. c #809397",
"/. c #829599",
"(. c #85999D",
"). c #889B9F",
"_. c #839E90",
"`. c #93A99F",
"'. c #8B9FA3",
"]. c #8DA2A5",
"[. c #8FA4A9",
"{. c #92A6AB",
"}. c #95A9AE",
"|. c #98AAAE",
" X c #91A3A7",
".X c #9AAEB2",
"XX c #9EB1B5",
"oX c #9FB4B8",
"OX c #A3B6BA",
"+X c #A4B9BD",
"@X c #A8BABE",
"#X c #A3B7B5",
"$X c #AABDC2",
"%X c #AFC2C7",
"&X c #B5C9CD",
"*X c #B3C3C7",
"=X c #BACFD3",
"-X c #BED2D6",
";X c #BFD4D8",
":X c #C4CED1",
">X c #C5D8DC",
",X c #CCE0E4",
"<X c #D1E4E8",
"1X c #D7E6E9",
"2X c #E0EEF0",
"3X c #E6F1F2",
"4X c #F4F7F7",
/* pixels */
"m.B.m.m.m.x.m j.m.m.j.m.x.c.m.m.m.m.m.B.m.m.c.c.x.n.x.x.B.n l.m.N.x.m.l.n.n.c.m.m.m.m.m.m.m.B.B.m.m.",
"m.m.c.m.m.c.m.B.B.m.x.x.c.B.m.m.B.m.m.m.m.m.l.l.Z.x.l.n.x.n l.k.m B.m.n.m C.c.m.m.m.c.m.m.m.m.m.B.m.",
"m.c.c.l.n.n m m.B.B.m V.x.j.j.x.x.m.B.m.m.l.c.x.m.n.l.l.x.x.n.l.n.c.m.k.j.m.m.m.m.m.m l.m.m.m.m.m.m.",
"m.x.B.m l.l.m.j.m.j.n.m.n x.B.n.n V.j.m.m.k.B.x.k.C.k.m.k.m.m.k.C.k.l.C.m m.m.m.m.m.m m.x.m.m.c.x.m.",
"n.j.m.j.m.l.x.Z.j.x.n.x.x.j.m x.x.x.V.x.c.m.x.n n.n.x.n.C.l.c.N.c.n c.m.l.m.m.c.m.m.l.c.c.x.m.x.m x.",
"j.n.j.n.l.n.c.B.m.n.m.x.j.j.m.B.m.x.V.x.j.n.n n.B.x.m.c.m.n.j.n.n c.m.x.B.m.B.n c.m.m.k.c.l.n.j.j.n.",
"m.x.n.j.n.m.m.m.m.m.m.m.x.n.j.B.x.n.V.m.m C N C C C n.n.m.N.n.B.n.m.B.B.m.m.m.m n.c.m.j.B.l.m n.m.x.",
"B.B.m.m.m.B.n.m.B.m.m.m.x.x.V.j.j.m.x.j.x 8 0 q 0 d n.l.j.m x.m.m.m.m.n.l.n.m.m k.x.c.j.n.j.x.m m n.",
"m.B.m.m.m.m.m c.m.m.m.x.x.j.N.m x.N.T H t u p a t c.x.m x.n.k.n.c.m.m.m B.x.c.m.k.C.x.m.c.k.l.m.m.m.",
"m.m.x.j.x.m.j.c.x.m.n.l.M.c.m.n.D.T L.7.f r q w x n.m m x.x.j.n.n.x.m.c.m.m x.C.k.m.m.B.m.m.m.m.m.m.",
"B.x.x.n.x.m n m.n.c.j.m.x.c.B.n.o.@.].#X .Q . @ m.m.n.n.m.m.n.l.m.n.m n.n l.n.l.n.m.B.c.x.m.m.c.c.m.",
"B.m.x.m k.n.n.j.n.l.j.c.n.j.o...].1X4X3X;X].X.] c.m.B.m.m.m.B.m.m.c.c.m.l.m.j.m.n.m.m.k.n.c.n.n.x.m.",
"m.m.m.m.n.l.l.n.m l.n.x.m.U K.!.&X1X3X1X-X.XP.6.Y x.m.m.m.n.n.m.B.n.n.m.m.n.n B.c.n.m.c.c.j.x.B.x.m.",
"B.m.x.n.m.m.m.n.k.x.n.j.x.[ {.>X<X<X<X,X&X+X].U.[ m m.B.m.l.c.n.n.m x.m.m.l.n.l.B.x.j.n.m l.n.x.n.m.",
"m.x.x.m m.m.n.n l.B.l.n.A 6.}.&X=X=X=X=X&X$XXXQ.q.] x.n.m.x.c.x.l.n.n n.c.l.m.m.m.l.n.c.l.m.m.m.m.m.",
"m.x.c.l.n.n.x.m c.n.C.Y Q.7.U.XX&X=X=X&X%X$X{.U.q.~.Y x.c.n.j.j.m.c.n.x.x.c.j.n.l.c.m.m.m.m.m.m.m.m.",
"m.n.l.N.n l.A.m m.B.B.O.:XY.5.E.oX%X&X%X@XOX'.r.I.|.^ j.x.c.j.n.m.c.x.m.c.c.c.l.c.B.m.n.c.m.B.m.m.B.",
"m.B.k.B.n.x.l.n.m.B.B.O.:X2X5.> <.!.XX+X#X|.).r.I.|.^ N.B.m.m.B.m.m.m.m.B.n.k.n.m.m.m.l.c.c.m.m.m.m.",
"m.m.m.m.B.n.l.n.m.c.+.#X<X1X$XoX0.} 8.E.'.{.).r.P.(., m.c.c.j j n.n.m.B.c.n.m k.n.m.c.x.n.l.j.j.x.m.",
"m.n.n.B.m.l.C.n x.m ..>X$X;X,X,X!.4.1.5.Y.'./.r.e.T.>.z.j.b j O M z.x.l.l.x.n B.x.n.m B.x.j.l.x.x.n.",
"m.x.m n.n.l.C.n m.l.G &X4.{.;X>X>X-XU.> &./.W.I.P.P.#X= k.  l.n.+ k.v c.m k.x.l.B.x.x.n.n m c.c.n.m.",
"m.x.n.l.x.x.j.N.x.x.K %X1.[.$Xe.W.OX XU.1.<.W.P.r.e.'.* + B K.,.v.h k.m.k.m.m.m.m.m.m.m.m.n.B.B.B.m.",
"m.c.x.B.x.n.m x.x.m.K $X1.[.@X5.P..X|./.6. .9.P.q.e.(.- 3 D.7.:.F.c M m m.m.m.B.m.m.c.m.B.m.B.n.n.B.",
"m.m.c.l.m.c.m c.c.B.' +X1.[.@X1.P.XX|./.e.<._ P.8.r.(.- | | ^ $.w.,.O k.m.m.m.m.B.m.m x.m.m.n.x.x.n.",
"m.m.l.n.l.m.m B.c.c.' OX8.{.+X8.I.'./.W.P.<.Q P.8.q.E.2 >X|.r.3 $.w.y.H k.B.m.m.m.m.m n.x.m.n.l.c.n.",
"m.m.l.C.m l.m l.m.x.' OX!..X.XI.E.'.E.q. .} <.P.0.P.*.e h.6.-.5 6 =.y.=.M x.B.c.k.n.j.m.n.x.n n n n.",
"c.x.x.m.n l.x.c.c.m.K #XOX.X'.^.^.Q.R.1.< E 8.8.0.I.; p 8 $ * ` ; ` w.y.6 n n.l.l.l.m.c.C.k.j.l.n.n.",
"n.l.n.l.n c.m c.m.m.m.K !.'.E.Y.I.{ W @.E - - - - % u.a u.8 8 $.; W $.w.F.g k n.l.j.j.k.x.j.n.x.n.G.",
"m.m.m.n.n.m.n.n.m.m.m.S.>.&.-.` Q Q P.'.8.2 t s w w u.a a u y e . W #.:.D.O g c.m n x.n.m.n.m.m.m.B.",
"m.m.m.m.m.B.m.m n.B.m.m.P : , > > E !.$XU.7 w p.u.a u.a a u.a 0 0 7 $.:.H.k g j.c.m.l.B.m.m.m.m.m.m.",
"m.B.m.x.l.c.m.m x.n.B.c.c.l.o.&.E < P.'.5.W %.q d.u.p u.a a u.u.a 0 8 ;.J.h g k.j.n n.n.c.m.m.B.m.m.",
"m.m.l.c.c.l.m m B.x.n.k.B.T  Xe.E <.5.8.5.> 4 X u p.u.p u.a a u.u y y r d % g v x.l.c.l.n.n.m.m.m.B.",
"B.m.m.j.m l.n.n.x.C.m j.l.J *XU.| q.5.| %.o o e p u.p.a u.a a a u p p q 0 . # b.C N b.l.n.c.m.m.m.m.",
"m.n.n.m.m.c.n x.c.m.x.n.l.J oXt.0.R.q.| e i.a.g.g.0 d.p.p u.u.a a u p a p 0 9 0 0 9 @ m.x.n.m.m.B.m.",
"m.x.j.m.m.m.m C.l.m.m.c.m Z E.(.&.&.| > ; % % & 1 %.y d.i.p p u.a p u y u u u u q d z.c.j.m.m.B.m.m.",
"m.x.n.j.m.x.x.m n n n.c.x.b 7.0.! 5 _ ( { { ( W ( ` . u.f.u.u.a a a u u y q q y t C k.m.m.m.m.m.m.m.",
"m.c.x.C.l.l.n C.j.j.n j.x.C.Z * * * _ r.^.W.r.8.3.; $ 9 g.f.s.p p p a p q 8 8 0 l m.m l.m.B.m.j.m.m.",
"m.m.j.l.m.l.l.V.m B.m x.l.l.n.n B b L > 2 > > > > ) / $ 0 0 g.d.p.a p p p p u q z j.n C.j.c.B.j.B.m.",
"m.m.j.n.l.l.c.j.j.c.x.c.j.n.j.z.P S.F 3 2 2 | { ) *.*.6 f X a a d.p.u.p p p u d M n.n.m.n x.A.j.m.m.",
"m.m.l.n.m.x.n.m n x.m.m.x.Z.m S , J D.( 5 Q t.t.2.3.2.#.` ; 8 8 f.f.a.u.u p y N n.n n.m j.B.j.m.m.m.",
"m.m.B.l.B.n.x.n.j.N.c.c.j.C.n A 8.6.~ ( #./ > - - 4 t.7.` ; E.P.t 8 f.f.a p y N c.n.m.l.m.m.m.B.m.B.",
"n.c.m.m.B.x.n.j.j.m.N.j.n.x.n A X.5. .W / G I m B L ) 5 4 ; &.[.1 c s s.p.a y N B.x.m.m.m.x.m.m.m.B.",
"n.n n.m.B.k.C.m c.m j.m.m.n.c.P , 3.3.5 / P N.m.k.b = = = - E XX4 x.# s.d.a w N c.c.l.m.x.v n.B.B.m.",
"n.l.x.c.c.x.B.n j.m.m.j.m.n.m B.P <. .< A c.n v x.m.x.B c.~ <XE - b x.d s.a l m.x.m.k.x.n.l.m.m.n.m.",
"n.l.m.c.j.n.x.m x.j.n B.c.n.m B.B Y E Z v.c.l.l.l.v v n.c.I 0.'.4 b l.b.s R c.l.j.n.n l.n.c.m.n.j.x.",
"l.n.m.B.n.m.n.x.x.n.m n.j.G.m m.j.m K L N.m.n m B c.n.l.m.S.~ '.G k.j.j.z b.c.n n.k.l.l.c.n.m.c.x.B.",
"B.l.m.m.B.B.m.m x.n.G.j.x.m n.m.m.j.k.n.c.n.k.x.c.m m c.m., ~ ~ m m.m.m.m.m.m B.l.n.m.l.n.x.l.m.m c.",
"B.n.c.c.x.n.m.n x.n.B.c.c.j.j.n.B.c.x.n.l.n.l.c.m.m.m.m.c.n.N.m.m.B.m.c.m.m.x.c.m.x.c.N.l.V m.c.c.j.",
"B.m.c.l.x.l.l.m B.x.n.l.m.j.B.c.n.m B.l.j.l.l.x.m.m.m.c.c.x.c.n.m.m.m.m x.m.B.x.Z.j.x.c.m n.m.x.B.m.",
"m.m.n.j.m l.n.n.x.V.j.j.x.c.k.B.l.c.n.n m c.n.n.m.m.m.j.C.n c.k.m.m.m.m n.x.m.B.B.n.m.m.m.B.m.m.B.m."
};
