/* XPM */
static char *pl_dd_1[] = {
/* columns rows colors chars-per-pixel */
"50 50 216 2 ",
"   c #1D1C1C",
".  c #2D161A",
"X  c #3D161A",
"o  c #34181C",
"O  c #390C09",
"+  c #182617",
"@  c #3B2908",
"#  c #3B3B09",
"$  c #383417",
"%  c #1F1F25",
"&  c #351C20",
"*  c #132226",
"=  c #15232A",
"-  c #18262C",
";  c #19282E",
":  c #152B28",
">  c #143523",
",  c #18342B",
"<  c #1A2D34",
"1  c #172D33",
"2  c #1C3036",
"3  c #1E343A",
"4  c #212529",
"5  c #212E33",
"6  c #2C2E33",
"7  c #3E2D30",
"8  c #223137",
"9  c #24353B",
"0  c #23393D",
"q  c #28393F",
"w  c #2C3237",
"e  c #333135",
"r  c #342126",
"t  c #450301",
"y  c #430E04",
"u  c #530000",
"i  c #590706",
"p  c #461B06",
"a  c #42191D",
"s  c #481417",
"d  c #521618",
"f  c #660202",
"g  c #6B0101",
"h  c #69090A",
"j  c #740000",
"k  c #7B0000",
"l  c #720A0C",
"z  c #6B1A10",
"x  c #492809",
"c  c #4E3509",
"v  c #433438",
"b  c #4F2226",
"n  c #17471C",
"m  c #1C561D",
"M  c #39470B",
"N  c #3F5D0F",
"B  c #20411D",
"V  c #325715",
"C  c #1D6B16",
"Z  c #1D7413",
"A  c #1E7B13",
"S  c #1E721A",
"D  c #2D720F",
"F  c #256912",
"G  c #207617",
"H  c #21731A",
"J  c #227B1C",
"K  c #207E17",
"L  c #32690F",
"P  c #174920",
"I  c #174621",
"U  c #195422",
"Y  c #1B4130",
"T  c #255239",
"R  c #285A38",
"E  c #29432F",
"W  c #1E6921",
"Q  c #256D29",
"!  c #297E2C",
"~  c #237721",
"^  c #27693B",
"/  c #42460C",
"(  c #2B3E44",
")  c #253D44",
"_  c #353F43",
"`  c #463C43",
"'  c #2A434A",
"]  c #2A4046",
"[  c #32454B",
"{  c #3D484D",
"}  c #374246",
"|  c #2C4C54",
" . c #3B4D53",
".. c #374B50",
"X. c #3C5056",
"o. c #3E5258",
"O. c #35575C",
"+. c #305844",
"@. c #386554",
"#. c #2C6A45",
"$. c #41494C",
"%. c #425F4E",
"&. c #44565C",
"*. c #43595E",
"=. c #445155",
"-. c #525256",
";. c #47714E",
":. c #475C61",
">. c #4A5D63",
",. c #555E62",
"<. c #4B6166",
"1. c #48636A",
"2. c #546165",
"3. c #526469",
"4. c #53686D",
"5. c #5A6A6E",
"6. c #597668",
"7. c #4B6A73",
"8. c #576E73",
"9. c #596D72",
"0. c #5C7176",
"q. c #5D7479",
"w. c #5F787A",
"e. c #4E7963",
"r. c #616262",
"t. c #62757A",
"y. c #64797E",
"u. c #69777B",
"i. c #717578",
"p. c #656D71",
"a. c #830000",
"s. c #8B0000",
"d. c #850808",
"f. c #940000",
"g. c #9C0404",
"h. c #A20000",
"j. c #A90505",
"k. c #C0090A",
"l. c #1F8113",
"z. c #208513",
"x. c #218C14",
"c. c #22851A",
"v. c #228C1A",
"b. c #2D8F14",
"n. c #229314",
"m. c #239C15",
"M. c #25921B",
"N. c #269C1B",
"B. c #299818",
"V. c #348C17",
"C. c #25A415",
"Z. c #26AE15",
"A. c #28A21D",
"S. c #28A819",
"D. c #27B216",
"F. c #28B517",
"G. c #29BA17",
"H. c #29B518",
"J. c #2ABB18",
"K. c #28822A",
"L. c #2B982A",
"P. c #2C8633",
"I. c #2AC118",
"U. c #3D954B",
"Y. c #46825C",
"T. c #618A7A",
"R. c #75B77C",
"E. c #5F7B83",
"W. c #667C81",
"Q. c #697D82",
"!. c #6A8288",
"~. c #72858A",
"^. c #75898D",
"/. c #7C878A",
"(. c #7B8E92",
"). c #7E9195",
"_. c #7C9B97",
"`. c #809397",
"'. c #829599",
"]. c #869A9E",
"[. c #939596",
"{. c #87A48F",
"}. c #8A9EA2",
"|. c #839CA2",
" X c #8EA1A6",
".X c #92A3A7",
"XX c #93A5A9",
"oX c #96A9AD",
"OX c #9AABAF",
"+X c #9BAEB2",
"@X c #9DB0B4",
"#X c #9FB6BB",
"$X c #A2B5B9",
"%X c #A6B9BD",
"&X c #A4B7BB",
"*X c #B5B8B9",
"=X c #ABBEC2",
"-X c #B7BEC0",
";X c #AEC0C5",
":X c #AFC4C8",
">X c #B2C6CA",
",X c #B6CACE",
"<X c #B4C3C7",
"1X c #BACED2",
"2X c #BDD2D6",
"3X c #BFD4D8",
"4X c #C1D5D9",
"5X c #C6DADD",
"6X c #C2C8C9",
"7X c #CBDFE3",
"8X c #CDE1E5",
"9X c #D6E8EC",
"0X c #D9E8EB",
"qX c #E0EEF1",
"wX c #FCFDFD",
"eX c #E9F0F1",
/* pixels */
"Z.D.Z.Z.Z.n.A z.Z.Z.z.C.n.C.Z.Z.Z.Z.Z.D.Z.Z.m.m.n.C.n.m.Z.Z x.C.Z.n.Z.l.Z.C.n.D.D.D.Z.Z.Z.Z.Z.Z.Z.Z.",
"Z.Z.m.Z.Z.m.Z.Z.Z.Z.m.n.C.Z.Z.Z.D.Z.Z.Z.Z.Z.n.x.D.n.x.C.n.Z x.x.Z D.Z.C.A G.n.Z.Z.Z.n.D.Z.Z.Z.Z.Z.D.",
"Z.m.m.x.C.Z A Z.Z.Z.A F.x.x.l.n.m.C.D.Z.Z.x.C.n.C.C.x.n.n.n.C.x.C.m.D.x.l.Z.D.D.Z.D.A l.Z.Z.D.D.Z.Z.",
"Z.n.D.A x.n.C.z.Z.x.C.C.Z n.Z.m.Z Z.x.Z.Z.l.Z.x.x.G.x.C.x.Z.Z.M M # c N A D.Z.Z.D.D.A D.n.Z.Z.m.n.Z.",
"C.l.Z.l.Z.x.n.H.n.x.C.n.x.x.A n.n.n.D.n.m.Z.x.A C.C.n.C.D.l.n.p u u i x l.D.D.m.Z.Z.z.C.m.n.D.n.A n.",
"x.C.l.C.x.C.m.D.C.C.Z.m.x.l.Z.Z.Z.n.D.n.l.C.Z C.D.n.D.C.N.O.O g a.g M n.D.Z.D.Z m.D.D.z.m.x.C.l.l.C.",
"Z.n.C.l.C.Z.Z.Z.Z.Z.Z.Z.x.m.z.D.n.C.F.Z.x.Z.C.Z.D.l.L.#.e.<X_ ` d / n.D.D.D.D.A m.m.Z.l.D.l.l.C.D.n.",
"Z.Z.Z.Z.Z.D.C.Z.Z.D.Z.Z.x.m.D.l.x.C.n.x.A l.C.Z.A.c.U.7.!.wX7.7.7 V S.C.l.Z.D.Z l.n.m.l.C.l.n.A A C.",
"Z.Z.Z.D.Z.Z.A m.Z.Z.Z.n.n.x.C.A n.Z.z.m.K D.n.C.#.| |.qXwXwX9X4XE.| #.A G.n.m.Z.x.F.n.Z.m.z.x.Z.Z.Z.",
"Z.Z.n.l.n.Z.A m.n.Z.C.x.C.m.Z.C.Z.x.Z.Z.m.v.D.^ _.#X2X9XqX0X4X>X}.~.6.^ Z.Z n.I.l.Z.Z.D.Z.Z.Z.Z.Z.Z.",
"D.n.n.C.n.A Z Z.C.m.z.Z.n.m.Z.m.Z Z.z.Z.x.m.N.O.+X5X8X8X8X8X2X;X@X}.W.@.~ l.Z.l.C.Z.D.m.n.Z.Z.m.n.Z.",
"Z.Z.n.A x.C.C.l.C.x.A m.m.z.n.l.x.J.K x.D.G 1 W.@X,X1X1X2X1X1X;X=XoX(.0.| Z.A Z.C.D.Z.z.C.m.C.C.n.Z.",
"D.Z.Z.Z.C.x.x.C.A n.C.n.Z.z.l.A n.Z.Z x.L.@.6X[ W.+X,X1X1X1X:X=X$X'.Q.W..X^ Z G.m.C.Z.m.m.l.m.D.n.Z.",
"Z.Z.n.C.Z.Z.Z.C.z.n.C.l.m.n.C.z.H.x.x.x.L.1.wX<.4.(.+X=X>X,X=X=X#X_.W.y.R.' A.l.D.n.l.C.Z x.C.x.Z.Z.",
"D.n.n.A Z.Z.C.Z x.F.x.C.n.m.l.m.n.G.z.Z.! 1.wX9X&.1 &.^.OX;X+X+XoX(.W.e.L.] S.C.Z.z.C.m.n.Z.Z.Z.Z.Z.",
"Z.n.m.x.C.C.n.A m.m.F.n.Z.x.Z.Z.D.Z.Z.L.T.8X9X9X1X:X!.)  .Q.'.XX.X).y.w.{.3 Z C.x.C.Z.Z.Z.Z.Z.Z.Z.Z.",
"D.C.l.C.Z n.I.A Z.D.D.D.Z.D.Z.D.Z.Z.D.P.!.eX@X7X8X8X}.>.>.:.w.|. X(.y.y.'.*.Q l.m.Z.D.C.m.D.Z.Z.Z.D.",
"D.G.l.D.C.n.l.C.Z.Z.Z.D.Z.Z.Z.Z.Z.z.Z.! q.3X1 1X2X3X4X4X$X1 < ~.).^.W.y.8.;Xq l.D.D.D.l.m.m.Z.Z.Z.Z.",
"Z.D.D.Z.D.C.l.C.C.C.C.D.l.n.D.D.z.G.K ! 0.2X< 1X=X8.W.$X+X'.t.' t.^.W.W.8.XX9 S C.D.C.n.C.x.l.A n.Z.",
"Z.C.C.Z.D.n.G.Z n.A l.n.l.l.n.C.x.G.K ! 8.,X2 1X&X:.0.+X+X.XQ.o.>.0.W.w.0.XX9 M.n.m.A D.n.A n.m.n.C.",
"Z.n.Z Z.C.l.I.A C.l.l.C.l.C.Z.A n.x.C.! 9.:X2 1X%X>.0.@X+X.XQ.9.[ *.y.8.8..X0 S D.n.n.C.Z A m.m.C.Z.",
"Z.n.C.z.n.n.l.C.n.m.C.Z Z Z C.l.Z.l.z.K.8.>X) 1X%X4.W.XX'.'.Q.0.' *.y.8.8.'.8 l.D.Z.Z.Z.Z.C.Z.Z.D.Z.",
"Z.m.n.D.n.C.A n.n.D.Z.l.m.m.m.m.C.Z.C.Q 8.,Xy.;XoXQ.^.}.).^.:. .X.<.q.0.!.<.Q C.Z.Z.m.Z.Z.Z.Z.C.C.D.",
"Z.Z.m.n.Z.C.A m.n.D.n.C.m.A n.m.n.C.m.K.8.1X+X@X|.).).).(.W.2 2 *.9.8.q.).: N.Z.Z.D.A n.Z.Z.Z.n.m.C.",
"Z.Z.n.C.x.D.A D.N.m.A D.l.m.A A n.Z.C.G 4 X.+X'.`.~.Q.2.- - = = : - = ; : S.Z.Z.Z.D.l.C.x.Z.C.x.m.m.",
"Z.Z.z.G.A x.A z.Z.W m.n.Z Z Z.Z.Z.D n ;.i.u.9.&.&.=. . .....= 2 3 r $ S S Z.D.m.x.m.l.Z.C.m.Z Z A m.",
"n.n.n.Z.Z n.n.C.m.Y K.A m.l.D.D.Z.n + r.*X[.2 = = = = ( 8.8.- ) ' b c D.D.m.Z.x.x.x.C.m.G.z.l.x.C.C.",
"C.x.Z.l.Z n.A m.D., Y Q C.l.Z.Z.+ [.{.B = 9 4X=X=X+X(.Q.9.= +X'.`.4.e x C.m.x.C.x.l.l.l.m.l.C.x.C.I.",
"Z.Z.Z.C.C.Z.C.Z.Z.> 5.;.K.A.m W + [.r.R ,.6 >X,X3X>XoX(.9.= 1XoX5.*. .E m.C.x.m.A Z m.C.Z.Z.Z.Z.Z.D.",
"Z.Z.Z.Z.D.Z.Z.Z m.> ^.8.R ~ 8 - - `.-.2.`.e =X1X8X5X&X'.9.- 4X+X&.X.<.R A D.l.l.m.Z.x.Z.Z.Z.Z.Z.Z.Z.",
"Z.Z.Z.n.z.C.Z.Z m.> 1 2 0 X.Q.2.2.8 * * b j.) =X1X#X(.W.W.8.= % 5.^.w.<.+ n.Z z.l.Z m.C.m.D.Z.D.Z.Z.",
"Z.Z.x.m.C.x.A A F.> >.u.<.[ 5.2.=.5 3.-.a j.' OX@X].!.W.0.8.* s v 5.w.3 * C.A Z n.x.m.x.m.C.Z.Z.Z.D.",
"D.Z.Z.l.Z n.C.C.n.> t. Xt.] ,.,.$.5 ~.u.a g.' }.}.^.Q.W.8.4.% f o &.8.8 2 m.A Z.n.n.m.x.C.m.Z.Z.D.Z.",
"Z.C.Z.Z.Z.m.Z n.m.> 4.^.4.9 $.{ $.; t.5.X d.) W.Q.Q.E.8.<.* a.j o *  .OX).= l.m.Z.n.Z Z.n.C.Z.Z.Z.Z.",
"Z.x.A Z.Z.Z.A G.z.n.T ] q ; 5 5 $._ [ ,.2.a z &.4.0.8.>.e h j s.a p.-X1XXX= A C.m.x.x.m.x.Z.Z.D.D.Z.",
"Z.n.C.l.Z.n.n.l.Z Z m n n I n n } _ 5  .p.w l v -.,.:.{ a a.j f.s i.*XOX).P S J.S C.z.C.Z.Z.Z.Z.Z.Z.",
"Z.n.n.F.x.x.Z D.A n.Z l.x.G.x.l.: = = = q 4.* s.f.s = o k a.j h.g . * = * l.m.C.n.Z.Z x.C.D.C.l.Z.D.",
"Z.D.l.n.Z.x.n.D.A Z.A n.n.x.Z.A S Y [ { ( ) :.& & % X h a.j s.h.f M n.M.l.l.C.A C.x.Z G.x.n.H.l.Z.Z.",
"Z.Z.l.C.n.x.m.l.z.n.n.m.x.C.x.C.l.T X.=._ < *.= & o i a.a.k g.s.x D D.x.G.x.C.S.z.C.C.Z.Z n.I.l.Z.D.",
"D.Z.x.C.Z.x.Z.Z Z n.Z.Z.x.H.A n.Z T ] ] ' ) * = h k a.k j f.j.u D C.x.G.l.Z.l.F.C.Z C.Z x.D.l.Z.Z.D.",
"D.D.D.l.F.C.n.C.x.C.n.m.l.G.Z l.m.M.R ) 2 , S O j j j k s.h.u b.x.z.n.C.n.Z.D.Z.C.m.D.x.D.D.Z.Z.Z.Z.",
"C.m.D.Z.Z.m.C.l.x.S.Z.l.C.n.Z n.m.~ R ' [ > Z.y j k j a.s.a.# C.Z.A C.Z n.Z.Z.Z.D.n.C.D.Z.n.Z.Z.Z.Z.",
"C.Z m.D.Z.l.G.Z n.Z l.S.D.C.C.C.Z.R 3 :.0.> Z.y j a.s.f.f.t Z.C.l.C.Z.C.Z n.Z.D.m.m.x.Z.n.Z Z.Z.Z.Z.",
"m.n.m.m.m.n.F.Z l.Z.Z.x.Z.C.A Z.R ^.*.=.3.: Z F x a.h.s.x C.Z.A G.G x.m.l.C.n.Z.n.Z.z.n.C.x.C.Z.C.Z.",
"C.n.Z.n.l.C.m.Z n.l.Z D.m.C.A ~ 0 3.[ ( +.S n.l.@ g k z L m.m.x.G.A x.x.x.C.C.x.z.C.S x.C.m.Z.C.x.x.",
"x.C.C.G.C.Z.m.m.n.C.A C.l.I.Z 2 = = = = U D.Z l.@ t t @ D.C.Z m.x.m.x.z.x.C.n.Z m.z.n.x.m.C.Z.m.n.Z.",
"D.x.Z.D.Z.Z.Z.A n.C.I.l.n.A C.N.N.G J v.M.C.l.m.b.F F x.Z.m.n.D.l.Z.Z.C.Z.Z.K Z.x.Z.Z.x.C.n.x.Z.Z m.",
"D.C.C.m.m.C.Z.Z n.C.Z.m.m.v.l.C.D.m.n.C.z.Z.l.m.D.Z.D.D.m.Z.Z.D.Z.Z.Z.m.D.Z.x.m.Z.n.n.Z.z.A Z.m.m.x.",
"D.Z.m.x.n.x.z.A D.n.C.z.D.l.D.n.C.A Z.n.l.x.n.n.Z.Z.Z.n.m.n.m.C.Z.Z.Z.A n.Z.Z.m.G.x.x.m.A C.Z.m.Z.Z.",
"D.Z.C.A A x.C.C.n.G.l.l.n.m.l.G.n.m.C.Z Z m.C.C.Z.D.Z.l.G.Z n.x.Z.Z.Z.K C.n.Z.Z.Z.C.Z.Z.Z.Z.Z.Z.Z.Z."
};
