/* XPM */
static char *pl_dd_2[] = {
/* columns rows colors chars-per-pixel */
"50 50 192 2 ",
"   c #3E0F05",
".  c #29181C",
"X  c #351613",
"o  c #2F241A",
"O  c #1D1F25",
"+  c #241F25",
"@  c #132227",
"#  c #1C2026",
"$  c #132329",
"%  c #15282B",
"&  c #1B342D",
"*  c #183926",
"=  c #1B2D34",
"-  c #172D32",
";  c #1A3235",
":  c #1C3238",
">  c #233136",
",  c #23353B",
"<  c #2A363B",
"1  c #22383E",
"2  c #2B393E",
"3  c #2F292C",
"4  c #450201",
"5  c #4C0303",
"6  c #480B06",
"7  c #540301",
"8  c #580B03",
"9  c #441909",
"0  c #511005",
"q  c #451316",
"w  c #501114",
"e  c #640101",
"r  c #6D0000",
"t  c #680B0C",
"y  c #730101",
"u  c #7B0101",
"i  c #771719",
"p  c #453F10",
"a  c #49210A",
"s  c #49353B",
"d  c #1A5A19",
"f  c #1B561E",
"g  c #17481C",
"h  c #1E691C",
"j  c #1C6915",
"k  c #1D7413",
"l  c #1E7C13",
"z  c #1E731B",
"x  c #276D19",
"c  c #21791C",
"v  c #257715",
"b  c #357715",
"n  c #1B4827",
"m  c #1F5A22",
"M  c #255B33",
"N  c #274833",
"B  c #1E6721",
"V  c #24682A",
"C  c #277727",
"Z  c #29683A",
"A  c #287331",
"S  c #33723F",
"D  c #444611",
"F  c #273D44",
"G  c #2B3C42",
"H  c #363F43",
"J  c #2B4047",
"K  c #294B44",
"L  c #2E454B",
"P  c #33464C",
"I  c #34494E",
"U  c #38454A",
"Y  c #295140",
"T  c #354C52",
"R  c #3A4C53",
"E  c #3C5053",
"W  c #3D5258",
"Q  c #345756",
"!  c #337842",
"~  c #346555",
"^  c #397150",
"/  c #396C4E",
"(  c #3B5C64",
")  c #444C4F",
"_  c #45555A",
"`  c #445B5C",
"'  c #475256",
"]  c #60545A",
"[  c #476656",
"{  c #4D5E63",
"}  c #475D63",
"|  c #4B6166",
" . c #4D656B",
".. c #52656A",
"X. c #53686E",
"o. c #5B6B6F",
"O. c #556467",
"+. c #517C6E",
"@. c #4E6A71",
"#. c #576D73",
"$. c #5A6D73",
"%. c #5B7076",
"&. c #5D7379",
"*. c #627479",
"=. c #65797D",
"-. c #697A7E",
";. c #737A7C",
":. c #8D0101",
">. c #980101",
",. c #A90202",
"<. c #B60202",
"1. c #CD0303",
"2. c #1F8113",
"3. c #208514",
"4. c #218C14",
"5. c #23841B",
"6. c #248C1B",
"7. c #298717",
"8. c #229314",
"9. c #239C15",
"0. c #26921B",
"q. c #299B19",
"w. c #338419",
"e. c #25A415",
"r. c #26AE15",
"t. c #26A01B",
"y. c #2BA41C",
"u. c #28AC19",
"i. c #28AF17",
"p. c #27B216",
"a. c #28B517",
"s. c #29BA17",
"d. c #29B518",
"f. c #2ABC18",
"g. c #298C25",
"h. c #29882C",
"j. c #2C962A",
"k. c #2A9D20",
"l. c #2E8838",
"z. c #2DA122",
"x. c #2AC218",
"c. c #667B80",
"v. c #697D81",
"b. c #6D8286",
"n. c #6D8388",
"m. c #72868B",
"M. c #76898E",
"N. c #768B90",
"B. c #7A8D92",
"V. c #7E9195",
"C. c #7D9499",
"Z. c #818B8E",
"A. c #809296",
"S. c #829599",
"D. c #869A9D",
"F. c #889B9F",
"G. c #8B9EA2",
"H. c #829BA1",
"J. c #949FA2",
"K. c #8EA0A4",
"L. c #8EA7AD",
"P. c #91A3A6",
"I. c #93A5A9",
"U. c #96A9AD",
"Y. c #98ABAF",
"T. c #9BAEB2",
"R. c #9DB0B5",
"E. c #9FB6BC",
"W. c #A0B2B6",
"Q. c #A8BBBF",
"!. c #A4B6BA",
"~. c #B0BBBE",
"^. c #ABBDC2",
"/. c #AEC1C5",
"(. c #AFC4C8",
"). c #B3C6CA",
"_. c #B5C9CD",
"`. c #B5C3C6",
"'. c #B7CBD0",
"]. c #BACED2",
"[. c #BDD1D5",
"{. c #BFD4D8",
"}. c #C2CDCF",
"|. c #C1D5D9",
" X c #C7DADD",
".X c #CADEE1",
"XX c #CFE1E4",
"oX c #D6E6E9",
"OX c #E5F0F3",
"+X c #ECF3F4",
"@X c #F6F9F9",
"#X c #FEFFFF",
/* pixels */
"r.p.r.r.r.8.l 2.r.r.3.e.8.e.r.r.r.r.r.p.r.r.8.9.8.9.8.8.r.k 4.e.r.8.r.2.r.e.9.r.r.p.r.r.r.p.r.r.r.r.",
"r.r.9.r.r.9.r.p.r.p.9.8.e.r.r.r.r.r.r.r.r.r.8.8.a.8.4.e.8.l 4.4.l r.r.e.2.a.8.r.r.r.8.p.r.r.r.p.r.p.",
"r.9.9.4.e.k l r.r.r.l a.4.4.2.8.9.e.p.r.p.4.9.8.r.r.4.8.8.8.9.8.e.9.r.2.2.r.r.p.p.r.l 8.r.r.r.r.r.r.",
"r.8.p.l 4.4.r.2.e.4.e.e.k 8.r.e.k r.4.r.r.2.p.4.2.s.4.e.4.r.r.2.s.3.4.s.l r.r.r.r.r.k r.8.r.p.9.8.r.",
"e.2.r.2.r.4.8.d.4.4.e.8.4.3.2.8.4.9.a.8.9.r.8.k e.e.8.9.p.8.8.r.9.k 9.r.8.r.r.e.r.p.4.9.e.8.r.8.l 9.",
"8.9.2.e.4.e.9.p.r.e.r.9.4.2.r.r.r.8.p.8.2.e.l e.p.8.p.9.r.e.2.e.k 9.r.9.r.r.r.k 9.r.r.3.e.2.e.2.2.9.",
"r.4.e.2.e.r.r.r.r.r.r.r.4.e.4.r.8.e.p.e.4.e.e.r.p.4.e.9.p.e.e.r.e.r.p.p.r.r.p.l e.8.r.3.r.2.2.e.r.8.",
"p.r.p.r.r.p.e.r.r.r.p.r.4.8.p.l 4.e.8.8.l 2.e.p.e.4.e.8.2.l 8.r.r.r.p.e.2.e.r.k 2.8.9.3.r.l 8.l k e.",
"r.p.r.r.r.r.l 9.r.r.r.8.8.4.e.l 8.e.4.9.2.p.8.e.l p.8.l 8.e.2.e.8.r.r.l a.8.e.r.2.s.8.r.9.3.8.r.r.r.",
"r.r.8.2.8.r.l e.8.r.e.4.e.9.r.e.r.4.r.r.9.4.p.8.8.e.l 2.8.8.2.e.e.8.r.e.p.k 8.x.2.r.r.r.r.r.r.r.r.p.",
"r.9.8.e.8.l k r.e.9.2.r.8.9.r.9.l r.2.r.4.e.r.r.r.r.e.e.r.r.r.2.p.e.k e.k 2.r.2.r.r.r.e.8.r.r.8.9.p.",
"r.r.8.l 3.e.e.2.e.4.2.9.e.2.8.l 4.x.l 4.r.l r.8.9.r.r.r.r.r.p.r.r.9.e.r.2.p.2.r.e.r.r.2.e.e.e.e.8.r.",
"r.r.r.r.e.4.4.e.l 4.e.4.r.2.2.2.4.r.k 4.a.l 4.8.9.8.r.r.p.e.e.r.p.e.e.p.r.9.k p.8.e.r.9.e.2.8.r.8.r.",
"p.r.8.e.r.r.r.e.3.8.e.l 9.9.e.2.p.4.4.4.r.l 8.2.2.l r.r.r.4.9.e.e.k 8.r.r.8.e.3.p.8.2.e.k 4.e.8.e.r.",
"r.8.8.l r.r.e.k 4.s.4.e.8.9.2.9.9.s.4.r.4.k 4.r.r.e.4.r.e.8.9.8.2.p.k e.e.4.r.r.r.3.e.e.8.r.r.r.r.r.",
"r.8.9.4.e.e.8.l 9.9.s.8.r.4.r.r.r.r.r.r.9.r.r.r.9.9.r.8.9.r.2.2.r.8.r.8.8.8.2.e.8.9.r.r.r.p.r.r.r.r.",
"p.e.2.r.k 8.x.2.r.r.r.p.p.r.p.r.r.r.r.e.4.4.p.p.l r.a.4.8.9.2.e.e.9.9.p.9.9.9.2.e.r.r.e.8.p.r.r.r.r.",
"p.p.2.p.r.8.2.e.r.p.r.p.r.r.r.r.r.2.r.8.9.l r.4.9.r.8.e.r.e.r.r.p.p.e.p.p.e.2.e.a.p.p.2.9.e.r.r.r.r.",
"r.r.p.r.r.e.2.e.e.e.e.a.2.8.p.p.4.s.l 8.8.e.l 4.e.l r.r.9.e.e.r.e.e.p.a.9.9.l 2.e.r.e.8.e.2.2.2.8.r.",
"r.e.e.p.p.2.s.k 8.l 2.8.2.2.8.e.4.s.l r.2.p.4.8.r.8.r.9.4.4.4.8.8.8.8.2.8.8.k a.8.e.l p.8.2.8.8.9.e.",
"r.8.k r.e.2.x.l r.2.2.e.2.e.u.l 8.4.9.r.e.r.e.4.p.p.9.8.2.2.2.e.2.e.j e.2.2.9.2.a.8.8.e.k l 9.9.e.r.",
"r.8.e.4.8.9.2.e.8.8.e.k k k e.2.r.l 4.r.r.e.4.9.e.9.l Y N K K Y Y ~ 9.r.2.r.r.r.r.r.r.r.e.r.r.r.r.r.",
"r.9.4.s.2.e.l 8.8.r.r.2.9.9.9.9.e.r.e.8.r.e.9.9.2.9.A b.n.n.n.N.B.K.l.Z z.p.r.r.r.r.e.r.r.r.p.e.e.p.",
"r.r.9.4.r.e.l 9.9.p.8.e.9.l 8.9.8.e.8.p.8.4.e.l 2.t.K ).].].{.{.XX+X( ( j.r.p.r.r.r.k 8.p.r.r.8.9.e.",
"r.r.4.r.3.r.2.p.9.9.l r.2.9.l 2.8.r.e.a.2.9.9.4.k.; T.R.| 1 : : I oX@X@X| 5.r.r.r.r.l e.8.r.e.4.9.9.",
"r.r.3.x.l 4.l 3.i.8.e.9.k k 6.B z r.2.8.9.g.A A M - K.T.C.m.b.b.C.oXOXP.O.! j.8.3.e.2.r.e.8.k k k e.",
"9.8.9.r.k 2.9.9.6.r.r.l 9.8.B % N 0.z h 0.S R T L % V.T.).[.[.[.|.oX XT #. .! 2.4.4.e.9.a.4.2.4.e.e.",
"e.3.e.2.k 9.k l n r.r.8.9.2.h { (.- - O - G.OX+X/.$ V.V.U.T.T.Q.|..X- &.T._.C.! 8.2.2.4.8.2.e.8.e.x.",
"r.r.r.e.r.r.e.2.& A r.9.8.x.f ' U.= i # $.^.oXoX!.$ m.A.c.#...N.{.XX- C./.{.C.Z l k 8.e.r.e.r.r.r.p.",
"r.r.r.r.p.p.a.d = T z.r.5.6.V R D.= 1.+ G.]. X.XY.% v.B.| L J $.[.).1 R.'.XXL./ 9.r.2.r.r.r.r.p.r.r.",
"r.p.r.8.2.e.p.d 2 R.J 0.* % $ R S.# 1.+ M.`.|.).A.$ c.V.Y.R.W.^.^.- b.(.].XXoXE.Q j r.e.9.r.r.p.r.r.",
"r.r.8.9.e.2.l d = | F M ` ' < U M.$ <.+ v.T.^.Q.P.O.P B.F.U.T.^.^.; C.(.]..XOX^.~ 8.e.2.e.e.r.r.r.r.",
"p.p.r.2.l 2.r.2.- J P J o.o.H P v.$ ,.+ *.G.Y.U.I.B.$ m.V.P.T.T.I.F U._.]..XOX}.+.h.9.4.e.8.r.p.r.p.",
"p.e.e.r.p.8.k z 1 C.R.G _ ' < P v.# ,.+ *.A.A.A.A.B.@ =.B.G.P.v.1 &.^.].]..XOX#XoXQ v r.8.e.r.r.r.r.",
"p.8.l e.r.p.l t.: m.G.F ) ) < G %.@ >.O X.B.A.A.B.b.$ P *.m.N.$.F M.!.`.].{.XX].-.o 6.9.4.r.p.r.r.r.",
"p.8.e.2.r.8.8.h : X.=., 2 2 < G $.@ :.O ..-.-.=.-.c.$ =  .=.&.} W D.T.^._.'.|.R.R   5.e.r.r.r.r.r.r.",
"p.8.8.a.2.8.j t.$ O @ @ # $ @ G #.O :.O ..R % O , c.$ = } #.W R S.P.T.^.^.^.).L.I 6 v 4.e.r.e.2.r.r.",
"p.p.2.8.p.8.8.r.j 6.j X t t q G  .$ :.O , Z.^.U.-.2 $ W T J ` n.S.P.U.W.^.W.V.] i 6 k s.4.9.p.2.p.r.",
"r.r.2.e.2.2.e.2.2.8.x 0 u :.w F ( $ t O O -.`.`.B.$ O #.W L ..B.B.D.D.G.T.I.c.s y 6 e.r.k 8.x.2.p.r.",
"r.p.2.e.p.8.r.k k 4.6 y y u q 2 | $ $ $ @ O { Y.v.$ $  .c.c.v.v.v.v.v.v.B.S.%.< 5 8 e.k 4.p.2.r.r.r.",
"p.p.p.2.p.e.8.e.v   e r r r q $ 3 e e # $.o.U > 3 6 @ ..&.#.&.v.v.#.#.#.c. .S y.w.8 u.4.r.r.p.r.p.r.",
"e.9.p.r.r.9.e.2.c 4 e e e e 6 . X e e @ _ { U O o D @ &.&.#.&.=.c.n.N.N.&.^ j.q.b p r.r.r.8.r.r.r.r.",
"e.k 9.p.r.2.s.l 7.4 7 7 7 7 7 7 7 7 7 O $ 2 2 . a l @ M.&.#.#.#.&.I.^./.@.h.r.b 9 9.4.i.8.k r.r.r.p.",
"9.8.9.9.9.8.p.k 4.q.y.7.y.q.v y.5.7.# _._ % $ * 6.r.6.& =.F.K.U.Y.: T T C 9.9.r.7.p.3.8.e.4.e.r.e.r.",
"e.4.p.9.2.e.9.k 8.2.k p.q.9.v p.3.4.@ ^.*., * x 4.j j f [ o.%.*.=.n A A 6.r.e.2.3.e.k 4.e.9.r.e.2.8.",
"4.e.e.p.e.r.9.9.8.e.l e.4.x.l r.3.e.% P.D.E g l l 9.e.8.n @ @ @ * 9.2.2.2.e.8.k e.3.4.4.9.e.r.9.8.r.",
"p.8.r.r.r.r.r.l 8.e.x.2.8.l e.r.r.3.5.& % C 3.8.9.l v 9.r.q.4.r.5.r.r.r.r.r.v i.4.e.r.4.e.8.4.i.k e.",
"p.e.e.9.9.e.r.k 8.e.p.9.9.2.2.e.r.9.8.B n 3.4.9.r.r.r.p.9.p.r.r.r.r.r.9.r.p.8.9.r.8.8.r.4.k r.9.e.2.",
"r.r.9.4.8.4.3.l p.8.e.4.r.2.p.8.e.l r.8.2.4.8.8.e.r.r.9.9.8.9.e.r.r.r.l 8.r.r.9.p.2.8.9.l e.r.9.r.r.",
"r.r.e.2.l 4.e.e.8.s.2.2.8.9.4.p.4.9.e.k k 9.9.r.p.r.r.2.s.k 9.4.r.r.r.l e.8.r.r.p.e.r.r.r.p.r.r.r.r."
};
