/* XPM */
static char *pl_fc[] = {
/* columns rows colors chars-per-pixel */
"50 50 212 2 ",
"   c #191919",
".  c #171717",
"X  c #390201",
"o  c #380605",
"O  c #2E1213",
"+  c #3B1213",
"@  c #351112",
"#  c #1D3F1A",
"$  c #322D10",
"%  c #171F22",
"&  c #142127",
"*  c #142329",
"=  c #1A292E",
"-  c #18262C",
";  c #172B32",
":  c #1B2D33",
">  c #1A3036",
",  c #1C3339",
"<  c #1C3A34",
"1  c #282727",
"2  c #322E2F",
"3  c #3E2529",
"4  c #30302F",
"5  c #352E31",
"6  c #2D3334",
"7  c #21363C",
"8  c #24383F",
"9  c #28343A",
"0  c #313232",
"q  c #353A3D",
"w  c #2C3B2B",
"e  c #440000",
"r  c #4B0201",
"t  c #4F0F07",
"y  c #530000",
"u  c #5A0202",
"i  c #5C0C08",
"p  c #4E1B09",
"a  c #471807",
"s  c #421112",
"d  c #4B1617",
"f  c #581517",
"g  c #4E140E",
"h  c #640101",
"j  c #6C0101",
"k  c #720101",
"l  c #7A0000",
"z  c #7C0A0B",
"x  c #6B1112",
"c  c #661214",
"v  c #741214",
"b  c #4F2109",
"n  c #53290B",
"m  c #4B2A2E",
"M  c #1E4E1B",
"N  c #37450F",
"B  c #3A4A11",
"V  c #285B16",
"C  c #375713",
"Z  c #1C6C12",
"A  c #1D7412",
"S  c #1F7C13",
"D  c #2A6915",
"F  c #316D13",
"G  c #267718",
"H  c #337314",
"J  c #337B15",
"K  c #1C4B23",
"L  c #1F5C24",
"P  c #1E5724",
"I  c #215A2B",
"U  c #2A5939",
"Y  c #1F6026",
"T  c #206124",
"R  c #21672C",
"E  c #267827",
"W  c #286835",
"Q  c #475A11",
"!  c #253C43",
"~  c #2A3E45",
"^  c #323D42",
"/  c #284247",
"(  c #2C434A",
")  c #294846",
"_  c #394447",
"`  c #32474D",
"'  c #3D4649",
"]  c #38464B",
"[  c #2D4C54",
"{  c #394E54",
"}  c #374D54",
"|  c #3A5056",
" . c #32535C",
".. c #3C555D",
"X. c #2C594A",
"o. c #3A6951",
"O. c #357148",
"+. c #434A49",
"@. c #434E51",
"#. c #42545A",
"$. c #44595F",
"%. c #4E5B5F",
"&. c #475356",
"*. c #455B61",
"=. c #4C5E63",
"-. c #525E62",
";. c #4C6065",
":. c #4E646A",
">. c #44636C",
",. c #546266",
"<. c #54656A",
"1. c #5C6B6F",
"2. c #576468",
"3. c #556D73",
"4. c #5B6E72",
"5. c #5B7076",
"6. c #5E747A",
"7. c #5F787F",
"8. c #486871",
"9. c #646566",
"0. c #6C6D6D",
"q. c #60696C",
"w. c #626D71",
"e. c #63767B",
"r. c #65797E",
"t. c #697578",
"y. c #7D7C7D",
"u. c #830000",
"i. c #8B0000",
"p. c #940A09",
"a. c #AB0A0A",
"s. c #1F8113",
"d. c #208513",
"f. c #218C14",
"g. c #288519",
"h. c #328415",
"j. c #229314",
"k. c #239C15",
"l. c #27951B",
"z. c #309717",
"x. c #25A315",
"c. c #26AE15",
"v. c #28AC19",
"b. c #27A818",
"n. c #27B116",
"m. c #28B517",
"M. c #29BB17",
"N. c #29B518",
"B. c #2ABC18",
"V. c #258223",
"C. c #298C2A",
"Z. c #2A9526",
"A. c #2E8833",
"S. c #2AC118",
"D. c #418B50",
"F. c #588471",
"G. c #657B81",
"H. c #6A7D82",
"J. c #6E8084",
"K. c #688287",
"L. c #72858A",
"P. c #76888C",
"I. c #7A8D91",
"U. c #718B92",
"Y. c #7E9195",
"T. c #7E99A0",
"R. c #848787",
"E. c #809296",
"W. c #829599",
"Q. c #86999D",
"!. c #899A9E",
"~. c #999A9B",
"^. c #8C9EA2",
"/. c #849BA1",
"(. c #8DA1A5",
"). c #8DA4A9",
"_. c #94A6AA",
"`. c #96A9AE",
"'. c #9AABAE",
"]. c #94A4A8",
"[. c #9AADB1",
"{. c #9EB1B5",
"}. c #9FB6BB",
"|. c #A3B6BA",
" X c #A3B5B9",
".X c #B6B8B8",
"XX c #B3B6B7",
"oX c #A1ADB0",
"OX c #ADBFC4",
"+X c #A5BCC1",
"@X c #B1BEC1",
"#X c #AEC1C6",
"$X c #B5C9CD",
"%X c #B3C5C8",
"&X c #BACFD3",
"*X c #BDD2D6",
"=X c #BFD4D8",
"-X c #C8CCCD",
";X c #CBD2D4",
":X c #C1D5D9",
">X c #C8D8DB",
",X c #C2CED1",
"<X c #CADDE1",
"1X c #CDE1E5",
"2X c #D4E4E7",
"3X c #D3E5E9",
"4X c #D7E8EB",
"5X c #E4ECED",
"6X c #EBF1F2",
"7X c #FDFDFD",
"8X c #F2F4F4",
"9X c #E3EEF0",
/* pixels */
"c.n.c.n.c.j.S s.c.n.s.x.k.x.n.c.c.c.c.n.n.c.k.x.j.x.j.j.n.G s.c.c.f.c.d.x.x.k.c.c.c.c.c.c.c.n.c.n.c.",
"c.c.k.b.c.x.x.c.c.c.j.j.k.c.c.n.c.n.c.c.n.n.s.f.m.j.j.x.C b b a V n.c.c.S M.k.c.c.c.j.c.c.c.c.c.n.c.",
"c.k.k.f.x.A S c.n.n.S m.s.s.s.j.j.c.n.c.c.s.x.j.c.c.s.F n j y $ h.j.n.s.s.c.c.n.c.c.S f.c.c.c.c.c.c.",
"c.j.n.S f.j.c.s.c.s.x.c.S k.n.x.Z n.s.c.n.s.n.f.s.M.d.a k l t G S.s.f.M.S c.c.c.c.c.S c.j.c.c.k.j.c.",
"x.s.c.s.c.f.j.m.s.s.n.f.s.s.s.j.j.j.m.j.k.c.f.S x.z.o j k h o x.j.A x.c.s.c.c.k.c.n.f.k.k.j.c.j.S j.",
"f.k.s.x.f.x.k.n.c.x.n.k.j.s.c.n.n.j.n.k.s.x.S x.Z.U X r y t C x.S j.c.j.n.c.n.A k.c.c.d.k.f.x.s.d.x.",
"c.j.x.s.x.c.c.c.n.c.n.n.j.x.s.n.j.x.M.x.d.x.Z.Z.D.3.+ + $ N c.c.x.c.n.n.n.n.n.S x.j.c.d.c.d.s.x.c.f.",
"c.c.c.c.n.n.x.c.c.c.n.n.s.j.N.S d.x.j.f.s.S [ [ T.<X .[ R s.s.c.n.c.n.x.s.c.c.S d.j.k.d.c.S j.S S x.",
"n.c.n.c.c.c.s.j.c.c.c.j.j.f.x.S j.c.s.W X.o.#X,X<X<X{.{.F.X.X.v.k.n.n.S m.f.k.m.s.M.j.c.x.d.f.c.c.c.",
"c.c.f.d.j.c.S x.j.c.c.f.x.k.c.x.c.j.C.F.K.U.<X9X4X:X$X$X/.G.K.A.C.j.c.k.c.S f.S.d.c.c.c.c.c.c.c.c.c.",
"n.j.j.x.j.S A c.x.j.s.x.k.k.c.k.S v.[ `.$X&X&X1X:X#X#X#X#X#X*X .A.x.S x.A s.n.s.x.n.n.k.j.c.c.j.j.c.",
"c.n.f.s.d.x.x.s.c.f.S x.x.s.f.S E [ %X%X|.{.{./.G.*.Y.[.[.}.#X$XF.X.k.c.s.m.s.n.x.c.c.d.x.k.x.x.j.c.",
"c.c.c.c.x.f.f.x.S f.x.j.c.s.s.s.V.[ _.{.`.E.Y.G.U.).3.U.Y.Q.|.'.3.U b.n.c.k.A c.j.x.c.x.x.s.j.n.j.c.",
"c.c.j.x.c.c.c.x.d.j.x.S j.j.c.s.A.[ I.).W.e.e.3.).:X8.6.7.K.'.Y.>.U g.n.c.j.x.f.m.j.s.x.A f.x.j.x.c.",
"c.j.j.s.c.c.x.A d.m.f.x.j.j.d.W } 5.H.H.3.[  .:X6X3X=X8. ...G.K.6.;./ k.k.j.c.c.c.d.x.k.j.c.c.c.n.c.",
"c.j.k.f.x.x.j.S x.k.M.j.c.j.c.Y ` 3.} ..L.>X>X3X4X3X*X+X}.(...} ;.*.< j.j.j.s.x.f.x.c.c.c.c.c.c.c.n.",
"n.x.s.c.A j.S.S c.c.c.c.c.n.c.Y ~ =.G.H._.5XXX>X3X<X*X_.|. XG.3.:.{ ; c.k.k.k.s.x.n.c.x.j.c.n.c.c.c.",
"n.n.s.n.b.j.s.x.n.c.n.n.c.c.c.P > ( 8X7X9X%X; +X3X<X:X` G.|.=X&XG.! - b.n.b.s.x.n.n.n.s.k.k.c.c.c.c.",
"n.c.n.n.n.x.s.x.c.k.x.c.f.j.U /.2X8X4X#X{.`.> |.<X&X X( G.{.{.{._.Y.r.) V.x.S s.x.c.x.f.x.f.s.s.j.c.",
"c.x.x.n.m.s.M.A j.S s.f.S f.) 7.].oXr./.[._.; {.:X&X{.( G.{.`.<.G.L.6.( E j.A m.j.x.S m.j.s.j.j.j.x.",
"c.j.S c.x.s.S.A x.s.s.x.s.x.) *.e.H., J._.]., ).$X$X{.~ e.`.].7 =.7.3./ E s.j.s.m.j.j.x.A S j.x.x.c.",
"c.f.x.s.j.j.s.c.j.k.x.A A S > ..5.G.( G.Y.I.~ H.Y.Y.Y.} 4.E.E.( :.G.3., Z c.n.c.n.c.c.c.x.x.c.c.c.c.",
"n.k.f.M.f.x.S j.j.c.c.s.k.k.G U { 5.5.H.J.K.5.H.H.L.H.G.G.H.H.6.5.;.8 E b.c.c.n.c.c.k.c.n.n.c.x.x.n.",
"c.n.k.f.c.x.S k.k.c.j.x.k.s.j.I ~ *.<.=.=.;.=.=.=.=.<.=.=.=.=.<.=.{ < b.c.c.c.c.c.n.S j.c.c.c.j.j.x.",
"n.c.f.c.s.m.s.n.k.k.S n.j.j.S U ! > > - & & % % * * % % * % * , : 7 ) b.n.c.c.c.c.c.S x.j.c.x.j.k.x.",
"n.x.s.S.s.s.s.s.n.j.x.j.A A U oX5X<X( ~  .3.3.e.L.I.G.3.3.>.~ ~ (.2X6X` Z.n.c.k.d.x.s.c.x.j.Z A A x.",
"k.j.k.n.S s.k.k.j.n.c.S f.W r.].@X[.! } ..} ] { #.*.{ } }  .*.! H.|.%Xr.O.V.x.f.f.f.c.k.M.d.d.f.c.x.",
"x.s.x.s.A k.S k.c.c.c.j.V.~ Q.I.H.5.> *.*.~ ^ ~ > - % % - ! =.> &.t.L.!.%.W f.c.j.s.s.d.j.s.x.f.k.S.",
"c.c.n.x.x.c.x.c.n.n.n.k.E ; * % % % % *.G./.4XOXH.~                     = Y d.x.A A j.x.c.x.c.c.c.n.",
"c.c.n.n.n.c.n.A k.n.b.c.G s ; ^ { ^ % *.6.L.[.^.-.0 .X.X.X.X.X.X].R.y.9.w M s.d.x.x.f.n.c.c.c.n.c.c.",
"c.c.n.j.s.x.c.A j.x.n.g.B u ! &.-.@.* [ :.G.L.e.' 0 7X-X-X;X-X-XXX~.P.y.q # V d.s.Z x.x.k.c.c.c.c.c.",
"c.c.s.x.x.s.S S N.j.x.N u h ~ <.w.@.* ; ` 5.3.~ - 0 7XH.H.E.H.H.y.q._ 0.4 @ t Z j.f.x.f.x.x.c.n.c.c.",
"n.c.c.s.S f.c.x.f.S.G N u h ~ ( ~ ~ ; f d , ; - % 2 7XG.-.,.H.H.-.' q 0.0 @ i m.j.j.k.f.x.k.c.c.n.c.",
"c.x.x.c.c.j.Z j.x.c.C n i m W.H.3.=.* m m f c v d 6 7XI.<.-.H.L.-.' @.0.4 @ h Q z.j.A c.j.x.c.c.c.c.",
"c.j.s.x.n.c.S M.s.c.b u f / >X{.U.G.* ! m u.p.a.x 5 7X!.w.2.F.J.-.&.-.0.0 + j h J f.f.k.s.c.c.c.n.c.",
"c.f.x.f.c.j.j.s.Z S a h x / `.^.L.4.* *.*.: , , * 5 7X^.P.R.H.J.t.4.-.0.0 + k h C x.d.b.c.c.c.c.c.c.",
"c.k.f.M.f.f.A M.G f.p j x / Q.I.G.4.% ~ ..*.5.^.q.5 7X^.P.H.r.J.t.3.,.0.0 s u.h H c.A f.c.c.x.s.c.n.",
"c.c.s.f.c.f.f.m.S n.b j z m 4.;.*...* ! ( *.<.E.-.4 7X!.r.t.J.K.4.-.,.0.0 s u.h H f.A M.f.k.m.s.c.c.",
"c.c.d.x.f.f.x.s.s.k.p k i.z > ; * * % : ; % % * % 5 7X^.w.=.J.y.%.@.2.0.0 s i.h F c.k.c.A j.M.s.c.n.",
"c.n.f.x.n.f.x.A A j.p k i.u.k j h i i 1 ~ =.' ' 6 1 -X1.%.%.J.J.%.^ q 0.0 s i.h H A x.A j.n.s.c.c.n.",
"c.c.c.j.m.k.j.x.s.c.p k i.i.l l k j h 5 { w.&.@.0 1 XX2.,.w.e.e.2.@.q 0.0 s i.u H k.c.f.c.c.c.n.c.c.",
"x.j.c.c.c.k.k.d.f.x.b k i.i.u.l k j h 5 @.t.-.@.6 1 ~.q.5.r.1.4.4.%.q 9.2 s u.y h.j.x.n.n.j.c.c.c.c.",
"x.A k.c.c.f.M.S j.S a y r e e e X X X X O : > > : & . R.t.&.' ' q +.0.  o r y y H k.f.n.j.Z x.n.c.c.",
"x.j.k.k.j.j.M.Z s.c.h.F h.J V h.D D H w 9 7 I.H.#.= t.+.0.R.0.0.9.&.6 G D J H h.d.n.d.j.x.f.c.c.c.n.",
"x.f.c.k.f.k.k.A f.d.A n.k.k.G n.s.j.V.o.{ 8 `.E.%.: Y.+.9.y.y.y.9.+.M s.j.c.x.s.d.x.A f.x.k.c.x.f.f.",
"f.x.c.n.x.c.k.k.j.x.S x.f.S.S c.s.b.) Y.L.7 W.L.| : J.I.@.4 0.0.m K s.s.s.x.j.A x.d.j.f.k.x.c.k.f.c.",
"n.j.c.c.c.c.c.S j.x.S.s.j.S x.c.g.< * : = * : = - & = : - & % % = L m.c.c.c.S c.d.c.c.d.x.j.f.n.A k.",
"n.x.x.j.k.x.c.A j.x.n.k.k.f.s.k.l.I I P K L T P L T T T K L D V T V.n.k.c.c.j.k.c.j.k.c.d.G b.k.x.s.",
"c.c.j.j.j.f.d.S c.j.x.f.c.d.n.k.k.S c.j.d.f.j.j.x.n.c.j.x.j.k.x.c.c.c.A j.n.n.k.n.s.j.k.S x.c.k.c.c.",
"c.c.x.s.S j.x.x.j.M.d.S j.j.d.M.j.j.x.A A k.x.x.c.c.n.s.M.A k.d.c.n.c.S x.j.c.c.n.x.c.c.c.n.c.c.c.c."
};
