/* XPM */
static char *pl_mv_dw_2[] = {
/* columns rows colors chars-per-pixel */
"50 50 210 2 ",
"   c #1B1C1C",
".  c #3B0000",
"X  c #3B0F06",
"o  c #2C1913",
"O  c #182318",
"+  c #3D290B",
"@  c #3A350C",
"#  c #1B1F20",
"$  c #371D21",
"%  c #1F2021",
"&  c #142329",
"*  c #1B262A",
"=  c #16292D",
"-  c #19292E",
";  c #172126",
":  c #1C2E34",
">  c #1B3236",
",  c #1E343B",
"<  c #1D3C21",
"1  c #242325",
"2  c #2A262B",
"3  c #2C2D2D",
"4  c #26262C",
"5  c #252E31",
"6  c #203036",
"7  c #21363D",
"8  c #24393D",
"9  c #2A3538",
"0  c #333B3E",
"q  c #353535",
"w  c #3A2125",
"e  c #450101",
"r  c #440808",
"t  c #4C0808",
"y  c #480603",
"u  c #5B0202",
"i  c #520B04",
"p  c #5E0808",
"a  c #530505",
"s  c #431E1F",
"d  c #4E1B0A",
"f  c #640202",
"g  c #6C0000",
"h  c #620A0B",
"j  c #680808",
"k  c #730000",
"l  c #790000",
"z  c #6C181A",
"x  c #442609",
"c  c #4F2F0A",
"v  c #522124",
"b  c #522D31",
"n  c #423A3C",
"m  c #4B2025",
"M  c #1A451B",
"N  c #1B581E",
"B  c #2B500F",
"V  c #38530F",
"C  c #334B10",
"Z  c #2F5112",
"A  c #385A11",
"S  c #33460E",
"D  c #1D6C13",
"F  c #1D7412",
"G  c #1F7C13",
"H  c #2C6411",
"J  c #296D13",
"K  c #316D10",
"L  c #366611",
"P  c #22731A",
"I  c #20791A",
"U  c #287915",
"Y  c #377513",
"T  c #36630F",
"R  c #1F4E2D",
"E  c #1F5025",
"W  c #1B4030",
"Q  c #25483C",
"!  c #215232",
"~  c #216021",
"^  c #257826",
"/  c #2C7738",
"(  c #306B3B",
")  c #43480D",
"_  c #44440E",
"`  c #46520F",
"'  c #45463B",
"]  c #253B42",
"[  c #2B3C42",
"{  c #393F41",
"}  c #2B4247",
"|  c #2C434A",
" . c #274047",
".. c #3A4346",
"X. c #33454B",
"o. c #37484D",
"O. c #3D494C",
"+. c #3C474B",
"@. c #2D4C53",
"#. c #354C53",
"$. c #3E4E53",
"%. c #2D5151",
"&. c #3C5056",
"*. c #3D5359",
"=. c #35545C",
"-. c #2D6544",
";. c #3B5A63",
":. c #444B4D",
">. c #46494A",
",. c #444D50",
"<. c #4C575A",
"1. c #465559",
"2. c #555656",
"3. c #595959",
"4. c #565956",
"5. c #486459",
"6. c #445C63",
"7. c #4C5E63",
"8. c #525D60",
"9. c #4B6066",
"0. c #4C666C",
"q. c #47646C",
"w. c #536165",
"e. c #55686D",
"r. c #556C72",
"t. c #5A6E74",
"y. c #5A7076",
"u. c #5C7379",
"i. c #5B7577",
"p. c #4C6E6C",
"a. c #666869",
"s. c #6A6C6C",
"d. c #636363",
"f. c #676F72",
"g. c #62757A",
"h. c #65797E",
"j. c #667477",
"k. c #7C7C7C",
"l. c #747678",
"z. c #850000",
"x. c #8C0000",
"c. c #9D0303",
"v. c #1F8113",
"b. c #208513",
"n. c #218C14",
"m. c #22811B",
"M. c #268418",
"N. c #229314",
"B. c #239C15",
"V. c #279A1B",
"C. c #299619",
"Z. c #25A315",
"A. c #26AE15",
"S. c #28AC16",
"D. c #28A61A",
"F. c #27B216",
"G. c #28B517",
"H. c #29BB17",
"J. c #29B518",
"K. c #2ABC18",
"L. c #268824",
"P. c #2E8737",
"I. c #2C942B",
"U. c #2AC218",
"Y. c #558F69",
"T. c #6B7E82",
"R. c #677B80",
"E. c #6D8085",
"W. c #6F8388",
"Q. c #72868A",
"!. c #768A8F",
"~. c #75868B",
"^. c #7B8E92",
"/. c #748C92",
"(. c #7C9497",
"). c #858788",
"_. c #82959A",
"`. c #879395",
"'. c #999999",
"]. c #8A9DA2",
"[. c #809AA1",
"{. c #8DA2A6",
"}. c #95A6A9",
"|. c #9BAEB2",
" X c #94ACB1",
".X c #9DB1B5",
"XX c #9DB4B9",
"oX c #A5ABAD",
"OX c #AEB2B3",
"+X c #A4B9BE",
"@X c #A8BBBF",
"#X c #A6B5B9",
"$X c #A8BDC1",
"%X c #B4BFC2",
"&X c #AEC2C6",
"*X c #B3C6CA",
"=X c #B4C8CC",
"-X c #B0C2C7",
";X c #B9CED1",
":X c #BED3D6",
">X c #C5CBCD",
",X c #CBCFD0",
"<X c #C6D5D7",
"1X c #CBDDE1",
"2X c #D7DFE1",
"3X c #CDE1E4",
"4X c #D3E5E8",
"5X c #E7F1F3",
"6X c #F8F9F9",
"7X c #E1E7E8",
/* pixels */
"A.F.A.A.A.N.G v.A.A.v.Z.N.Z.A.A.A.A.A.A.F.A.N.Z.n.Z.n.B.F.D n.A.A.N.A.v.A.B.B.A.A.F.A.A.A.A.A.A.A.F.",
"A.A.B.S.A.Z.Z.A.A.A.B.N.Z.A.A.A.A.A.A.G.F.F.N.v.H.N.n.Z.N.F n.b.F F.F.A.v.G.N.A.A.A.N.A.A.A.F.A.A.A.",
"A.B.B.n.Z.F G F.A.A.G F.n.n.v.N.N.A.A.A.A.v.B.N.A.A.v.N.N.C.Z.n.Z.B.F.v.G F.A.A.A.A.G n.A.F.A.A.F.A.",
"A.N.F.G v.N.S.v.A.b.Z.A.F N.A.Z.F G.b.A.F.v.F.N.v.H.J S c ) S G U.v.n.G.v.A.A.F.A.F.G A.n.A.A.B.N.A.",
"Z.v.A.v.F.N.N.G.N.b.A.N.N.b.v.N.n.N.G.n.B.A.N.F Z.C.S u g i + Z.B.F B.A.v.A.F.B.A.A.n.Z.B.N.A.B.G B.",
"n.B.v.Z.n.Z.B.F.A.Z.A.N.n.v.A.A.A.N.A.B.v.Z.F Z.F.H e l z.i G S.F B.A.N.G.F.A.F B.A.F.v.B.n.Z.v.v.B.",
"A.n.Z.v.Z.A.A.A.A.A.A.A.n.Z.v.A.N.A.F.Z.b.A.Z.A.P.' g g k X A.A.B.F.F.F.F.F.A.G B.B.A.v.F.v.v.Z.A.n.",
"F.F.F.A.A.F.Z.A.A.A.A.A.n.N.F.v.n.Z.N.n.v.v.L.P.Y.k.b v i B n.A.F.A.A.Z.v.A.A.G v.N.B.v.A.G B.F G Z.",
"F.A.F.A.A.A.G N.A.A.A.N.N.b.Z.G N.A.v.B.^ J.-.;.(.$X;.X.X D.v.D.B.A.A.G J.N.B.A.v.H.N.A.Z.b.n.A.A.A.",
"A.A.N.v.N.A.G Z.B.A.A.b.Z.B.A.Z.F.v.F.F.-.@. X5X5X3X:XXX%.%.v.Z.Z.B.A.B.A.F N.U.v.A.A.A.A.A.A.A.A.A.",
"A.B.N.Z.N.G F A.Z.B.v.A.B.B.A.N.G A.v./ (. X-X3X3X*X&X+X{.{.-.v.J.V.F Z.F v.F.v.A.A.F.Z.N.A.A.N.B.F.",
"A.F.n.G b.Z.Z.v.A.n.v.N.Z.b.N.G v.K.^ p.+X=X=X;X$X X#X$X$X*Xr.I.A.B.B.A.v.G.v.F.Z.A.A.v.Z.B.Z.Z.n.A.",
"A.A.A.A.Z.n.n.Z.F n.A.b.A.v.b.v.B.F.@.$X-X$X|.].R.0.[.XXXX$X:X=.D.Z.Z.A.A.B.G F.N.Z.A.B.Z.v.N.F.N.A.",
"A.A.n.A.A.A.A.Z.v.N.Z.G B.N.Z.b.G.v.} /. X^.T.y./.XX0.W.W.XX_.| V.F N.A.A.n.Z.b.F.N.v.Z.F n.A.b.Z.A.",
"A.N.B.G A.A.A.F n.G.n.Z.N.N.v.B.B./ 1.W.^.u.q./.=X;X/.q.0.(.!.6.( N.G Z.Z.n.A.A.A.b.Z.Z.N.A.A.A.F.F.",
"A.N.B.b.Z.Z.N.F Z.B.H.N.A.N.A.A.F.} r.i.R.0.q.XX5X3XXXq.6.R.g.y.| v.Z.N.N.N.v.Z.N.B.A.A.A.G.A.A.A.A.",
"F.Z.v.A.G v.U.G F.A.A.F.F.A.A.F.A.> r.| [ %X6X5X4X1X<X:X=X@.] r.7 L.N.F.B.B.B.v.Z.A.F.Z.B.A.A.A.A.F.",
"F.F.v.G.A.B.v.Z.A.A.F.F.A.A.F.F.A.= #.@X,X<X_.{.4X1X.Xt.$X.X.X=.- C.A.A.F.Z.v.Z.G.F.F.v.N.B.A.A.A.A.",
"A.A.F.A.F.Z.v.Z.A.B.Z.F.v.N.A.D.^ w.g.2X7X<Xr./.1X<X].#..X*X=X0.| ^ D.A.B.Z.G v.Z.A.Z.n.Z.n.v.v.N.A.",
"A.Z.Z.F.G.v.H.F N.G v.N.v.v.N.V.| 4X6X4X$X.X7./.1X;X/.#..X.X.X}.W.#.^ n.v.B.F G.N.Z.G G.N.v.N.B.N.Z.",
"A.N.F Z.B.N.H.F A.v.v.B.v.Z.S.F [ u.E.} ^. X7.T.<X*X/.#..X].6 R.y.#.~ Z.v.v.B.v.G.n.N.Z.F G N.B.Z.F.",
"A.N.A.v.B.N.v.Z.N.N.Z.G F F Z.G ] r.E.| Q.].7.R.XX.XT.&.]._.] R.i.| m.F.v.A.A.A.F.F.A.A.A.Z.A.A.F.A.",
"A.B.N.H.v.A.G N.N.A.A.v.Z.B.B.v.> 0.h.*.E.^.0.f.^.^.R.6.^./.X.R.0.} v.b.A.A.F.A.A.A.B.A.A.A.A.Z.Z.F.",
"A.A.Z.v.F.B.G B.B.A.N.Z.B.v.N.B.N.> r.h.h.E.Y.T.T.T.T.T.T.R.T.r.7 G n.A.A.F.A.A.F.A.G N.A.A.A.N.B.Z.",
"A.A.N.A.v.F.v.G.B.B.G F.n.N.U G v.> [ [ [ [ [ [ ] [ [ [ ] [ { [ [ L.A.A.A.A.F.A.A.A.G Z.N.A.Z.n.B.B.",
"A.A.v.U.v.v.v.v.F.N.Z.N.F F S.S.Y ] 6.] : ] [ [ o.o.{ [ [ , , R.~./ D.A.A.F.F.Z.b.Z.v.A.Z.B.F F F Z.",
"N.N.Z.F.F N.N.B.B.A.A.G B.N.A.C.a | (.=.[ q.r.R.~./.R.y.r.]  .1X6Xe.L.S.A.Z.Z.v.n.n.Z.Z.G.b.v.b.Z.Z.",
"Z.v.Z.v.F N.G B.A.A.A.N.B.v.C.d | /.T.] 7.X.- - # 1 # # # # # * 1 #Xy.L.Z.N.n.S.n.v.v.v.B.v.Z.N.Z.U.",
"A.A.G.Z.Z.A.A.Z.A.A.A.B.N.K.J t 7 1.o.: 7.r.Q.8.2.'.'.T.T.k.k.s.3.s.X.L.B.Z.n.B.G F B.Z.A.Z.A.A.A.F.",
"A.A.A.A.A.A.F.F Z.A.A.S.N.C.Y p 2 & : & 7.T.$Xj.l.6X,XOXOXOXOX`.k.3 1 I G F.v.v.Z.Z.n.A.A.A.A.F.A.A.",
"A.A.G.N.v.Z.A.F N.Z.F.B.B.Y u z.f : +.* 7.g.!.2.k.>Xj.!.T.T.T.>.a.3 X V B.B.F n.v.D Z.Z.B.A.A.F.A.A.",
"G.A.v.Z.Z.v.v.G J.N.Z.b.S.U u l f ] ,.- ] 7.g...k.>X8.t.T.T.,.q a.3 y H A.Z.F D N.n.Z.n.Z.Z.A.A.A.A.",
"A.A.A.v.G N.Z.Z.N.H.G b.v.) k l g | o.: $ >.&.9 T.,Xe.8.T.T.>.O.s.3 t x J V.U G.N.N.B.n.Z.B.A.A.A.A.",
"A.Z.Z.A.A.N.F N.B.A.n.A.T f x.l f |  .& h $ = # k.,Xj.8.W.T.{ 8.s.3 a u V n.v.Z.A.N.F A.N.Z.A.A.A.A.",
"A.N.v.Z.A.A.G H.n.A.A.B.C u z.l f , h.6 ] z c.h d.oXT.T.T.T.t.w.s.3 p f V b.v.Z.B.n.n.B.v.A.A.F.G.A.",
"A.N.B.n.A.N.N.G F F B.v.d l z.l g : t.> $.n m $ d.oXh.j.T.T.<.8.s.3 h f T Z.v.K.F B.v.S.A.A.A.A.A.A.",
"A.B.N.H.n.n.F H.b.n.F V g x.z.l g 2 7.: *.o.] 5 d.oXj.8.T.T.O.7.s.3 h g ` U B.Z.N.A.G n.A.F.A.v.A.A.",
"A.A.v.n.A.n.n.G.F A.I T g x.z.l k k ; & & *.E.1.2.).8.7.T.T.{ { a.3 h x.g @ Z.G Z.v.F H.v.B.F.v.A.G.",
"A.A.v.Z.n.n.B.v.b.N.N.L g z.z.z.l g j a 4 : 6 4 2.).8.g.T.t.w.{ a.3 j z.g c Z.S.v.A.Z.A.F N.K.v.A.A.",
"A.F.n.Z.A.N.A.F F N.A.Y f l k l l k g f 2 8 9 5 >.s.j.j.f.8.<.,.>.s k x.l c H F.Z.F Z.G v.F.v.A.A.A.",
"A.A.F.n.F.Z.n.Z.n.Z.N.Y i i i i l k g f 2 ,.,.O.q >.`.8.>.>.Q a.% j z.x.x.l ) F.Z.B.F.n.F.F.A.A.A.A.",
"Z.B.A.A.A.B.B.n.N.Z.Z.n.B.N.F U e e e . .   & & & * n '.).).s.% . g z.x.x.l ) A.F.N.Z.F.A.N.A.F.A.A.",
"Z.F B.F.A.n.H.G N.F b.Z.A.Z.Z.B.U K Z B A < #.9.o.> 0 2.l.l.q P B d u f g f ) F.B.B.n.F.N.F Z.F.A.A.",
"B.N.N.B.B.N.F.F n.Z.S.n.A.Z.G F.v.N.B.B.B.N 5.h.6.| :.>.3.2.M G H.@ + + x c A A.N.A.v.N.A.v.A.A.A.A.",
"Z.n.F.B.n.B.B.F n.n.F F.B.B.G A.v.N.v.N.F.N.E $.9.6.].`.  O Z.v.H.G n.N.N.A.Z.v.v.Z.G v.Z.B.S.Z.n.n.",
"n.Z.A.F.Z.A.B.B.n.Z.G Z.n.U.G A.v.A.A.v.A.A.D E 7 *.^._.} V.F B.n.B.n.v.v.Z.N.F A.v.N.N.B.Z.F.N.n.A.",
"F.n.A.A.A.A.A.G N.Z.U.b.n.F Z.A.A.v.v.B.B.Z.b.m.R | 7.e.W Z.n.A.v.F.S.Z.A.A.G F.v.A.F.v.D.N.v.F.F B.",
"F.Z.B.B.B.Z.A.F N.Z.F.B.B.b.n.Z.F.B.B.D.v.Z.b.B.L.! ! ! E A.F.A.A.A.F.B.F.A.N.B.A.N.N.A.v.G A.B.Z.n.",
"F.A.N.n.n.n.n.G F.N.Z.n.A.b.F.N.Z.G F.N.b.n.N.N.A.A.A.N.B.N.B.Z.A.A.A.F N.F.F.N.F.n.n.B.G Z.A.B.A.A.",
"A.A.A.v.G n.A.Z.N.F.v.v.N.N.n.G.N.B.B.F F B.Z.Z.A.A.A.v.H.F B.n.A.F.A.G Z.N.F.F.F.Z.A.A.Z.F.A.A.A.A."
};
