/* XPM */
static char *pl_mv_lf_2[] = {
/* columns rows colors chars-per-pixel */
"50 50 201 2 ",
"   c #1E1B1F",
".  c #3E0100",
"X  c #251B1F",
"o  c #281B1F",
"O  c #391A1C",
"+  c #192C17",
"@  c #1A3C16",
"#  c #373A0D",
"$  c #28251B",
"%  c #2E1D21",
"&  c #122127",
"*  c #152E26",
"=  c #15242A",
"-  c #1A2A2C",
";  c #153225",
":  c #1C2D33",
">  c #1B3138",
",  c #1F3036",
"<  c #222F33",
"1  c #24343A",
"2  c #2B393E",
"3  c #24353C",
"4  c #39393C",
"5  c #4F0000",
"6  c #400000",
"7  c #540000",
"8  c #5B0000",
"9  c #4A1806",
"0  c #521906",
"q  c #581B1D",
"w  c #640101",
"e  c #6E0000",
"r  c #610903",
"t  c #730101",
"y  c #7C0000",
"u  c #472E0A",
"i  c #612F33",
"p  c #6D3136",
"a  c #7C3035",
"s  c #1D4618",
"d  c #1C5417",
"f  c #39470E",
"g  c #3E590E",
"h  c #35560F",
"j  c #205F19",
"k  c #365210",
"l  c #304F10",
"z  c #1D6915",
"x  c #1D7412",
"c  c #1E7C13",
"v  c #24651B",
"b  c #296812",
"n  c #366A11",
"m  c #277616",
"M  c #327813",
"N  c #3A640F",
"B  c #194422",
"V  c #1C5B27",
"C  c #275738",
"Z  c #2A592D",
"A  c #1E6621",
"S  c #277825",
"D  c #2A773B",
"F  c #2B7936",
"G  c #2E6B34",
"H  c #455210",
"J  c #2B3D43",
"K  c #343D41",
"L  c #453D41",
"P  c #274543",
"I  c #2B4047",
"U  c #2B4249",
"Y  c #274941",
"T  c #34444A",
"R  c #364246",
"E  c #345547",
"W  c #364C52",
"Q  c #3C4D52",
"!  c #3C5157",
"~  c #3C5359",
"^  c #315654",
"/  c #2D5A48",
"(  c #326753",
")  c #35704A",
"_  c #375963",
"`  c #43474A",
"'  c #424D52",
"]  c #42565C",
"[  c #44585E",
"{  c #48565B",
"}  c #525A5D",
"|  c #5A5D5E",
" . c #4D5B4B",
".. c #43665A",
"X. c #455C62",
"o. c #4B5C61",
"O. c #575F62",
"+. c #4A6166",
"@. c #4D656B",
"#. c #536165",
"$. c #52656B",
"%. c #53686E",
"&. c #5A696E",
"*. c #5C6264",
"=. c #567668",
"-. c #566D73",
";. c #5A6D72",
":. c #5B7176",
">. c #5E7479",
",. c #4E7A67",
"<. c #6B6C6D",
"1. c #6A6F70",
"2. c #636F73",
"3. c #62767B",
"4. c #64797E",
"5. c #6A7A7E",
"6. c #677477",
"7. c #7D7E7E",
"8. c #71696C",
"9. c #810000",
"0. c #8E0000",
"q. c #950102",
"w. c #AB0303",
"e. c #CF0404",
"r. c #1F8113",
"t. c #208513",
"y. c #218C14",
"u. c #23841D",
"i. c #2E8F16",
"p. c #229314",
"a. c #239C15",
"s. c #2A9716",
"d. c #25A315",
"f. c #26AE15",
"g. c #28AC1A",
"h. c #28AB16",
"j. c #27B216",
"k. c #28B517",
"l. c #29BA17",
"z. c #29B518",
"x. c #2ABC18",
"c. c #288727",
"v. c #2A9828",
"b. c #2AC218",
"n. c #448455",
"m. c #528069",
"M. c #60856E",
"N. c #647C82",
"B. c #6A7E83",
"V. c #727C81",
"C. c #6C8085",
"Z. c #6D8388",
"A. c #728186",
"S. c #71858A",
"D. c #75898E",
"F. c #79888D",
"G. c #798D92",
"H. c #748B91",
"J. c #7E9296",
"K. c #7F9499",
"L. c #8A8A8A",
"P. c #858786",
"I. c #809296",
"U. c #82969B",
"Y. c #85989D",
"T. c #889B9F",
"R. c #949495",
"E. c #88A49C",
"W. c #8C9FA3",
"Q. c #859BA0",
"!. c #8DA1A6",
"~. c #91A2A6",
"^. c #93A5A9",
"/. c #98A7AA",
"(. c #9CAEB2",
"). c #9DB0B4",
"_. c #9CB4B9",
"`. c #ADADAD",
"'. c #A1A1A1",
"]. c #A5BABE",
"[. c #A6B8BC",
"{. c #B3B3B3",
"}. c #ACBEC3",
"|. c #AFC1C5",
" X c #AFC5CA",
".X c #B3C6CA",
"XX c #B5C9CD",
"oX c #B7C5C8",
"OX c #BACFD2",
"+X c #BDD1D5",
"@X c #BFD4D8",
"#X c #C9D7DA",
"$X c #D5DDDF",
"%X c #C1C5C6",
"&X c #CADEE2",
"*X c #D1DFE2",
"=X c #D2E5E9",
"-X c #DAE9ED",
";X c #E1EEF0",
":X c #EDF5F7",
">X c #F9FBFB",
/* pixels */
"f.j.f.f.f.p.c r.f.f.r.d.p.d.f.f.f.f.f.f.f.f.a.a.p.a.p.p.j.x y.f.f.y.f.r.f.d.a.f.f.f.f.f.f.f.f.f.f.j.",
"f.f.a.h.j.a.d.j.j.f.p.a.a.f.j.j.f.f.f.f.f.f.p.y.k.p.p.a.p.x y.r.c k.f.f.c k.p.f.f.f.a.f.f.f.f.f.f.f.",
"f.a.a.y.d.x c j.j.f.c k.y.p.r.p.p.d.j.f.f.y.a.p.f.f.y.p.p.a.d.y.d.p.f.r.c f.f.f.f.f.c y.f.f.f.f.f.f.",
"f.p.j.c y.p.h.r.f.r.d.f.x p.f.a.x j.y.f.f.r.j.p.r.l.r.f.r.f.f.r.l.y.y.l.r.j.f.j.f.f.c f.p.f.f.a.p.f.",
"d.r.f.r.f.p.p.l.r.y.f.p.y.y.c p.p.p.k.p.a.f.p.x d.d.p.d.k.y.a.h.a.x a.f.p.f.f.a.f.f.y.a.a.p.f.a.c p.",
"r.d.r.d.r.d.a.j.f.d.f.p.y.r.f.f.f.a.f.p.r.d.x d.f.g H # t.d.c d.x a.f.p.f.f.f.x a.f.f.y.a.y.d.r.r.d.",
"f.p.d.r.d.f.f.f.f.f.j.f.y.a.t.j.p.d.j.f.r.f.d.f.s.0 8 9 N f.h.f.d.f.f.f.f.f.f.c d.a.f.r.j.r.c d.j.p.",
"j.j.f.f.f.j.d.f.j.f.f.h.y.a.k.c y.d.p.y.r.r.d.f.9 9.w h r.c p.f.f.f.f.d.y.f.f.c r.p.a.r.f.c p.c c d.",
"f.f.f.j.f.f.c p.f.f.f.p.p.y.d.c p.h.r.p.c g.( l r t 7 l p.d.t.d.a.f.f.c l.p.a.f.r.l.p.f.a.r.y.f.f.f.",
"f.j.p.r.p.f.c d.p.j.f.y.d.a.h.d.j.y.j.g.c.c.C.O q r 9 h p.p.r.d.d.p.f.a.f.x p.b.y.f.f.f.f.f.f.f.f.f.",
"f.a.p.d.p.c x f.d.p.r.d.a.a.f.a.c j.r.v._ _ >X_ _ O M d.f.f.h.r.j.d.x d.x y.d.r.d.f.f.a.p.f.f.a.p.j.",
"f.f.y.c t.d.d.r.f.y.c d.a.t.p.c r.v./ ,..X#X>X X[.{ / c.f.j.f.j.f.a.a.f.y.j.c j.d.f.f.r.f.a.d.d.p.f.",
"f.f.f.f.d.y.y.d.c y.d.p.f.r.t.c c.n.N.K.-X:X:X&XOXZ.%.) a.d.d.j.j.d.d.f.f.d.x j.a.d.f.a.a.r.p.j.p.f.",
"f.f.y.d.f.j.f.d.y.y.d.c a.p.d.t.D H.&X=X=X=X=XOX|.).K.-.D y.a.d.d.x p.f.f.y.d.y.j.p.r.d.c y.d.p.d.f.",
"f.p.a.c j.f.d.x t.k.y.d.y.a.r.V X.Q. X+X+X+X+XOX|.|.!.S.@.D a.p.y.f.x d.a.y.j.f.d.y.d.d.y.f.f.f.f.f.",
"f.p.a.y.d.d.p.c d.a.l.p.f.p.v.m.;.N._.XX+XOXOXXX|._.K.C.N.m.S m d.a.f.a.y.a.r.d.y.a.f.f.f.f.f.f.f.f.",
"f.d.y.f.x y.b.c f.f.f.j.f.j.( oXA.] I.}.OXOXOX|.}.[.G.3.K.U.C h.f.a.p.f.a.a.a.y.a.f.f.f.a.f.f.f.f.f.",
"f.f.r.j.f.y.y.d.f.f.j.j.f.j.( oX;XG.> T Z.^.}.).(.^.D.>.K.U.C f.f.f.f.f.f.f.r.d.f.f.f.y.a.d.f.f.f.j.",
"j.f.j.f.f.d.y.d.f.a.d.k.y.F E.#X-X}.J.C.] %.K.!./.^.D.>.G.D.C k.f.d.f.f.a.a.c r.d.f.a.p.d.y.c r.p.f.",
"f.d.d.f.f.y.k.x p.c r.y.m ^ $X=X&X=X=X].I U %.S.W.~.D.>.S.Z.C r.p.p.y.y.y.p.c j.p.d.c f.p.r.y.a.p.d.",
"f.p.x d.d.y.k.x f.y.c a.r.Y XX%.J.+X+X@X@XOX: > D.J.Z.4.>.D.Y.; c f.z d.r.r.p.y.k.p.p.d.c c a.a.d.j.",
"f.p.d.y.p.p.r.f.p.p.f.x x P  X%.J..XW.C.}.].3.+.] S.S.B.4.Z.D.* f.a.p.f.r.d.f.f.f.f.f.f.d.d.f.f.j.f.",
"f.a.p.k.p.d.c p.p.j.f.r.a.P }.%.J.|.C.! ).).!.B.I ;.B.B.>.C.S.; d.r.d.r.j.j.j.f.f.f.a.f.f.j.f.d.d.j.",
"f.f.a.p.f.a.c a.a.f.y.d.p.P }.+.K.|.B.! ).).^.C.:.I @.>.-.C.A.* f.y.y.f.f.j.f.f.f.f.c p.f.f.f.p.p.d.",
"f.f.y.d.y.f.c j.a.a.c j.y.C }.%.U.|.Z.] (.Q.Y.B.:.I $.>.;.B.4.; j.h.f.f.j.f.j.j.f.f.c d.p.f.d.p.a.d.",
"f.d.y.b.c y.c y.j.p.d.p.z P [.Z.!.[.D.;.~.J.G.%.X.3 ! %.>.3.} $ M y.d.f.j.f.j.d.t.d.r.f.d.p.x x x d.",
"a.p.a.f.x y.p.a.p.j.f.r.a.P }.}.(.!.I.I.I.J.N., > = & Q C.;.X 7 0 d.p.j.f.d.d.r.y.t.f.a.j.t.r.r.d.d.",
"d.y.d.r.x a.c a.f.f.f.y.a.c ( Q.!.Y.G.B.3.J J = = /.oX;.3 T [ L t u i.f.d.p.r.j.p.t.t.t.p.r.f.y.d.b.",
"f.f.f.f.d.f.d.f.f.j.f.a.p.b.G ;.3.%.#.o.] J T T - %X;XQ.R J $.' 9.8 N d.p.d.y.a.x x p.d.f.f.f.f.f.j.",
"f.f.f.f.f.f.f.x d.f.f.f.y.p.f.V = = = = , :.B.B.< }.;XoX;.J @.' 0.w 8 s.r.j.r.r.d.d.y.j.j.f.f.f.f.f.",
"f.f.f.y.y.a.f.c p.d.j.d.d.r.@ P.`.P.} W ;.B.}.~.5.K - - = 1 ~ ' 0.y 8 c p.d.x y.r.z d.f.p.f.f.f.f.f.",
"f.f.y.a.a.y.c c k.p.d.r.l.r.+ L.`.L.*.] X.%.G.B.;.J = 1 2 2 U ' 0.y w f d.d.x x p.y.d.t.d.d.j.j.f.f.",
"j.f.f.r.c y.d.d.y.b.c t.p.p.+ P.`.L.<.*.U ' ' ' ] T : K ' K : ' 0.t e 8 b h.c j.p.p.a.y.d.a.f.f.f.f.",
"f.d.d.f.f.a.x p.d.f.p.d.y.d.+ L.`.L.<.| % w.e.w.w.q.O = & = < ' q.y e 8 b y.y.a.f.p.x h.p.d.f.f.j.f.",
"f.y.r.f.f.f.c l.r.f.f.a.c a.c  .R.'.1.R K p a p p q 8.B.&.Q 1 o.i y e w u m y.d.a.y.y.a.y.f.f.f.f.f.",
"f.p.d.t.f.y.a.c x x d.a.p.y.f.s 7.`.1.J ~ ] +.+.X.< ~..XW.;.3 %.` y t w 8 n c b.x a.t.h.h.f.f.f.j.f.",
"f.a.p.k.y.y.x l.r.r.x r.y.k.y.s 7.5.} W._ :.|.|./.T S.!.B.] < ' e 0.y e 8 k a.a.y.h.x y.d.f.d.r.j.f.",
"f.f.r.p.f.y.y.k.c j.c y.p.y.f.z Z 4 ' G.@.X.N.B.>.W Q Q T J K q e 0.y e w 9 M c d.y.x l.y.a.k.r.f.f.",
"f.f.r.d.p.y.d.c r.a.a.a.r.d.r.d.d * E 3.o.[ W ~ ~ W J 3 2 3 4 w e 0.9.t e 8 H h.y.f.d.f.x p.b.r.j.f.",
"f.f.y.d.d.p.d.c x p.f.j.p.k.c p.s s m & < <.J #.Q : O.V.2.' o w e 0.0.y t 8 f j.d.x d.x y.j.r.f.f.f.",
"f.f.f.y.k.d.y.d.p.d.a.a.r.k.x r.r.z d F | 8.*.W U : 2.F.5.} o r w y 0.y e 8 g j.a.a.j.r.k.j.j.f.f.f.",
"d.a.f.f.f.a.a.y.r.d.h.r.d.p.c y.p.m j F P.<.O.U ~ I #.&.#.Q o 8 w y 0.e w 8 g f.j.p.d.j.j.p.f.f.f.f.",
"d.x a.f.f.y.l.c a.c r.f.j.d.d.f.f.j.m ` {.<.I P 4.:.2 & & &   6 w y 0.5 7 7 g j.a.a.y.j.p.x f.f.f.f.",
"d.y.a.a.a.y.j.x r.h.f.r.f.d.x f.t.p.p.A 4 T >.U -.;.U 3.(.5.; b 6 7 5 n m i.y.j.p.f.r.p.d.y.d.f.d.f.",
"d.p.f.a.y.a.a.x y.y.x j.a.a.c f.r.p.p.x < U @.U ] ~ ;.A.H.,.z t.l # f t.p.f.d.r.r.d.c y.d.a.f.d.y.y.",
"y.d.d.j.d.f.a.a.y.d.c d.y.b.c f.r.d.d.S P P P P U : /.C.: B x a.y.a.y.r.r.d.p.x d.r.y.y.a.d.f.a.p.j.",
"j.y.f.f.f.f.f.c p.d.b.r.y.c d.f.f.r.u.a.a.g.r.a.* & = = z a.y.f.c f.h.f.h.f.c j.y.f.f.r.d.y.y.f.x a.",
"j.d.d.a.a.d.f.x p.d.j.a.a.r.y.d.j.a.a.d.r.d.r.a.c.m c.u.r.f.f.f.j.f.f.a.f.f.p.a.f.p.a.j.r.c f.a.a.y.",
"f.f.a.p.p.y.t.c f.p.d.y.f.r.f.a.d.x f.y.y.y.y.p.f.f.f.a.a.p.a.d.f.j.f.c y.j.j.p.k.y.y.p.c f.f.a.f.f.",
"f.j.d.r.c t.d.d.a.k.r.r.p.a.y.j.p.a.d.x x a.d.d.f.f.f.r.l.x a.y.f.f.f.c d.p.j.j.j.d.f.f.d.f.f.j.f.f."
};
