/* XPM */
static char *pl_mv_rg_3[] = {
/* columns rows colors chars-per-pixel */
"50 50 211 2 ",
"   c #181819",
".  c #2F0A0C",
"X  c #380606",
"o  c #27161B",
"O  c #381316",
"+  c #183814",
"@  c #3D2309",
"#  c #3B3E0D",
"$  c #0B1C23",
"%  c #101C23",
"&  c #191A20",
"*  c #291E22",
"=  c #0F2129",
"-  c #0C2221",
";  c #13242B",
":  c #18282E",
">  c #13282F",
",  c #132C34",
"<  c #1C2C32",
"1  c #1B323A",
"2  c #173533",
"3  c #163D2C",
"4  c #22343B",
"5  c #2B353A",
"6  c #2E393D",
"7  c #2E2A2E",
"8  c #430000",
"9  c #4A0201",
"0  c #460907",
"q  c #540100",
"w  c #5B0101",
"e  c #540B04",
"r  c #560F12",
"t  c #401112",
"y  c #491C07",
"u  c #640000",
"i  c #6C0000",
"p  c #630A0C",
"a  c #730000",
"s  c #7C0000",
"d  c #710F12",
"f  c #671718",
"g  c #731808",
"h  c #45280A",
"j  c #453A0C",
"k  c #70280A",
"l  c #4E3739",
"z  c #522A2A",
"x  c #1A4D15",
"c  c #1C4118",
"v  c #1B5A15",
"b  c #1B5418",
"n  c #36480D",
"m  c #244C17",
"M  c #285D17",
"N  c #374D12",
"B  c #1D6B13",
"V  c #1B651A",
"C  c #1D6819",
"Z  c #1D7412",
"A  c #1E7B13",
"S  c #1D741B",
"D  c #1E781D",
"F  c #246B16",
"G  c #227916",
"H  c #3C7312",
"J  c #396B12",
"K  c #174724",
"L  c #1D5B24",
"P  c #1B5329",
"I  c #1F4436",
"U  c #255B37",
"Y  c #29502C",
"T  c #1D6C21",
"R  c #246928",
"E  c #207A22",
"W  c #26752A",
"Q  c #276736",
"!  c #2B7736",
"~  c #4E5432",
"^  c #243C43",
"/  c #2B3E44",
"(  c #333F44",
")  c #2A4046",
"_  c #2B434A",
"`  c #274249",
"'  c #334145",
"]  c #3B464A",
"[  c #35474D",
"{  c #344B52",
"}  c #3B4C52",
"|  c #3C5157",
" . c #395358",
".. c #29504F",
"X. c #2C6743",
"o. c #2F7745",
"O. c #315661",
"+. c #424B4E",
"@. c #43595F",
"#. c #44565B",
"$. c #58595A",
"%. c #485146",
"&. c #615A5C",
"*. c #4C7450",
"=. c #495E63",
"-. c #435B61",
";. c #525D61",
":. c #4C6166",
">. c #4D6268",
",. c #476467",
"<. c #546266",
"1. c #51666C",
"2. c #53696D",
"3. c #566F75",
"4. c #5A6E73",
"5. c #577076",
"6. c #5A7076",
"7. c #5A7379",
"8. c #507B65",
"9. c #626563",
"0. c #60767B",
"q. c #63797E",
"w. c #667174",
"e. c #717771",
"r. c #830000",
"t. c #8C0101",
"y. c #940202",
"u. c #9C0101",
"i. c #A20101",
"p. c #AC0202",
"a. c #B30202",
"s. c #CA0000",
"d. c #1F8113",
"f. c #208513",
"g. c #218C14",
"h. c #24821B",
"j. c #248B1B",
"k. c #2B8E15",
"l. c #229314",
"z. c #239B15",
"x. c #25951A",
"c. c #259D19",
"v. c #2C9816",
"b. c #25A315",
"n. c #26AE15",
"m. c #28AC17",
"M. c #27A51A",
"N. c #28A41C",
"B. c #27AB18",
"V. c #27B116",
"C. c #28B517",
"Z. c #29BA17",
"A. c #29B518",
"S. c #2ABC18",
"D. c #2A892B",
"F. c #319A30",
"G. c #2BA024",
"H. c #44903B",
"J. c #2BC218",
"K. c #3F8151",
"L. c #5A835C",
"P. c #528F4B",
"I. c #588073",
"U. c #65866D",
"Y. c #667B81",
"T. c #697D82",
"R. c #747E83",
"E. c #6C8186",
"W. c #6D8388",
"Q. c #638186",
"!. c #72868B",
"~. c #75898D",
"^. c #798D91",
"/. c #728C93",
"(. c #7E9396",
"). c #7C9398",
"_. c #809397",
"`. c #819599",
"'. c #85999E",
"]. c #8B9A9D",
"[. c #848F93",
"{. c #859BA0",
"}. c #8A9DA2",
"|. c #8DA2A6",
" X c #8EA4A8",
".X c #91A3A7",
"XX c #92A5A9",
"oX c #9BABAF",
"OX c #96A8AC",
"+X c #9BADB1",
"@X c #9EB1B5",
"#X c #9DB6BB",
"$X c #A4B7BB",
"%X c #A1A3A5",
"&X c #ACBEC2",
"*X c #A7BDC1",
"=X c #AEC2C6",
"-X c #B5C9CD",
";X c #B6C8CC",
":X c #B9CDD1",
">X c #B7CCD0",
",X c #BDD1D5",
"<X c #BFD4D8",
"1X c #C8D7D8",
"2X c #C9DDE0",
"3X c #CFE3E6",
"4X c #D5E8EC",
"5X c #DEEDF0",
"6X c #E1EDEF",
"7X c #E9F1F2",
"8X c #EAF3F4",
/* pixels */
"n.V.n.n.n.l.A d.n.n.f.b.l.z.V.n.n.n.V.n.n.n.z.z.l.b.l.z.n.Z g.b.n.l.n.d.n.b.l.n.n.n.n.n.V.n.n.n.V.n.",
"n.n.z.m.n.b.b.n.n.n.z.l.z.V.n.n.V.n.V.n.n.n.g.g.V.l.l.z.g.A g.f.Z n.n.n.A C.z.n.n.V.l.V.n.n.V.n.V.n.",
"n.z.z.g.b.Z A V.n.n.A V.g.g.f.l.l.n.n.n.n.g.b.l.n.b.g.l.l.l.n.g.n.z.V.d.d.n.n.n.n.V.A l.n.n.n.n.n.n.",
"n.l.V.A g.l.m.d.n.g.z.n.A l.n.z.Z V.f.n.n.f.n.g.f.Z.f.n.f.n.n.d.J.d.d.C.A n.n.V.n.n.Z n.l.n.n.z.l.n.",
"b.d.n.d.n.l.l.Z.g.g.n.l.g.f.f.l.g.z.V.g.z.n.g.A b.b.l.b.Z.g.z.n.z.Z z.n.l.n.n.b.V.n.l.z.z.l.n.l.A z.",
"d.b.d.b.d.b.z.V.n.b.n.l.g.d.n.n.n.l.n.z.f.b.Z z.V.l.V.z.n.b.A b.Z z.n.z.n.n.n.Z z.n.C.d.z.l.b.d.d.z.",
"n.l.b.d.b.n.n.n.n.n.n.n.g.z.f.n.l.b.V.b.f.n.b.n.v.f.v.k.v.b.n.n.b.n.n.n.n.n.n.A b.z.n.d.n.d.d.b.n.l.",
"V.V.n.n.n.V.b.n.V.n.n.n.g.z.V.f.f.n.z.g.d.f.b.n.9 w w w 9 B g.n.n.n.V.b.d.n.n.A d.l.l.d.n.A l.A A z.",
"V.n.V.n.n.n.A z.n.n.n.l.l.g.b.A l.n.d.z.d.Z.l.z.N e s i u N Q G.z.n.n.d.C.l.z.n.f.Z.l.n.z.f.g.n.n.V.",
"n.n.l.f.l.n.A z.z.n.n.f.b.z.n.z.V.d.V.n.z.d.C.l.l.@ s i p O =.P.D.x.n.z.n.Z l.J.f.n.n.n.n.n.V.n.n.n.",
"n.l.l.z.l.A Z n.z.z.d.n.z.z.n.z.A V.d.n.d.b.V.n.n.m.X X  .O.1XI.O.! A M.Z d.n.d.b.V.V.z.l.n.V.z.z.n.",
"n.n.l.d.f.z.n.f.n.g.A z.z.f.g.A d.S.A l.V.d.n.z.z.m.6 5 |.$X8X1X*XI.X.D.d.C.d.V.b.n.n.f.b.z.b.z.l.n.",
"n.n.n.n.b.g.g.b.A g.n.f.n.f.f.d.z.V.Z g.Z.A d.l.x.D.,.,.=X2X7X8X5X|.3.K.N.z.Z C.z.b.n.z.z.d.l.V.l.n.",
"n.n.g.n.n.n.n.z.f.l.b.d.z.l.z.f.C.d.l.g.V.A l.d.d...).XX*X>X3X4X4X4X<X/.! l.b.d.V.l.d.b.A g.b.l.b.n.",
"V.l.z.A n.V.n.Z f.Z.g.b.g.z.f.z.z.S.d.n.d.A d.B...7.).$X=X:X<X<X<X<X-X{. .S V.m.b.g.b.b.g.n.n.n.n.n.",
"n.l.z.f.z.b.l.A z.z.Z.l.n.l.n.n.n.n.n.V.c.n.V.D.7.Y.~.$X=X-X:X:X:X>X$XW.,.L.G b.l.z.n.n.V.n.n.n.n.n.",
"n.b.g.n.Z g.Z.A n.n.n.n.V.n.n.V.V.V.n.z.g.g.M.` &X3.Y.+X&X=X:X:X,X;X`.| _.+XX.g.c.n.n.b.z.V.n.n.n.n.",
"n.n.f.C.b.l.g.b.n.n.n.n.n.n.n.n.n.d.n.l.z.A M.` &X3.T..X@X@X&X+X^.| 1 !.6X+XX.c.n.n.n.g.z.z.n.n.n.V.",
"n.n.n.V.n.b.g.b.n.z.b.n.g.l.n.n.d.z.x V l.m.S ^ $X3.T..XoXXX}.Y.:.5.T.#X6X>XU.W b.n.z.l.b.g.d.d.l.n.",
"n.b.b.n.n.g.Z.Z l.A f.g.A g.l.b.l.d.  c G V.h.1 }.5.T.|.XX_.7._ 1 }.4X4X3X6X*Xo.l.b.A V.l.d.g.l.g.n.",
"n.l.A b.b.g.Z.A n.g.A z.g.b.b.Z x + b.g.+ z.< =X5.T.T.(._./ ,  X<X<X<X<XE.W. XQ V.l.l.b.Z A z.z.n.n.",
"n.l.b.g.l.l.d.b.l.z.b.Z Z Z b.B v F *.P.B x < @X5.T.T._.:.@.2.OX=X`.|.-XE.Q. XQ V.n.n.n.b.n.n.n.n.n.",
"n.z.l.C.g.b.A l.l.n.n.g.z.z.z.v M H.e.L.h.  , .X5.Y.T.!.^ 4.}.+X@X:.Y.=XE.Q.|.Q n.V.z.n.n.n.n.b.b.n.",
"n.n.z.g.n.b.A z.z.n.l.z.z.d.x m L.<.] /  .{ < .X5.5.T.1 2.Y.}.+X@X:.Y.=XE.Y.{.R n.n.A l.n.V.n.l.l.b.",
"n.n.g.b.g.n.A V.z.z.Z n.g.v Y 9.9.+.( 3.`.}.< {.5.3.Q.1 2.Y.).}.oX1.E.=X!.E.'.Q n.n.A b.l.n.n.g.z.b.",
"n.n.f.J.A g.A g.n.z.b.z.B m $.e.$.6 / w.].%X* Y.7.3.Y./ -.3.~._..X0.!.*X).).'.Q f.b.d.n.n.l.B Z Z b.",
"z.g.z.n.Z g.z.z.z.n.n.A x %.e.&.5 : 6 %   9 a = `.5.5.5.1 , 4.^._._._.|.@X=X{.U g.f.b.b.V.f.f.f.b.n.",
"b.g.b.f.Z l.A z.n.n.n.v F *.9.+.4 < 5 . 0 a a p / 4 4 4 = / @.[ 4.!.^.].XX). .N.g.f.f.f.l.d.b.g.b.Z.",
"n.n.n.n.b.n.n.b.n.n.n.x B P.$.] < o z q u s s r.o O O o = >.Y._ | >.2.4.Y.8.T b.A Z l.b.n.n.n.n.n.n.",
"n.n.n.n.n.n.n.A b.n.n.x v e.$.] 7 9 q s r.s s t.a t.p.9 ^ }.2XT., $ $ $ = V A f.b.n.f.n.n.n.n.n.n.n.",
"n.n.n.g.g.z.n.A z.b.V.x G U.l 9 w s r.r.s s r.a r.i.9 ;.: T.+X>.> ^  .Q x.x.Z f.d.B b.n.z.n.V.n.n.n.",
"n.n.g.z.z.g.A A C.l.b.+ m ~ z q u a r.r.s r.r.s y.s . } % T.Y.3.^ / 7.L.x.n.A B l.g.b.f.b.b.n.n.n.n.",
"V.n.n.f.A g.n.b.g.Z.G + . 8 w a i i s s s r.a t.i.8 % % $ T.4 w.-.^ +XXX! m.A V.l.l.z.d.m.z.n.n.n.n.",
"n.b.b.n.n.z.Z y e e e 9 w a s a i s s r.r.s y.i.9 s.i.y.t.* =.q.~.=. X).Q d.g.z.n.l.Z n.l.b.n.n.V.n.",
"n.l.A n.n.n.A H e w u w u a i i a s r.s s t.u.a l d p r r   ) 2.>.<..XY.L d.d.b.z.g.g.z.d.n.n.V.V.n.",
"n.g.b.f.n.g.l.A h u i i i i u i s s r.a s u.y.0 2.; = ; ; ; ; #.4 <.}.1.T b.d.S.B M.d.m.n.n.n.n.n.n.",
"n.z.l.Z.g.g.Z Z.G h 8 8 8 u s s a a s u.p.p.X $ $ 5.3.T._.`.0.4 $ $ $ b b.d.z.z.l.V.A d.n.V.n.d.n.V.",
"n.n.d.g.n.g.g.V.A @ w u u i a a s t.u.u.a i o 4 5 ` / [ | | ) R S D S c.z.d.n.A b.d.A Z.d.z.C.d.n.n.",
"n.n.f.b.g.g.b.d.g.n e s s a a a t.u.u.y.X O < +.} : < < $ % ; j.c.j.B.d.C.d.M.n.d.n.z.n.Z l.Z.d.n.V.",
"n.V.g.b.n.g.b.A Z l.j u a a r.i.a.y.8 X : +.} ;.<.<.R.R.: ( ` R U 1 L Z.d.n.d.C.b.Z b.Z l.V.d.n.n.V.",
"V.V.V.d.C.b.l.b.g.z.j u a s i.t.i f ;.$.; +.$.w.4 4 / [ / ] / Q ,.{ E b.l.n.n.V.b.z.n.d.V.V.n.V.n.n.",
"b.z.V.n.V.z.z.d.l.b.j u a y.i.g @ l ^.<.% ( #.1.3 K K P ( ] ^ { 5.{ E S l.V.n.n.V.l.n.V.V.l.n.n.n.V.",
"b.Z z.V.n.d.Z.A l.Z h i t.p.s N V -.`.; $ $ $ - d.A A z.2 ' 1 0.{ , h.b.B l.n.n.z.z.g.V.l.Z b.V.n.n.",
"z.l.z.z.z.l.C.Z g.b.v.h t.t.j v.T < 0.{.I G V b l.n.l.A h.I , 2._ P d.z.d.b.z.n.l.n.d.l.n.d.n.n.b.n.",
"b.g.V.z.d.b.z.Z l.d.Z J k k J n.V 4 T.).W z.g.g.g.B B b.z.L 2  .U F j.l.l.m.b.d.d.b.A d.b.z.n.b.g.g.",
"g.b.n.V.b.n.z.z.l.b.A b.# H A n.V =.}.U b.n.Z d.A z.b.g.n.b.3 , F c.d.d.d.b.l.Z b.d.l.l.z.b.V.l.g.n.",
"V.l.n.n.n.n.n.A l.b.J.d.j.A z.n.n.W _ 4 P b.d.l.b.A A l.V.z.d.n.A V.V.n.n.n.A V.l.b.n.d.b.l.d.V.Z b.",
"V.b.z.z.z.b.n.Z l.b.V.z.b.d.d.b.V.x.W W R m.g.z.n.n.n.n.z.V.V.V.V.n.V.z.V.n.l.z.n.l.z.V.d.A n.z.z.g.",
"V.n.l.l.g.g.g.A V.l.b.g.n.f.V.z.b.Z n.l.f.f.l.l.b.V.n.z.z.l.z.b.V.n.n.A l.n.V.l.V.d.l.z.A n.b.z.V.V.",
"n.n.b.d.A g.b.b.l.Z.f.A z.l.f.V.l.z.b.Z Z z.z.n.n.V.n.f.Z.Z z.f.n.n.n.A b.l.V.V.V.b.n.n.b.n.V.n.n.n."
};
