/* XPM */
static char *pl_mv_rg_2[] = {
/* columns rows colors chars-per-pixel */
"50 50 197 2 ",
"   c #151817",
".  c #350000",
"X  c #241418",
"o  c #331310",
"O  c #391806",
"+  c #142A12",
"@  c #182417",
"#  c #153519",
"$  c #0B1C24",
"%  c #101F25",
"&  c #0E2323",
"*  c #0F2A22",
"=  c #0E222A",
"-  c #15262C",
";  c #16282F",
":  c #123524",
">  c #132A32",
",  c #1C2D34",
"<  c #1E353C",
"1  c #1F3735",
"2  c #302024",
"3  c #202F35",
"4  c #322F34",
"5  c #203037",
"6  c #23353B",
"7  c #26383F",
"8  c #28353A",
"9  c #440201",
"0  c #4B0000",
"q  c #4F0D04",
"w  c #540201",
"e  c #5B0000",
"r  c #500F04",
"t  c #491E07",
"y  c #501004",
"u  c #5B1104",
"i  c #5E1A1C",
"p  c #640000",
"a  c #6D0000",
"s  c #720000",
"d  c #7C0101",
"f  c #73181A",
"g  c #46230A",
"h  c #45363A",
"j  c #194B14",
"k  c #184414",
"l  c #1B5717",
"z  c #36470E",
"x  c #375B12",
"c  c #334E10",
"v  c #1A6012",
"b  c #1C6D13",
"n  c #1C6A1B",
"m  c #1D7412",
"M  c #1F7C13",
"N  c #266A13",
"B  c #386F10",
"V  c #267916",
"C  c #347413",
"Z  c #1C5B29",
"A  c #255A3A",
"S  c #24513B",
"D  c #2C543A",
"F  c #257726",
"G  c #286438",
"H  c #29753A",
"J  c #42410C",
"K  c #283D43",
"L  c #323B40",
"P  c #453B40",
"I  c #234244",
"U  c #2A4249",
"Y  c #274148",
"T  c #32454B",
"R  c #36444A",
"E  c #274953",
"W  c #2C4B53",
"Q  c #334D54",
"!  c #3D4C52",
"~  c #2F5A55",
"^  c #3B5056",
"/  c #375259",
"(  c #3B545A",
")  c #365057",
"_  c #2C6943",
"`  c #316645",
"'  c #2D7140",
"]  c #357150",
"[  c #445257",
"{  c #44555B",
"}  c #4C565A",
"|  c #535C5F",
" . c #42484D",
".. c #445C62",
"X. c #4B5E63",
"o. c #525F64",
"O. c #4C6166",
"+. c #4D666C",
"@. c #476A6E",
"#. c #556468",
"$. c #4A6B74",
"%. c #566D73",
"&. c #586D73",
"*. c #5B7176",
"=. c #5C7379",
"-. c #4E7568",
";. c #6C6D6D",
":. c #636768",
">. c #667568",
",. c #616D71",
"<. c #62767C",
"1. c #637A7E",
"2. c #6D7B7F",
"3. c #717574",
"4. c #767877",
"5. c #546A52",
"6. c #820000",
"7. c #8C0000",
"8. c #820D0E",
"9. c #900000",
"0. c #980D0E",
"q. c #871618",
"w. c #9A191A",
"e. c #A90D0F",
"r. c #1F8113",
"t. c #208513",
"y. c #218C14",
"u. c #2C8917",
"i. c #229314",
"p. c #239B14",
"a. c #299718",
"s. c #25A315",
"d. c #26AE15",
"f. c #28A91B",
"g. c #28A719",
"h. c #27B216",
"j. c #28B517",
"k. c #29BA17",
"l. c #29B518",
"z. c #2ABC18",
"x. c #278626",
"c. c #2A9823",
"v. c #2AC218",
"b. c #5B8075",
"n. c #5E7981",
"m. c #667C81",
"M. c #6A7E83",
"N. c #737E82",
"B. c #6B8085",
"V. c #6E8489",
"C. c #72878B",
"Z. c #74898E",
"A. c #788387",
"S. c #758C91",
"D. c #7A8D91",
"F. c #7E9296",
"G. c #7E9796",
"H. c #818182",
"J. c #898D8F",
"K. c #809397",
"L. c #829599",
"P. c #85999E",
"I. c #8A989A",
"U. c #979898",
"Y. c #83A498",
"T. c #8A9DA2",
"R. c #8EA1A5",
"E. c #8FA3A8",
"W. c #93A5A9",
"Q. c #95A8AC",
"!. c #98AAAF",
"~. c #9DA4A5",
"^. c #9BADB1",
"/. c #95ABB0",
"(. c #9EB1B5",
"). c #A6A9AA",
"_. c #A4B8BD",
"`. c #A6B7BA",
"'. c #B4B5B5",
"]. c #ABBEC2",
"[. c #A7BCC0",
"{. c #AEC1C6",
"}. c #B1C2C6",
"|. c #B1C5C9",
" X c #B6CACE",
".X c #BACFD3",
"XX c #BBD0D4",
"oX c #BFD4D8",
"OX c #C1D5D9",
"+X c #C5D6DA",
"@X c #D3DFE1",
"#X c #CFE2E6",
"$X c #D5E7EA",
"%X c #DFEDF0",
"&X c #E9F3F5",
"*X c #FEFEFE",
"=X c #F7FBFB",
/* pixels */
"d.h.d.d.d.i.M r.d.d.r.s.i.s.d.d.d.d.d.d.d.h.i.p.i.s.i.i.h.m y.d.d.r.h.r.d.s.i.d.d.d.h.d.d.d.h.h.d.d.",
"d.d.p.d.d.p.d.h.d.d.i.i.s.h.d.d.d.d.h.d.d.d.i.y.j.i.y.s.i.m y.t.M h.h.d.M j.p.d.h.d.p.d.d.d.d.d.h.d.",
"d.p.p.y.s.m M d.d.d.M k.y.i.r.i.i.d.d.d.h.y.s.i.d.g.y.i.i.i.s.y.d.p.h.r.r.d.d.d.d.h.m r.d.d.d.d.d.d.",
"d.i.h.M y.y.d.r.d.y.p.d.m i.d.s.m h.t.d.h.V a.V N z.y.s.t.d.d.t.v.r.r.j.M h.h.d.h.h.M h.i.d.d.p.i.d.",
"s.r.d.r.d.i.i.j.i.t.s.i.y.r.r.i.i.i.h.i.p.V 0 e e i.i.s.k.y.p.d.p.m p.d.r.d.d.s.d.d.r.d.p.i.d.i.M i.",
"y.s.r.s.y.s.i.d.d.s.d.i.y.r.d.d.d.i.h.i.r.p.z w 6.g u.p.d.s.M s.m p.d.i.j.d.d.m p.d.j.r.s.r.s.M r.s.",
"d.i.s.r.s.d.h.h.d.d.d.d.i.p.t.h.i.s.j.d.t.s.u.0 7.w x u.g.d.s.h.s.d.h.h.h.h.d.M p.p.d.r.h.r.r.s.h.r.",
"d.d.d.d.d.h.s.d.d.d.d.d.i.i.h.r.y.s.i.y.r.r.u.0 s s 0 4 _ M i.d.h.d.h.s.r.d.d.M r.i.p.r.d.M p.M M d.",
"d.d.d.h.d.d.r.i.d.d.d.i.i.t.s.M i.d.r.p.r.j.y.C 9 P L D.Y.] ` f.p.d.d.M j.i.p.h.r.k.i.d.s.t.y.d.d.d.",
"d.d.i.r.i.d.M s.i.d.d.y.s.s.d.s.h.r.h.h.p.y.f.x.o ..$.`.].%.@.c.c.i.d.p.d.m i.v.r.d.d.d.d.d.d.h.d.d.",
"d.p.i.s.i.M m d.s.i.r.s.i.p.d.i.M h.r.d.r.s.c.E W |.#X&X*X=X#XE E x.M s.m r.d.r.d.d.d.s.i.d.h.i.p.d.",
"d.h.y.M t.s.s.r.h.y.r.p.s.t.i.M r.z.M y.h.F ] B.S.].XX#X%X%X$X(./.@.x.d.r.j.r.d.s.d.d.t.s.p.p.s.y.d.",
"d.h.h.d.s.y.y.s.M y.s.i.d.r.t.r.p.h.m y.h.G @.G./.{. XOX#X#X#X#X.X=.H p.d.p.m h.i.s.d.p.p.r.i.h.i.d.",
"d.d.y.d.d.d.d.s.t.i.s.M i.i.s.y.j.r.i.r.H ..V.L.{.{. XXXXXXXXXXX}.F.{ Z d.i.s.y.j.i.r.s.M y.s.i.d.d.",
"d.i.i.M d.d.s.m t.j.y.s.i.i.t.i.p.z.r.F =.S.=.C.`.].|. XXXXXXX|.P.X.b.G.H r.d.d.d.t.s.s.i.d.d.d.d.d.",
"h.i.i.y.s.s.i.M p.s.k.i.h.i.d.d.h.h.j.G S.E.=.M.^.[.[.|. X|.[.T.*.X.).].~ s.M s.i.p.d.d.d.d.d.d.d.d.",
"d.s.y.d.m y.v.M d.d.d.d.h.d.d.d.h.h.d.G V.E.=.M.W.^.^._.`.T.1.> > (.&X].~ p.p.r.s.d.d.s.i.h.d.d.h.d.",
"d.d.t.h.d.y.y.s.d.d.d.d.d.d.d.d.d.r.d.Z m.L.=.M.W.Q.E.F.<.Q ! !./.+X%X@X`._ r.s.h.h.h.r.p.p.d.d.d.d.",
"d.d.d.d.d.s.y.p.d.p.s.d.i.i.d.d.t.k.n ` <.S.=.m.E.E.Z.&.../ { #X#X#X.XOX@X~ V r.s.d.s.i.s.y.r.r.i.d.",
"d.s.s.d.d.y.k.m i.M t.y.M y.i.s.y.z.& D.G.=.B.B.F.L.Q > &.oXoXoX+X+Xb.*..XI m h.i.s.M h.i.r.i.p.y.d.",
"d.i.M s.s.y.k.M d.y.M p.y.s.s.m i.y.* B.Z.=.M.M.L.{ X.&.L.]._.O.(. XB.%. XI i.r.j.i.i.s.M M i.p.d.d.",
"d.i.s.y.i.i.r.s.i.p.s.m m m s.y.d.M & 2.C.=.m.B.M.K +.F.!.^.!.> T. XB.%.|.I d.d.d.d.d.d.d.s.d.j.d.d.",
"d.p.i.h.y.s.M i.i.d.d.y.p.p.p.p.s.d.* 2.C.%.=.m.> %.1.K.Q.`./.> P. XB.$.{.I d.d.d.d.p.h.d.d.d.s.s.d.",
"d.d.p.i.d.s.M p.p.d.i.p.p.M i.p.i.d.* <.V.%.=.m.> +.1.D.P.R./.< R. XC.%.[.I d.h.d.h.M y.d.d.s.i.i.s.",
"d.d.y.d.y.d.M d.p.p.M h.y.i.M M i.u.@ o.1.*.%.&.> ..%.M.F.P.Q.Q T.}.F.B.{.I d.d.d.d.M s.i.d.d.y.p.s.",
"h.s.y.k.M y.M t.h.i.s.i.m m d.d.d.w w X o.Z...$ $ > > { C.K.K.K.L.Q.(.{.{.I h.s.t.s.r.d.s.i.m m m s.",
"p.i.i.d.m y.p.p.p.d.d.V p.y.d.a.J a h ! ! U ^ R.).< % , T ^ C.C.F.P.W.T.-.F d.r.y.t.d.p.j.t.r.t.s.d.",
"s.y.s.y.m i.M p.d.d.d.i.p.t.s.B e 6. .+.U - O.$X=X8 ; < , 6 &.&.m.M.S.1.A p.r.d.i.r.r.r.p.r.s.y.s.k.",
"d.d.d.s.s.d.d.d.d.d.d.p.i.v.x e a 9.[ +.U [ ].$X*X6 X.m.<.X.$ $   $ % Z i.s.t.s.M m i.s.d.d.d.d.d.d.",
"d.h.h.d.d.d.d.m s.h.d.d.i.i.C p d 7.[ ( 6 , R [ [ #.Z.W.T.*.( < } 4.J.>.j h.r.r.p.d.y.d.d.d.d.d.d.d.",
"d.d.d.y.y.p.d.m i.s.l.p.p.t.x p d 9.! Q 6 - - $ - &.D.W.P.=.+.W :.U.'.H.+ s.m t.r.b s.s.p.d.d.d.d.d.",
"d.d.y.p.s.y.M M l.y.s.t.l.c e s d 7.! , 8 [ [ $ K Q / / / Q U ;.;.U.'.b.+ s.M b i.y.s.y.s.s.d.d.d.d.",
"d.d.d.t.M y.s.s.i.k.M t.y.z p s d 7.[ , - > 3 % f q.q.w.w.f ; ;.;.U.'.H.+ s.M h.i.i.i.y.s.p.d.d.d.h.",
"d.s.s.d.d.p.m i.p.d.i.s.M J p s d 8.{ , ; 3 8 8 d 0.0.e.e.q.; #.3.U.).3.+ y.y.p.d.i.m d.i.s.d.h.d.d.",
"d.i.M d.d.d.M k.y.d.d.p.g p a a d / %.6 O.T.].$X% Q / / ) / ) $ U.'.;.k y.y.y.s.p.y.y.p.y.h.d.d.d.h.",
"d.i.p.y.d.i.i.M m m s.p.g p a d 6.i { , ^ C.Q.].% M.T.E.Z.+.( A.[ U.:.j d.s.M z.m p.t.d.d.d.d.d.d.h.",
"d.p.i.k.y.y.m k.V y.m N g p a d 7.s  .3 T &.C.T.- S.!.(.L.+.{ (.8 4.5.l p.y.p.p.y.d.M y.s.h.s.t.d.d.",
"d.d.r.y.d.y.y.k.M d.M y p a s 6.9.a p P < $ $ % / / / ^ / ..*.K.,   v j.p.M s.V s.y.m k.y.i.j.r.d.d.",
"d.d.t.s.y.y.p.M r.i.i.y a s d 7.7.a p 2 L { o.o., R { Q ^ | 6 U F @ l y.h.y.s.d.y.s.p.d.m i.z.r.d.d.",
"d.d.y.s.d.i.s.M m i.d.y p s 6.7.7.a p X R ,.N.N.$ R } ^ { :.- * y.j l k.r.d.y.d.s.m s.m y.d.y.d.j.d.",
"d.h.h.y.h.s.i.s.y.s.i.y p s 6.7.d p p X } N.A.T.$ K I } ;.;.>.j.+ v i.s.y.h.h.d.p.p.d.y.d.d.d.d.d.d.",
"d.i.d.h.d.p.p.t.r.d.d.y e e a 7.d p 9   , L K R ( +.Q W | 4.U.k V m s.m i.d.d.d.h.p.d.d.d.i.d.h.d.d.",
"p.m p.d.d.y.k.M p.m r.g t O u 6.s p O   - 3 3 % %.m./ Y [ 3.).+ m s.h.s.m y.h.h.p.p.y.d.i.b s.h.h.d.",
"p.i.p.p.p.y.j.m r.d.h.r.h.s.c 9 9 . i.: m. X(.> %.%.) O.+.1   r.k.M i.p.r.s.i.h.i.d.t.i.s.y.d.d.s.h.",
"d.y.d.p.r.s.p.m i.r.m h.p.p.N u.N V y.V D { *.W.K Q U W W < 1 r.j.M r.p.i.d.s.r.r.s.M r.s.p.d.s.r.i.",
"t.s.d.j.s.d.p.p.y.s.M s.y.v.V d.r.f.p.y.N : Q _.& < S S A A S s.r.p.r.r.r.s.i.m s.r.i.i.p.s.d.p.y.d.",
"h.y.d.d.h.h.h.M i.s.v.r.i.M s.d.d.r.r.p.g.V & $ $ $ l p.d.p.y.d.r.d.h.d.d.d.M h.r.h.d.r.s.i.y.d.m s.",
"j.s.s.i.i.s.h.m y.d.h.p.p.r.r.s.d.p.p.g.r.g.F y.a.a.f.h.s.d.h.d.d.h.h.p.d.d.i.p.h.i.p.d.r.V d.p.s.r.",
"d.d.i.i.i.y.t.M j.i.s.y.d.r.j.i.s.M d.i.t.t.i.i.d.d.d.i.p.i.p.s.h.d.d.M i.d.h.i.h.r.y.p.r.s.d.p.d.d.",
"d.d.s.r.M y.d.s.y.j.r.r.i.i.t.k.i.i.s.m M p.p.d.d.d.d.r.v.m p.t.d.d.d.M s.i.h.h.h.s.h.d.s.h.h.h.d.d."
};
