/* XPM */
static char *Screen_20Shot_202021_09_20_20at_204_25_49_20PM[] = {
/* columns rows colors chars-per-pixel */
"50 50 224 2 ",
"   c #000001",
".  c #000901",
"X  c #00000B",
"o  c #080709",
"O  c #100000",
"+  c #10000A",
"@  c #1A000B",
"#  c #001004",
"$  c #021A03",
"%  c #00160F",
"&  c #1C180E",
"*  c #000113",
"=  c #000814",
"-  c #00021A",
";  c #130612",
":  c #021314",
">  c #04171A",
",  c #191818",
"<  c #320005",
"1  c #240012",
"2  c #280013",
"3  c #2F0C12",
"4  c #310012",
"5  c #380612",
"6  c #3C001D",
"7  c #291A17",
"8  c #002402",
"9  c #002A02",
"0  c #002B08",
"q  c #16280A",
"w  c #003801",
"e  c #033803",
"r  c #00320A",
"t  c #003C0D",
"y  c #1B231A",
"u  c #2A2315",
"i  c #24241A",
"p  c #292218",
"a  c #342515",
"s  c #33261D",
"d  c #3C251C",
"f  c #332B1D",
"g  c #3C2C1A",
"h  c #203313",
"j  c #1A1321",
"k  c #2B2A23",
"l  c #362921",
"z  c #333321",
"x  c #3D3524",
"c  c #400517",
"v  c #431E1A",
"b  c #442A17",
"n  c #4A2B1E",
"m  c #522919",
"M  c #44321D",
"N  c #4A371C",
"B  c #56391B",
"V  c #603B1C",
"C  c #4E2E20",
"Z  c #453523",
"A  c #443824",
"S  c #4B3925",
"D  c #543521",
"F  c #533B23",
"G  c #5C3E26",
"H  c #543D2A",
"J  c #653A23",
"K  c #004507",
"L  c #18430F",
"P  c #004D10",
"I  c #1E4B15",
"U  c #025311",
"Y  c #055A14",
"T  c #185613",
"R  c #145B13",
"E  c #24581A",
"W  c #016312",
"Q  c #056C18",
"!  c #1A6818",
"~  c #1D6E1A",
"^  c #0C7013",
"/  c #1E741A",
"(  c #187A1A",
")  c #216519",
"_  c #2E631D",
"`  c #236E1B",
"'  c #296C1D",
"]  c #22741B",
"[  c #2A761D",
"{  c #237B1C",
"}  c #2C7B1F",
"|  c #2B6A20",
" . c #306B20",
".. c #2E7520",
"X. c #2D7C20",
"o. c #317520",
"O. c #337E22",
"+. c #3B7E24",
"@. c #5F451C",
"#. c #62431F",
"$. c #574626",
"%. c #5C4422",
"&. c #55412A",
"*. c #5D422C",
"=. c #624324",
"-. c #684925",
";. c #6A4D25",
":. c #62462A",
">. c #644B2B",
",. c #6A4C2C",
"<. c #744A2C",
"1. c #6A522C",
"2. c #74552C",
"3. c #7B512B",
"4. c #664D31",
"5. c #6C5132",
"6. c #745533",
"7. c #7A5734",
"8. c #7E5C36",
"9. c #7B5D39",
"0. c #845C32",
"q. c #865B35",
"w. c #8F662F",
"e. c #9C682F",
"r. c #8C6336",
"t. c #8B6937",
"y. c #84633B",
"u. c #8A6638",
"i. c #8C643B",
"p. c #926635",
"a. c #946C36",
"s. c #9B6C33",
"d. c #916539",
"f. c #916A3B",
"g. c #9C6E39",
"h. c #98723C",
"j. c #A56D2E",
"k. c #A26E33",
"l. c #A56B37",
"z. c #A47135",
"x. c #AB7334",
"c. c #A3733B",
"v. c #AC763C",
"b. c #AD7A3D",
"n. c #B07436",
"m. c #B27939",
"M. c #B47B3C",
"N. c #BB7D3D",
"B. c #946C42",
"V. c #977245",
"C. c #AC7542",
"Z. c #A77944",
"A. c #B27C42",
"S. c #B47A45",
"D. c #25841E",
"F. c #2C841E",
"G. c #258B1F",
"H. c #25911F",
"J. c #278721",
"K. c #2D8321",
"L. c #268C20",
"P. c #2C8D21",
"I. c #328422",
"U. c #348C24",
"Y. c #3D8A26",
"T. c #269320",
"R. c #2A9321",
"E. c #279A21",
"W. c #2A9C22",
"Q. c #349325",
"!. c #349A25",
"~. c #399B27",
"^. c #3A9728",
"/. c #3C9C28",
"(. c #2CA424",
"). c #2DAC25",
"_. c #34A326",
"`. c #38A127",
"'. c #32AC27",
"]. c #37A628",
"[. c #39A528",
"{. c #36AC28",
"}. c #3AAC29",
"|. c #2EB226",
" X c #30B127",
".X c #33B329",
"XX c #3BB22B",
"oX c #32BA29",
"OX c #3CBA2C",
"+X c #409829",
"@X c #43A72C",
"#X c #42AA2C",
"$X c #43B52D",
"%X c #41BC2E",
"&X c #32C02A",
"*X c #BA853E",
"=X c #C1833A",
"-X c #A98347",
";X c #B58144",
":X c #BB8344",
">X c #BA8648",
",X c #C38544",
"<X c #C78A46",
"1X c #CC8C45",
"2X c #C28449",
"3X c #C48C49",
"4X c #CD8D4B",
"5X c #D48F46",
"6X c #D98E45",
"7X c #D48E4A",
"8X c #D98F4A",
"9X c #CE9347",
"0X c #CC914B",
"qX c #D59246",
"wX c #DA9345",
"eX c #D89843",
"rX c #D6934A",
"tX c #DA924B",
"yX c #DD994B",
"uX c #DA8F51",
"iX c #D79650",
"pX c #DC9551",
"aX c #E1964C",
"sX c #E19949",
/* pixels */
" XR.W.|.W.T.|.).|.R.(.T.).).).).).).).).).E.L.T.|.E.L.(.( ] T.T.{ ).|.(.D.|.(.(.|.).H.(.|.(.|.).).).",
"W.W.^.!.I...~.}.}.I.XXQ.Q.I.Q.!.U.}.[.XX!.!._.Q.%X+X+X^./.`.[.Q.{.~.}.I.I.{.}.}.}.XXI.I.}.}.}.}.'.).",
"G.XXY.P.].W._.!.W.P.XX} I.!.'.} U..X!..X!.XX/.+.) P 0 t | {.{.!.OX} Q.OXF.{.{.{.{.{.K.{.!._.{.[.X.(.",
"D.'.U.).W.G.|.(.D.(.W.G.T.G.T.!.{ T./ ] ( Q 9   3 <.0.J   ] R.).G.~ (.(.H.).).W.).).R.H.(.T.(.{.O.T.",
"(.P.~.G.W.(.(..XW. XW.(.] _.P.w   1 2 + 6 m 3.C.1XtXyX0Xg 0 P.(.] (.'.W.'.'.'.{ H. X|.G.R.'.G.Q.} (.",
"H.].U.W.'.'.).).'.). X(.K.Y   5.Z $.>.l -XtXtXyXpXqX5X1.  ) '.'.(. X). X).).).D.W.R.'.P. X(./ !.{.W.",
").{.[.).'.(.).'.).'.|.^.8 X b.tXH N >.: Z.aXtXtXrXtXc.  ' P.W.). X).).W.G.). XD.D.W.R.D.'.D.D.U.K.T.",
").{.XX|. XG.D.|.'. XQ.  7 ,XtXrXa.- = g :XwXrXtXtXaXh.  U.).J.).W.'.).P. XR.(.(.F.oXW.(.(.D.G.].}.).",
"|.!.I.H. XG.R.R.|.F.  @.3XtXrXqXrX:Xc.:XwX8X8XtXrXtX1X&.  [ { |.W.W.'.(.'.[ R.oXD.).|.'.).|.|.}.{.).",
"W.P.~.H.D.{ (..X[   0.rXwXqXeXrXeXwXyXwXqXrXtXtXtXwXrXV.  Q.).D.oXR.{ ).] D.).R.(.).'.(.G.'.|.[.U.).",
"'.R.I.G.R._.G.`.9 $.iXtXwXeXrXrXrXeXqXqXqXrXtXtXtXtXrXm U .X'.(. XW.R.(.D. XH.W.'. X'.G.'.R.'.[.K.|.",
").{.}.(.G.G._.t < >XwX6XrXrXrXrXrXrXrXrXrXyXyXaX8XrX0Xb U !.(. X).(.).).).(.] '.H.(.'.W.oX{ H.&XU.).",
"|.!.`.|.'. X{   -XaX5XwXtXtXtX8XtXtX8XwX>Xq.q.;XwX6XeXV.X   I  X(.` W.'..XG.H.H..XW.G.'.G.] (.!.Q.).",
"(.G.U.). XW.  u 4.>XeXqXrXtXpXtXtX8XtX*Xy & u - A.yXtXwX3XH 9 !.(.W./ ).'.F.&X'..XH.D.(.] (.|.!.{.|.",
"H.R.U.W..X! @ >.l *.rX8X8XtX8X8XtX6XrX7.& >.*.b $.iXqX6XyX=.r +.Q.P.(.W.G.W.H.'._.H..X'.'.'.).}.].).",
"W.U.[.{ P.q X g & F rX8XpXtXpXtXtXtXrX>.b H %.B M 4XrXrXrXB.  $   h (. X} _.H.D.q F.`.e R ).).}.{.|.",
"|.P.[.).I   S.i.>.M.tXqXpXtXpXtXtX8XtXB.  B %.> =.rXrXrXrX8Xc.B.5.. +.X.  T ~.L   X   ; + G..XXX{.).",
")._.}.XX  y.wXtXrXtX6XtX8XtX8XtXtXtXqX7Xq.> : D ;XrXrXrXrXwXeXtX3Xg     ,.+     V.>Xc.f.6 W H.U.Q.).",
").].$XY c 7XtXtXrXqXrXtXtXtXtXtXtXtXrXtXtX2XM.<XwXtXrXtXtXrXrX5XqX<Xx.M.iX:Xe.A.tXwXtXv.B r R.[._.H.",
"E.F.@X9 q.pX8XtXtXrXrXrX8XtXtXtX8XtXtXtXtXtXyXqXqXtXtXtXrXtX8XqXqXwXyXrXqXrXyXrXrX7X8X=X<.$ K.I.Q.).",
"T.K.Y.  b.yXtX8X6XrXsXwXtXtXtXpXtXtXtXtXtX8XrXqXrX8XtXtXqXrXtXyXqXqXrXqXrXrX7XrXrX8XrXh.4.X R.XX].|.",
"T.!.^.X ,XtXrX6XtX>Xx.;XpXtXrXtX8XpX8XpXpXtXtXtXwXtXtXtXwX:X6.r.qXrXqXtXtXtXpX8XtXrX9.- z O { XX{.).",
"'.R.Y.  S.aXrXpXS.> > - r.tXrX8XtXpX8XtX8XtXpXtXtXtXqX6XrXH o   p.wX8XtXtXtXrXrXtX5Xi V >.X R [.P.).",
").'.+.  C.yXtX0XH a #.D > ,XtXrXtXtXtXtXtXtX8XtXtXwXwXwX4Xz b , ,.wX7XtXtXtXpXrX6XtX7.* g d . I.}.G.",
" XG.@XK l.aXwX5XZ D %.=.% v.aX8X8XtXtXtXtXtXtXtXrXtXqX6XtXC.b g v.eX6XrX8XtXtXtXtXrX6Xc.d.r.   .!.G.",
"(.U.$XK q.aXtXrX9.X D a i ,XwXrXpXpX8XtXtXtXtXrXrXrXtXwXqXtX1X1XqXqXrXrXrXrXrXtXiXrXwXyXN.p.  _ Q.D.",
"G.P.#X8 0.yXrXwXrXy.x B C.tX6XtXtX8XtXtXtXtXqXtXaXtXwXtXrXrXtXqXqXrXwXyXtXaXtXrXrXtXtX<Xx.i.X _ XX|.",
"G..X+X  q.tXtXqXwXtX4X1XrXtXqXtXtXtXtXtXtXtX7Xf.3.>XwXwXrXtXrXrXeXwX9Xa.2.g.rXrXrXqXwX,Xz.0.  Y.Q.oX",
").'.@X8 s.sXwXtXtX8XtXtX8XtXtXtXpXtXtXtXqXtXi.  ; A 7XwXrXpXtXrX8XtX9.X f   8.iX8XqXrXm.z.=.w }.'.).",
").{.#X8 f.tXqXwXrXtX8XtXtXtX8XtX8XtXtXrXqXrX=.M *.= M.pX7XtXtXtXyX<Xp B =.B y ,XtXiX5Xj.s.4 ^ XX].).",
").{.+X$ 9.yXwXwXtXtXtXtXpXtXtXtX8XtXrXqXeX7XJ M =.o v.yX8XtXtXtXtX1Xf N =.B & :XrXrX>Xk.0.  H.XX{.).",
" XR.^.W c >Xl.:XtX8XrXtXtX8XpX7XwXaXyXwXqXrXf.X a : >XrX8XtXtX8XtXtXa.  u X ,.qXwXqXM.z.=.w {.}.{.).",
"|.{.Q./   x > k >XeXqXrXrXtXtXtX0XB.f.4XqXrXrXt.$.h.wXtXtXtXtXrXrXrXrXZ.7.w.4XtXwX4Xj.g.1 ! |.}.{.).",
"(.!.}.).T @ ;.j x.tXeXrXtXtXtXrX2.X X 5.qXrXrXwXqXqXwXwXtXtXpX8XrXiXtXtXeXtX6X8XqXn.z.t.  P.|.}.{.).",
"R.` `..X(.q G i A.rXqXrXtXtXtX4Xs F G , 2XwXwX8X8X8XrXeX7XuXtXrXiXrXtX5X8XwXrX9XN.j.c.m r ].).{.}.).",
"H.Q.!.(.(.E   $.rXqXrXtXtXtXtXrX8.* X F 1XtX8XtXrXtXtXtXeXtX7XeXrXrX8XeXpX4X6.N <.C.2.  G.|.).}.{.).",
"W.R.OXW.G.} E X ;XtXrXtXtXtXtXrX7Xc.q.:XeXuXpXtXtXtXtX8X8XpXyXyXwX6XrX6XpXt.X H f 5.O ! '.|.).} ].|.",
"|.U.I.|.R.H.XXw J rXrXrXtX8XtXrX8XyXyXwXuXrX8XtX8XtX8X8XwXZ.8.a.4XaXrX8XyXa., :.x   q XXG._.|.U._.|.",
"|.P.^.W.R.G.W.E X h.aXrXtX8XtXtXpX7XrX8X8XtXtX8XpX8X8XpXZ.  7   ,.qX8XwXrX:XS Z 7 $ H.oX[ G.oXU.].|.",
"|.P.~.|.D.).D.' r g M.1XrXrXrXtX8XtXpXtXtXtXpXtXtXtXtXtX-.g #.*.* A.aX<XN.j.x.y.X I (.D.{ '.H.!.{.).",
").{.U.|.).P.(.G.!.  >.z.N.rXtXtX8XtXtXtXtXtXtXtXtXtXtXtX;.s @.*., c.*Xs.z.z.g.3 # H.'.D.). X).}.{.).",
"(.}.}.).).R.R.P.'.L.  n y.x.5XtXrX8X7XtXwXtXrXrXrXrX6XrXZ.- g 7 S k.k.x.s.=.o 8 _.'.(.'.'.(.(.}.{.).",
"~ !.}. XP.).W.R.] R.} t   S s.*X<X5XqX7X,X7XtX6XtXrXwXeXtX;X2.2.g.x.c.1.X   ] _.(.H.H.'.(.] H.XX{.).",
"G.!.!.).D..XR.{ W.).W._.F.  7 u.c.x.u.S l Z S.tX7X>Xn.n.m.M.n.n.c.f.n   ! !.W..XH.'.'.G.(.(.H.XX].).",
"G..X~.T.G.'.] G.G.{ W.|.(.... X ;.y.x N -.l *.N.x.k.z.c.g.l.s.f.,.  r } P..X(.R.D.).D.] '.'.E.XX!.G.",
"(.R.XXT.).W.D.G.(.D.W.R.'.).K.]   o o 2 b 7 9.z.z.s.0.D 5 C v X   ) P.(.H.W. X] R.R.] W.H.(.|._.I.(.",
"R.XX}.|.|.).(.W.G.oXT.G.T.R.(. XP.' J.R t   2 C D 1   t Q P U ] } .XW.G.W.|.D.H.W.(.(.H..XG.W.XX[ (.",
"W.W.#X_.[..X} } _.OX_.Q.!.' _..X'.K.OXQ.].I.I U t ` ^.}.XX}.}..X_.].}..X.X{.K.]._.!.{._.XX' W.%XF.G.",
"|.(.Q.I.U.`.I.[.!.[.`.!.XXQ._.~.~.U.OXO.U._.}.^.}.XX}.`.U.}.].}.XX}.}.I.~..X[.U.OX~.o._.o.U.}.Q._.).",
").W.G.W.H.D.D.(.|.H.D.(.W.G.|.W.G.E.(./ G.D.D.(.|.).(.G.).D.T.W.).).)./ G.(.).).|.H.W.).G.).).).).|."
};
