/* XPM */
static char *Screen_20Shot_202021_09_20_20at_204_18_36_20PM[] = {
/* columns rows colors chars-per-pixel */
"50 50 256 2 ",
"   c #010102",
".  c #0B0906",
"X  c #00030B",
"o  c #0B0D0C",
"O  c #160A06",
"+  c #1A140D",
"@  c #040716",
"#  c #020B13",
"$  c #150514",
"%  c #0C1214",
"&  c #0D151B",
"*  c #0A191B",
"=  c #141415",
"-  c #1A1514",
";  c #1A1816",
":  c #12161A",
">  c #131A1C",
",  c #1B1B1C",
"<  c #2E0A0B",
"1  c #2A170A",
"2  c #280B14",
"3  c #251616",
"4  c #2B1B12",
"5  c #331C14",
"6  c #132719",
"7  c #23221C",
"8  c #28281B",
"9  c #35251A",
"0  c #26351E",
"q  c #0A0222",
"w  c #151D22",
"e  c #1A1E22",
"r  c #131E28",
"t  c #240024",
"y  c #2E1B2A",
"u  c #351825",
"i  c #172424",
"p  c #1B2125",
"a  c #1A242C",
"s  c #1D2832",
"d  c #232523",
"f  c #252726",
"g  c #2C2B23",
"h  c #252A2D",
"j  c #2D2E2B",
"k  c #332224",
"l  c #332D24",
"z  c #3A2D23",
"x  c #332D29",
"c  c #2B3624",
"v  c #2D312D",
"b  c #363524",
"n  c #33332C",
"m  c #3B362C",
"M  c #3E3A2D",
"N  c #262E34",
"B  c #3E2B36",
"V  c #2C3233",
"C  c #293539",
"Z  c #333633",
"A  c #3D3B33",
"S  c #353B3B",
"D  c #393939",
"F  c #520F06",
"G  c #5A0B1C",
"H  c #4F2A17",
"J  c #4B391D",
"K  c #563519",
"L  c #673A1A",
"P  c #753D1E",
"I  c #462B22",
"U  c #562921",
"Y  c #473727",
"T  c #433B2D",
"R  c #573B26",
"E  c #433D33",
"W  c #413E3D",
"Q  c #583C35",
"!  c #6C382A",
"~  c #19461E",
"^  c #27531D",
"/  c #1D6918",
"(  c #216B1B",
")  c #23741C",
"_  c #237C1D",
"`  c #297F1F",
"'  c #184B26",
"]  c #294721",
"[  c #364529",
"{  c #295922",
"}  c #375629",
"|  c #3C4A35",
" . c #3C423C",
".. c #2A6923",
"X. c #36672B",
"o. c #2A7424",
"O. c #2B7B24",
"+. c #367625",
"@. c #73471F",
"#. c #496A1C",
"$. c #4B452F",
"%. c #594429",
"&. c #47502A",
"*. c #444235",
"=. c #4B4335",
"-. c #4D4A35",
";. c #44433B",
":. c #4B453A",
">. c #45493C",
",. c #4D493D",
"<. c #564736",
"1. c #524B3D",
"2. c #5C4D3C",
"3. c #4A5736",
"4. c #59553B",
"5. c #674429",
"6. c #764727",
"7. c #755427",
"8. c #644737",
"9. c #764A35",
"0. c #65543E",
"q. c #775537",
"w. c #4D6E29",
"e. c #497B27",
"r. c #4A673A",
"t. c #576539",
"y. c #4D7737",
"u. c #557737",
"i. c #656439",
"p. c #64773C",
"a. c #383B4A",
"s. c #483F46",
"d. c #394147",
"f. c #3A4658",
"g. c #3D4C66",
"h. c #444A45",
"j. c #4C4C43",
"k. c #534E43",
"l. c #594C46",
"z. c #4D5249",
"x. c #545244",
"c. c #5B5444",
"v. c #54544A",
"b. c #5A5749",
"n. c #5C5B4C",
"m. c #414156",
"M. c #555853",
"N. c #5C5D52",
"B. c #665846",
"V. c #635C4C",
"C. c #725144",
"Z. c #655E53",
"A. c #576248",
"S. c #5C7C43",
"D. c #5D6257",
"F. c #68654A",
"G. c #786549",
"H. c #687846",
"J. c #75784A",
"K. c #656254",
"L. c #6A6554",
"P. c #686759",
"I. c #6C6A5B",
"U. c #736A53",
"Y. c #726C5B",
"T. c #6C7E52",
"R. c #757955",
"E. c #75715D",
"W. c #5F6661",
"Q. c #726F61",
"!. c #7A7564",
"~. c #797667",
"^. c #707468",
"/. c #933833",
"(. c #824523",
"). c #884925",
"_. c #8A4D29",
"`. c #934D27",
"'. c #86542B",
"]. c #8C502D",
"[. c #94522C",
"{. c #9A552D",
"}. c #854138",
"|. c #855A3A",
" X c #965A33",
".X c #A85223",
"XX c #8D613E",
"oX c #904940",
"OX c #885845",
"+X c #8C6544",
"@X c #916846",
"#X c #877A5B",
"$X c #93715B",
"%X c #A96E58",
"&X c #887865",
"*X c #827E6C",
"=X c #11861F",
"-X c #25841E",
";X c #28841F",
":X c #268A1F",
">X c #34891E",
",X c #23961D",
"<X c #26AF19",
"1X c #278726",
"2X c #2B8422",
"3X c #278C20",
"4X c #298D20",
"5X c #368827",
"6X c #2A9421",
"7X c #2B9C23",
"8X c #2A9925",
"9X c #339425",
"0X c #339D25",
"qX c #39972A",
"wX c #3B8F35",
"eX c #0CB223",
"rX c #27A724",
"tX c #2DA324",
"yX c #2FAC26",
"uX c #32A326",
"iX c #30AD27",
"pX c #33A529",
"aX c #3BA42C",
"sX c #33AB29",
"dX c #3AA92B",
"fX c #2EB225",
"gX c #2CBC29",
"hX c #30B127",
"jX c #32B528",
"kX c #35B729",
"lX c #33BB2A",
"zX c #448729",
"xX c #538E2F",
"cX c #45992C",
"vX c #498535",
"bX c #578738",
"nX c #469932",
"mX c #569537",
"MX c #608A3D",
"NX c #44A42E",
"BX c #588A44",
"VX c #579B4B",
"CX c #688545",
"ZX c #71844D",
"AX c #77825A",
"SX c #5FA557",
"DX c #7C8465",
"FX c #82815D",
"GX c #878567",
"HX c #998869",
"JX c #888878",
"KX c #938E79",
"LX c #96957C",
"PX c #8C9483",
"IX c #969583",
"UX c #A8A490",
/* pixels */
"tX6X7XyX_ -XyXyXhX-XhX:XtX6X6XtXtXiXiXiXrX,X9XX.gX4X'.7.=X:XtX,X4XyXfX:X-XyXyXyXiXhX-X4XhXyXyXyXiXyX",
"-XhX3X3X3X4X6XyXtX4XlX_ :X7XrX_ 6XtXtXjX>XdX5Xu e. X'.#.,XgXiX:XlX:X7X7X-XfXyXyXyXfX-X4X7XyXyXyX7XyX",
"3XlX-XyXtX7XfX6X:X7XyX_ 4X:X6X:X:XjX:XiXe.i.&.@ w.zXeXrX9X6XiXiXyX( 8XlX-XyXyXiXyXyX-XyXtX6XhXyX) 7X",
"7X4X7X7X6X3XhXyX:XfX:X6X;XtXtXfX,XtXgX+.R R 6.R ~ c +.;XlX,X_ tX( 4XyX4XtXhXyX-XrXhXyX_ 7XtX7X7X_ 7X",
"tX6X3X4XyXyXyXyXyXyXiX8X) 7XiXyXuXsX..K R 7.%.5.6.Q i { qX7XrXtX:XyXyXyXhXyXyX_ 4XtXhX:XtXiX-X4X3XtX",
"7XyX6XyXyXyXyXyXyXyXhX8X6XhX6X7X) X.u 5.P ).7.J %.5.%.Y u O.0XfXyXyXfXyX8XsXrX2X8X3XtX_ jX7X_ 6XtX6X",
"fXyXfXyXyX6XtXhXyXyXyX1X:XyX2X} 8 x 5.'._._.6.@.J K 5.5.z 0 m 5XyXfXtX6X8XtXjX3X_ hX4X7XtX) -X,X3XtX",
"yXyXtXyXhX-X_ yXiXyX,XvX5Xo.c 5   Y '.P (.).6.@.K 5.K 6.4 b z d X.qXyX,XlX-X8XgX;XlXtXiXyX7X7XyXjXyX",
"tX:X:X4X7X_ iX6XtXrX-Xt.M ; l 6 ; 9._.`.[.).(.L @.@.L 5.= 3 m [ b k 5XdX8X..rXyX:XyXyXiXrXhXiXyXtXyX",
"7X:X7X6X:X6X7XkX6XO.3.B.4 =   9 |.}.[.]._.).`._.(.P R R o 4 9 Y M l c [ } r.8X1XfXyXyX8X4XtXhXtX-XyX",
"hX7X:X:X6X7X:X7X7Xo.n.k 9 #XG.'.XX X X].[.`.[.{.).@.6.R o 4 O R q.*.;.m 9 V.{ yX7XiXtX4XlX:X7XfX:XyX",
"yXyXhXyX,X7XuX( :XsXA.,.F.#X@X|.XX{.[. X).[.{.[.`.P 9.H + 4 5 4 5.q.8.B.z c.I qXtX6XyXiXiX( 7XlX:XyX",
"yX:XrXyXfXhX0X` rX9Xv.B.~.j.H F.HX[. X X[.[.{.).[.6.6.9 4 1 5 4   5.@XV.m b y o.lX7X) tX) :XyX3XtXyX",
"4X6X-XfXfXtX) 0 O.8Xr.Z.V.c.B.~.0.q.HXXX).`.`.{.{._.9.3 4 4 1 < m E <.E S j t 1XfX:X7XyX:XfXyXyXyXyX",
":X6X6X,XqX] 0 } ] } ] T P.K.K.v.T F.FX+X X X[.{.[.(.5.- 5 1 9 4 E A f 3 V , q 9X7X7XfXyXsXyXyXyXyXyX",
"tX4XrXr.4.3.Z 6 b A T $.m v.Y.K.U.E.x.K i.HX{.{.(.].K 1 5 9  .9 9 V v - w q ~ ~ ..sXfXtX6XfXyXyXyXiX",
"jX;XeXSXB F.V.0.B.c.-.=.k.1.T 1.Y.V.:.B.E.B.+X$XXXOXM 9 x z E V e = e > p , 6 = $ } wX8XrX6XiXtXrXhX",
"hXrXfXqXQ Y.m L.B.;.D M Z.U.Z.E T V.F.F.N.Y E.#X|.#Xv.z E k 3 h . w e = E g $ O l u B X.iX_ 6X:X,XuX",
"tXtXfXVXZ.v.c.~.h.l & l E b.JXk.z m Z.U.b.F.*Xj.J #X,.O j h = % a.a.% ; ; =.c.E 2.,.9 s. ._ 4XtX0X,X",
":X) yXqXQ.P.V.b.h 7 : m E k.b.:.c.<.Y W n.L.L.1.B.Z.m & , > > w m.m.:   g L.E B.=.h.W j h.O.:X:X7XhX",
"4X6X7X7X| l.I.Z.f ,   g c.Y.j.v.V.*Xc.Y T *.V.K.B.d.w p > w , - a.g.r   E E ;.Q.:.j l 2 ' 9XyXfXhXiX",
"6X7XjX:Xr.<.T n.f . = d 0.E.k.n.E.I.P.B.!.z *.x.K.h., > % = . o f.f e X m :.c.z.W 2 , t ' jXyXyXuXiX",
"hX:XtXjX3.l.:.m = g   b.UX!.4.Y.n.  K.I.k.V.!.E k.j.> = = ; d , - X   l ,.E *.D y 3 7 t 1XhXsX8X,XtX",
"iXtX6X,Xy.l.b.l =.:.k.; &XUXIX$.z < B.P.n P.n.B.z j.E     = 9 j.D Z k.R k.E l N e < 1 t 1XhXyX3XhX-X",
"hX:XjX-Xy.Z.E.Z.b.=.U.Y l.*XGXQ.=.F 8.N.;.n.g 1.k.b.m :., g E m k.l.<.<.D N e & 2 H k > 2X,X,X) ;X:X",
"6X,XgX_ } ~.~.c.;.!.b.Y G.V.1 K.=.F l.P.c.K. .,.v.;.1.c.2.B.:.j Z W D S e w e > - ).5.q sX0X/ _ 0X:X",
";XtX7X/ r.Z.1.k.c.P.Z.Q OX+Xq.U.c.F 8.*XI.n.x.:.=.T !.E V.<.d a.5 e h a e e % ; 8 .X6.q 9X6X:X:XiXlX",
"7XiX2X-Xr.c.,.x.x.L.v.Q B.+X@X+XG.+X8.DXKX1.- f A V.K.1.Q.d.u - 3 w w w : : o : T `.6.@ 5X0XtXiX:XlX",
"yXyXsXdXr.l.N.j.8  .9.%Xh.q.U.q.@X%XHXl.2.M ;.3 z k.K.n.v.h 2 e 3 i & N h % : & l ! R @ +.dXdXiXyXyX",
"sXdXcXxX3.N.I.E l C OXC.oX$XZ (.U.C.q.~.N.E Y.E 2.1.T x.N.h 2 3 2 & : d.h : : & d z 4 > b X.qXdXiXiX",
"<XqXy.ZX^.Y K.;.5 W.&X! oXB./.%Xz.<.*X=.;.I.z.B.L.l V 8 ;.h < 3 2 & w C r w : > X A h.  0 c c +.0XhX",
"VXS.H.P.JXJXT g X ~.&XC.OXC./.G.h.A K.x.I.M.j.Q.z.Z : l E = U R $ w : a s : : : : M.S w 8 c ] b ] :X",
"SXAXT.F.N.IXIXQ.:.PX*XF ! C.}.Q D x.V.b.K.K.L.N.S f # A 1.# ).`.* e i s N a & % > M.h.N p 0 0 0 0 { ",
"bXS.ZXK.n N.KXJXz.IX1.o G I ! 0.| ,.L.~.v.m n.Q.S i # ,.x.i `.`.* > s + r N o : X V S w 7 d 0 0 0 ^ ",
"vXA.ZXAX$.b j.Y.-.JX,.-.<.  G U 6 o ,.Q.K.T x.j.S % # :.c.v (.(.> : C O : N o % o n N a > p i 0 , { ",
"5XxXH.H.AXB.F.GX4.A.>.c.Q.,.U O # f P.m ,.K.I.m V , X =.x.h 5.H > w a O o C : % X V f > i i i i | qX",
"9XzXMXAXFXFXF.4.M ;.8 *.n.!.N.*.  h.DXA x.Z.j.x.h e # n x.p k *.# a e O . h & o % & & * w 7 3.r.BXaX",
"sX5Xe.CXAXFXR.n.-.;.j <.2.c.P.GX;.~.KX; c.N.v.K.Z : * l x.> Z z.X s , O $ r % o X j S  .0 8 u.y.0XsX",
"sX2XvXvXCXT.H.~.GXJ.-.2.2.%.1.L.GXIX~.  =.P.z.D.Z % % m c.: D.z.h C r O . r % # . z.b.h.y w.cX5XuXsX",
"iX4XuXaXzXmXu.H.J.J.U.m :.T g :.L.JXK.F.V.x.I.b.Z = # m ,.% d.M.j s > . . w : ,   h a.D w.zX9X9XpXyX",
"iXsX:XdXaXzXnXu.bXH.G.4.l - n <.T E.K.E.KX-.c.v.Z     m ,.p d C > a : . % : @ # -.3.3.y.cXdXtXsXyXyX",
"tXhXhXsX0XqX5X5XxXmXJ.p.i.F.R.#Xi.1.n V.IXKXP.m . f V A =.% j V w i : # @ @ | t.H.p.xXnXpX8X0XyXyXyX",
") 7XhXhX;XsX9X5X+.zXbXCXR.J.J.GXGX-.8 = I.KXUXJXD.d.a g *.: h V % * & 8 | -.J.H.xXzX9XuXtX..8XhXyXyX",
"7X7XuXtX;XlX;X2XqXaXy.mXbXH.p.J.FXGX#XJ.E I.IXPXD.@ J Y n 7 e # e > # -.J.H.u.BX+.aX0X1XtX8X6XhXyXyX",
",XjX7X:X6XtX) 4X:X+.qXNXzXy.bXCXJ.FXGXHXG.T x.b.V 4 R l 8   h.M.d.e c t.p.xXzX5XO.dX2X) iXyX8XhX6X:X",
"6XuXkX,XiX,X;X:XuX;X0X5XNXcXvXbXH.ZXGXFXGXGX3.x.v + l %   n j.z.Z v i.p.e.wXaXo.9X:X) 6X6XtXhXrX-XtX",
"tXhXiXiXiXiXuX,X,XkX6X4X>X9XnXNXzXu.J.J.DXLXLXR.b.F.z M E.F.*.S &.bXxXzX9XaXO.6X8XsX7X6XjX:X8XjX_ tX",
"6X7XiXtXiXhX) _ iXlX7X6X6X) uXdXNXzXmXMXp.CXDXGXDXT.F.H.R.H.t.H.xXnXqXpXsXdX2XsXtX7XyXyXyX( 8XlX2X:X",
"iXtX:X;X6X7X_ iX4XyX8X7XhX7X7XuX9X5XNXe.bXH.AXAXH.H.u.H.p.u.bXmXcXaXpX` tXhXtX:XlX6X_ tX) :XyX,XtXiX",
"iX6X,X7X4X-X:XiXyX6X_ yX6X,XkX6X4X0XqX+.5XvXBXxXBXbXbXbXxXu.zX0XsXsXiX) :XuXfXiXiX7X7XtX:XhXyXyXiXiX"
};
