/* XPM */
static char *Ennemie[] = {
/* columns rows colors chars-per-pixel */
"50 50 133 2 ",
"   c #050605",
".  c #0D0D0D",
"X  c #041103",
"o  c #091407",
"O  c #071F04",
"+  c #091408",
"@  c #0C1B0A",
"#  c #101E0E",
"$  c #141414",
"%  c #151A14",
"&  c #181817",
"*  c #1C1C1C",
"=  c #072104",
"-  c #092305",
";  c #0E230B",
":  c #0F2B0C",
">  c #102B0D",
",  c #0B3306",
"<  c #0D3A07",
"1  c #0D3508",
"2  c #0E3D08",
"3  c #10300C",
"4  c #182717",
"5  c #152B12",
"6  c #1B231B",
"7  c #1F2B1D",
"8  c #202020",
"9  c #252A24",
"0  c #2B2B2B",
"q  c #2C312C",
"w  c #323232",
"e  c #373C36",
"r  c #3B3C3A",
"t  c #0F4208",
"y  c #10430A",
"u  c #114A0A",
"i  c #13540B",
"p  c #145B0B",
"a  c #185C0F",
"s  c #1D5017",
"d  c #234B1F",
"f  c #16650D",
"g  c #17680D",
"h  c #196B0E",
"j  c #1A740E",
"k  c #1C6C12",
"l  c #1D7412",
"z  c #1E7B13",
"x  c #294725",
"c  c #3E403D",
"v  c #40413F",
"b  c #454545",
"n  c #434C42",
"m  c #4A4B4A",
"M  c #4F504F",
"N  c #4F594E",
"B  c #545454",
"V  c #515C50",
"C  c #5C5C5C",
"Z  c #636363",
"A  c #6B6B6B",
"S  c #747474",
"D  c #7B7B7B",
"F  c #1F8113",
"G  c #1E8A11",
"H  c #1F9111",
"J  c #208513",
"K  c #218C14",
"L  c #298C1D",
"P  c #229314",
"I  c #239C14",
"U  c #29951C",
"Y  c #25A415",
"T  c #26AE15",
"R  c #28AF17",
"E  c #28A419",
"W  c #2AAB1B",
"Q  c #27B216",
"!  c #28B517",
"~  c #29BA17",
"^  c #29B419",
"/  c #2ABB18",
"(  c #2B8620",
")  c #328328",
"_  c #349228",
"`  c #3D9E31",
"'  c #38A62A",
"]  c #41B433",
"[  c #46B639",
"{  c #2AC118",
"}  c #4C8C44",
"|  c #4D9843",
" . c #53AE47",
".. c #57B94B",
"X. c #5DB751",
"o. c #6EAF66",
"O. c #71AA6A",
"+. c #6EBD64",
"@. c #74B36C",
"#. c #76BB6E",
"$. c #83C17B",
"%. c #848484",
"&. c #8D8D8D",
"*. c #8F908F",
"=. c #929392",
"-. c #9B9B9B",
";. c #9DB69A",
":. c #A5A5A5",
">. c #AAAAAA",
",. c #B4B4B4",
"<. c #BCBCBC",
"1. c #8CC385",
"2. c #94C58E",
"3. c #96C391",
"4. c #9FC79A",
"5. c #A0C09C",
"6. c #A5C8A1",
"7. c #AECAAA",
"8. c #B2C2B0",
"9. c #B9CCB6",
"0. c #BBC5BA",
"q. c #BCCCBA",
"w. c #C3C3C3",
"e. c #C5CDC4",
"r. c #CCCCCC",
"t. c #C7D0C6",
"y. c #CED0CD",
"u. c #D1D1D1",
"i. c #DDDDDD",
"p. c #E3E3E3",
"a. c #ECECEC",
"s. c #F4F4F4",
"d. c #FEFEFE",
/* pixels */
"T Q T T T P z J Q T F Y P Y T Q T T T T Q T I I P Y P P Q l K T T K T J T I I T T Q T T T T Q T Q T ",
"T T I T T I T T T T I P I T T Q T Q T Q T T K K ! P K Y P l K J z T T T z ^ P T T T I T T T T T Q T ",
"T I I K Y l z T T T z ~ K P F P I Y T T T J Y P T Y K K P P Y K Y I Q J J Q T Q T T l K T T T T T T ",
"T P Q z K P Y J T J Y Y l P T I l ! F T T J Q K J ~ J T J T T J / J K ! z T T T T Q z T P T T I P T ",
"Y J T G T P P ^ K J T P K J z P P P ! P I T P l Y Y P Y ~ K I Y I l I T K T Q I Q T J I I P T I z P ",
"J I F Y K I I Q T Y T P K J T T Q P Q P F Y l Y Q P Q I T Y z T j I T P Q T T l I T T J I K Y z J I ",
"T P Y F Y T T T Q Q Q T K Y J T H Y ! T F T Y T T K Y I T T Y Q Y T T T T Q T z I I T J Q J z Y T K ",
"T T Y j t = O , p Y T T K P ^ J G Y P K F F Y T Y K Y K z z P T Q T T Y J T T z J P I J T z I z z Y ",
"T P ; Z ,.p.a.r.%.4 F P P K Y l P T F I F Q P Y z Q P z P Y J Y I T Q z ! P I Q F ~ P Q I J J T Q T ",
"T , :.d.d.d.d.d.d.p.9 z Y I T Y T K Q Q I K Q P P Y z z P P J Y Y P T I T z P / J T T Q Q T Q T T T ",
"Y 9 0 y.p.i.i.p.s.C Z t P I T I l T J T J Y Q T T T Y Y T T T F Q I z Y l J T J T T T I P T T I P T ",
"G B a.A :.,.,.>.b u.a.4 I J P F K / z K Q z Y I I T T Q T T T T T I I T J Q z Q Y T T J Y I Y Y P Q ",
"G b d.D s.d.d.d.B d.d.m I J F z P T l K ~ l K P I P T Q Q Y Y T Q Y Y T T Y l ! P Y T I Y F P Q P T ",
"T O u.i.A -.>.A -.d.d.A k P Y J Q K K K Q z P F F z T Q T J I Y Y l P T T K Y J ! P z Y l K T J Y T ",
"T j % &.i.u.<.i.a.d.d.%.i P J I I / J T G l G T T Y G P z g z G J T l Y I K Q T T J Y Y K Q T T Q T ",
"T P J i O O > & ,.d.d.-.f P T T T T T T I T T T F s N D *.-.&.S N d z P P I z Y P I T T T T T T T Q ",
"T Y G T l K { @ r.d.d.,.i Q T Q Q T T I G K Q T X A -.<.e.w.,.-.S b   I I I I J I T T Y I Q T T Q T ",
"T Q F Q W K K , :.s.d.r.< T T T T J T P I z I u r r.:.&.%.%.=.>.r.s.b q 2 G J Y Q Q Q J I I T T T T ",
"T Q Q T T Y K i A a.d.s.o K Q T F ~ z P P i r <.C d.d.d.d.d.d.d.d.d.B u.w.c 1 F Y T Y P Y K F F P T ",
"T Y Y T Q K ~ a r p.d.d.r z P Y K / z Y : *.d.d.B a.d.d.d.d.d.d.d.p.b u.d.d.&.; z Y z T P F K P P Y ",
"T P l T Y K / l @ r.d.d.-.p Y l P K H 5 <.d.d.d.-.C B B C Z C B C S ,.s.d.d.d.<.@ z P Y l z I I Y T ",
"T P Y F P P J Y t *.s.d.s.4 Y J T z ; <.d.d.d.d.d.d.d.d.s.a.s.d.d.d.d.d.d.d.d.d.,.; Y T Y T T Q T Q ",
"T I P ! K Y z P k m p.d.d.%.f I Y u *.d.d.d.d.d.d.d.d.d.d.d.d.d.d.d.d.d.d.d.d.d.d.=.< Q Q T Q Y Y Q ",
"Q Q I K T Y z I P > e.s.d.s.7 P z c d.d.d.d.d.d.d.d.d.d.d.d.d.d.d.d.d.d.d.d.d.d.d.d.b h T T T K P Y ",
"T T K T K T z Q I i S p.d.d.:.y - r.d.d.d.d.d.d.d.d.d.d.d.d.d.d.d.d.d.d.d.d.d.d.d.d.i.@ K T Y P I Y ",
"Q Y J / z K z J T H 4 r.s.d.s.r b d.d.d.d.d.d.d.d.d.d.d.d.d.d.d.d.d.d.d.d.d.d.d.d.d.d.D t I k l l I ",
"I P P T l K I I I T h A i.d.d.Z >.d.d.d.d.d.d.d.d.d.d.d.d.d.d.d.d.d.d.d.d.d.d.d.d.d.d.p.@ z F J T T ",
"Y G Y G l P z I T T T > ,.a.s.8 s.d.d.d.d.d.d.d.d.d.d.d.d.d.d.d.d.d.d.d.d.d.d.d.d.d.d.d.C y Y P I / ",
"T T Q Y Y T T Y T T T G 0 u.0.b d.d.d.d.d.d.d.d.d.d.d.d.d.d.d.d.d.d.d.d.d.d.d.d.d.d.d.d.<.- Q T T Q ",
"T Q T T Q Q Q l Y T Q T g M S %.d.d.d.d.d.d.d.d.d.d.d.d.d.d.d.d.d.d.d.d.d.d.d.d.d.d.d.d.d.& P Q T T ",
"T T Q P K I T l P Y T I I u . >.d.d.d.d.d.d.d.d.d.d.d.d.d.d.d.d.d.d.d.d.d.d.d.d.d.d.d.d.d.m f T T T ",
"Q T K I I K z z ! P Y J ^ J X &.i.d.d.d.d.d.d.d.d.d.d.d.d.d.d.d.d.d.d.d.d.d.d.d.d.p.:.Z 8   , T Q T ",
"T T T F z K Y Y K / z J K I u # 0 * r Z %.:.w.i.s.d.d.d.d.d.d.d.d.d.s.i.<.-.S b &     B *.<.r Y T Q ",
"T Y Y T T I l P I T P Y K Y z n u.r.,.r Z B c 0 * & * 9 w w w 0 * . . & w m Z %.:.r.0 u.i.p.%.j T T ",
"T P z T T T z / J T T I l E } A s.a.a.%.-.u.u.u.u.u.w.<.<.,.,.,.<.w.u.u.u.u.u.u.u.u.0 s.d.d.<.x ] Q ",
"T P Y F T P I z l z Y I | q.&.-.d.d.d.,.D u.u.u.u.u.u.u.u.u.u.u.u.u.u.u.u.u.u.u.u.u.w p.d.d.p.8 r...",
"T I P ! K K l ^ z K k L r.u.D D d.d.d.*.A u.u.u.u.u.u.u.u.u.u.u.u.u.u.u.u.u.u.u.u.u.A C :.%.0 B u.2.",
"T T J K T K K ! z R z U 0.u.w.A b b b A w.u.u.u.u.u.u.u.u.u.u.u.u.u.u.u.u.u.u.u.u.u.r.:.&.-.w.u.q.] ",
"T T F Y K J I J K P P I _ 3.r.u.u.u.u.u.u.u.u.u.u.u.u.u.u.u.u.u.u.u.u.u.u.u.u.u.u.u.u.u.u.u.9.O.^ T ",
"T Q G Y T P T l l P T T K ~ ) o.5.t.u.u.u.u.u.u.u.u.u.u.u.u.u.u.u.u.u.u.u.u.u.u.u.u.e.;.@.[ J T T Q ",
"T T Q K ! I P Y K E P I K ! l J I E ` X.#.1.5.7.q.e.r.r.u.u.y.y.y.r.q.8.6.3.$.+. .' T P T T Q T T T ",
"Y I T T Q I I J K Y E K Y P l K P P Y I T T T T Q Y I U L ( U W T z Y l P Q T T T I Y Q T P T T Q T ",
"Y j I T T J ~ z P z J Y T Y Y Y T T I l I T T T J z z I Y Y T T J Y T Y k P T Q I I K T P k Y Q T T ",
"Y K I I I P ! l J Y T J T Y z Q J I I I I I l k P T P z I T Q z / l P I J Y P T K Q J P Y K T T Y T ",
"Y K T I K I I j K K l T Y I z T J P K K T I P J J h k I I I I K ~ l K P P Y Y K J Y l K Y I T Y J P ",
"J T T Q Y T I I P Y z Y J { z T J Y Y J E T l J J I E K T Y l I K I K J J Y P l Y J K K I Y T I P T ",
"Q K T T T T Q z P I { J K z Y T T J J I I T J P I z z I T I P T J T T Y T T z ^ K Y T K E P K R j Y ",
"! Y I I I Y T l P Y Q I I J J Y T I I Y J Y J I T T T T I T T T T T T I T Q K I T P P T J z T I I J ",
"T T I P K K J z Q P Y J T J Q I I z T P J J P P T T T P I P I Y T T T z P T T I Q K K I z Y T I T T ",
"T Q Y z z K T Y P ! J z P I J ! P I Y l l I I T Q T T J / k I K T T T z Y P T T Q Y T T Y Q T Q Q T "
};
